<svg xmlns="http://www.w3.org/2000/svg" viewBox="0 0 463.6 463.3"><defs><style>.cls-1{fill:#1d2225;}</style></defs><g id="Laag_2" data-name="Laag 2"><g id="World-map"><g id="Africa"><polygon class="cls-1" points="327.6 39.3 327.6 39.3 327.6 39.3 327.6 39.3"/><polygon class="cls-1" points="60.8 165.8 62.3 164.8 63.5 164.7 64.4 163.9 64 161.8 64.6 161.1 64.7 158.9 54.3 158.6 52.8 159.4 50.9 159.2 47.9 160.2 48.3 161.6 50 162.9 49.9 163.9 51.2 165.7 53.6 166.2 56.5 168.8 59.1 165.7 60.8 165.8"/><polygon class="cls-1" points="423.4 326.8 423.4 326.8 422.2 322.5 420.8 319.8 419 317 417 319.9 416.7 323.8 413.4 328.2 411 327.4 411.6 330.2 409.8 333.4 404.9 337.4 401.5 341 399.1 341.1 396.9 342.3 393.7 343.6 390.9 343.8 389.9 347.9 387.7 351.5 387.8 357.4 388.6 361.5 389.7 364.5 388.9 368.6 386 373.5 385.8 375.6 383.2 376.7 381.9 381.3 382.1 386 383.6 391.1 383.6 396.8 384.8 400.2 389 402.5 392 404.1 397.1 401.4 401.7 399.9 404.8 392.4 407.7 383.5 412 371.3 415.4 362.5 418.1 355 418.8 349.5 420.5 348.1 421.2 345.3 420.4 340.6 421.6 338.7 423.2 342.4 424.4 340.6 425.1 337.5 423.8 334.5 423.4 326.8"/><rect class="cls-1" x="322.5" y="246.3" transform="translate(-42.02 424.6) rotate(-63.43)"/><path class="cls-1" d="M429.8,162.5h-2.2l-2.5,2.2-3,.7-2.5.9-1.8.2-3.2.2-2,1.2-2.8.4-4.9,2-6.1.7-5.2,1.7h-2.8l-2.7-2.7-1.2-2.7-1.9-1.2h0l-2.4-1.7,3.1-1.6.1-2.6-1.4-2-1.7,1.6-2.4-.6h0l-2-2.1-2.5-3.7-2.6-2.1-1.5-2.2-5-2.6-3.9-.1h0l-1.4-1.3h0l1.4,1.3,3.9.1,5,2.6,1.5,2.2,2.6,2.1,2.5,3.7,2,2.1,2.4.6,1.7-1.6h0l-2.9-1.9-1.8-2.2-3.2-3.8-3.3-3.6-8-6.1-3.2-3.1-1.9-5.9-3.6-7.4-2.7,3.6-4,1.1-1.7,2-.3,4.2-2,9.5.7,2.5,6.6,1.4h0l-6.6-1.4h0l-.7-2.5,2-9.5.3-4.2,1.7-2,4-1.1,2.7-3.6-3.2-2.4-2.2-1.6-2.5-7.6-1.2-6.7,1.2-1.1-2.1-6.3h0l-1.1-1.3-6.8-5.8-.4-4.2,1-1.1L333.8,79l-2-3.6-2.3-3.5-4.9-10-3.9-6.5-2.8-6.7.5-.6,4.7,9.2,2.7,2.8,2,2.1,1.2-1.1,1.2-3.4.7-4.8,1.3-2.6-.7-1.6-3.9-9.4-2.5,1.6-4.3-.4L316.4,39l-1.1,2.1-1.8-3.2-3.9-.8-4.7.6-2.1,1.8-4,2-2.6-1-5.5-1.9-5.4-1.7-7.2.1h0l-1.7,3.1,1,2.8-1.1,3.9,2,5.2,1.3,22.8,1,23.7h0l.5,12.8-.5-12.8-1-23.7L278.3,52l-2-5.2,1.1-3.9-1-2.8,1.7-3.1h0l-1.5-2.1-5.4-.7-1.8-1.1-2-.1-2-2.8L258,28.9l-3.7.8-3.7,3-1.5,3.2,1.6,4.9-2.5,2.9-2.5,1.7-6-3.2-7.8-2.7L227,38.3l-2.8-5.7-7.3-2.9-4.5-1.1-2.3.6L203.7,27h0l-2.1-1-1.4-3.1-2.8-.1-1.2-3.5,3.5-3.2.5-5.6-1.9-1.6L198.2,6l2.5-3.2-.4-1.2L195.9,4V.7L192.2,0l-5.7,2.5h0l-3.6.4-2.2-1.5-5.7.1L170.1,4l-2.7-.9-8.8.5-9,1.1-5.1,2-3.3,2.6-5.8,1.1-5.1,3.5h-2.4l-5.5-1.4-5.1.4-3.1-2.7-3.9-.1-1.8,4-3.7,6.6-4.1,2.7-5.4,2.9-3.6,4.3L90.8,34l-2.2,5.6,1.2,7.9-4.7,5.4-2.8,1.7L77.9,59l-5.1.7-2.9,2.5-.1.1-3.6,6.5-3.8,2.4-2.1,3.9-.2,3.5-1.6,3.7-1.9,1-3.2,4.1-2,4.5.3,2.2-1.9,3.4-2.2,1.7-.3,3h0l-.3,2.7h0l2.8,2.8,1.4,3-.6,3.2.6,3.2.4,6.4-.8,6-1.6,3.2.4,3.4-1.4,3.3-2.8,4.5-2.5,1.3,2.7,2.2,2.3,5h0l-.8,2.9.8,4.9,3-1,1.9.2,1.5-.8,10.4.3,2.7.1,4.1,1.5,1.2-.1.4-.7,3.1.5.8-.4h0l.3,2.4h.9l1.5-.9.9.2,1.6,1.7,2.4.5,1.5-1.4,1.9-.9,1.3-.9,1.1.2,1.3,1.4.6,1.8,2.3,2.7h0l-2.3-2.7-.6-1.8-1.3-1.4-1.1-.2-1.3.9-1.9.9-1.5,1.4-2.4-.5-1.6-1.7-.9-.2-1.5.9h-.9l-.3-2.4-.8.4-3.1-.5-.4.7-1.2.1L67.4,159l-2.7-.1-.1,2.2-.6.7.4,2.1-.9.8-1.2.1-1.5,1-1.7-.1-2.6,3.1,1.7,1.1.8,1.4.6,2.8,1.4,1.3,1.4.9,2.2,2.5,2.4,3.8h0l.7,4.7.9,2.4,3,3.4,4,2.6,1.5.5,3.8,4.1,4.8,3.5,5.2,4.9,5.8,3.1,1.5-.1.4-5.3.6-.8-.2-2.5-2.4-2.7-1.8-.4-1.6-1.8,1.2-2.9-.5-3.1.2-1.8h0l-.2,1.8.5,3.1-1.2,2.9,1.6,1.8,1.8.4,2.4,2.7.2,2.5-.6.8-.4,5.3,1.1.2,5.6-2.4,3.9-1.8,6.7-1.2h3.7l3.9,1.2h2.6l5,1.8,5.1-1.9,3.2-2.2,8.9-3.7-1.3-2.3-1.5-4.1-.5-3.2,1.3-5.7-1.4-2.4-.6-5v-4.7l-2.3-3.3.4-2h0l-2.6-.5-1.8,1-2.5-.5-9.8.3h0l9.8-.3,2.5.5,1.8-1,2.6.5h0l-.4,2,2.3,3.3V179l.6,5,1.4,2.4-1.3,5.7.5,3.2,1.5,4.1,1.3,2.3,4.5-1.4,4.7-.8.3-10.3-.3,10.3h9.2l4,4.2,1.9,4.6,3.1,4.1,4.5.1,2.2-1.4,2.1.3,5.9-2.3-.1,1.8,1.5.9,1.1,2.9,2.6,1,2.3,4.3-.9,5.1h0l-1.9,7.2,1.1.9h0l-1.2,4.8-1.3,4.7-1.3,2-.2,2.2,3.5,6.6,3.7,5.3,5.8,6.5,4.3-3.6-2.1-4.2,2-1.6,3.8-.8.4-2.9h0l-.4,2.9-3.8.8-2,1.6,2.1,4.2-4.3,3.6,4.6,6.8h0l1.5,4.8h0l.8,2,2.3-.9,1.7.1,2-.7,16.7.1h0l-16.7-.1-2,.7-1.7-.1-2.3.9-.6,1.2,2.8,4.1,1.2,4.3,1.6,6.2-1.7,2.5-.3,1.4,1.3,3.8,1.5,3.9,1.6,2.3.3,3.7-.6,4.7-1.9,2.9-3.3,4.2-1.4,2.6-1.9,5.8-.3,2.7-2,5.9-.9,5.7.5,4h0l.3,4.9,4.4,6.3,1.1,4,2.8,7.7,2.8,5.3,2.1,2.7.6,3.5-.1,7.7,1.6,9.9,1.2,4.6,1,6.3,2,4.6,3.9,4.9L234,420h0l-2.8,3.2,3.6,8.3v.1l2.4,5.4,3.3,6-.1,4.9-1.8,1.2,1.5,4.3-.3,3.8.6,1.7.3-.9,2.2,2.9,1.8.1,2.1,2.3,2.4-.2,3.5-2.4,4.6-1,5.8-2.6,2.2.4,3.3-.8,5.7,1.2,2.7-1.2,3.2,1,.9-1.8,2.7-.4,5.9-2.4,4.3-3,4.1-3.8,6.7-6.6,3.5-4.6,1.8-3.3,2.6-3.3,1.1-.9,4-3.3,1.7-2.9,1-5.3,1.7-4.7h-4.1l-1.4,2.8-3.2.7,3.2-.7,1.4-2.8-.3-2.9-.6-2.9h0l-2.7-1.1,2.7,1.1.6,2.9.3,2.9h4.1l.7-3.4-1.3-.4-.3-2.7,2.5-2.4,6.9-3.5,4.7-2.1,2.4-2.3,1-2.7-1.2-1.1,1.1-3,.5-6.3-1,.4v-2l-.9-3.7-2.4-4.9.8-4.6,2.3-1.4,4.2-4.6,2.2-1.2,6.6-6.9,6.5-3.1,5.3-2.4,3.7-4,2.4-4.5,1.9-4.6-.8-3.1.2-10-.5-5.7.5-6.4-.9-2.8h0l-2-1.4-2.2-6.4-1.8-4,.4-3.1-.3-1.9,1.7-3.9-.2-1.7-3.5-2.3-.3-3.6,2.8-8h0l2.3-2.1,1.1-4.2,1.9-2.6.8-4.6,2.2-.4,1.4-2.7,4-2.6h0l1.3-1.5,1.3-3.4,6.2-7.8,5.3-4.8,8.4-6.4,5.6-5.2,6.6-8.8,4.7-7.2,4.6-9.4,3.3-8.2,2.4-7.1,1.4-7,1.1-2.3-.2-3.4.4-3.7ZM82.5,186.1h0l.1-2.3-.9-1.7.2-1.9-1.2-2.7-1.6-2.3h0l1.6,2.3,1.2,2.7-.2,1.9.9,1.7Zm7.3,6.7-1.1-1.4.4-2.6-2.4-3.9h0l2.4,3.9-.4,2.6,1.1,1.4Zm45-160.2h0l-6,.93ZM103.4,49.8l5.4-1,4.5-1.7h0l-4.5,1.7-5.4,1-8.9,4.8Zm-13.2,16,3.4-.2-.1-3.4h0l.1,3.4-3.4.2-1.8,1.5h0ZM79.3,67.1h0l-1.9,5h0ZM72.9,80.7l2.7-8.1h0l-2.7,8.1-6.9,6ZM60.6,99.4,63,96.5l2-8.9h0l-2,8.9-2.4,2.9-.7,2.3h0Zm-8.4,56-5-.1,5,.1,1.4-.9h0Zm2.4-.9h0l2.1-1.5h0Zm4.7-2.3L57.7,151l1.6,1.16Zm2.2,2.3h0L64,153l-1.1-1.8h0L64,153ZM70,102.8h0Zm.6-12.6h0l5.2-.5h0Zm6.7,67.6-.5-2.4-2-1.8-1.1-3.7-.2-4,.2,4,1.1,3.7,2,1.8.5,2.4ZM94,73.6l-18-.4h0l18,.4Zm.4,96.1-1.2.6h0l1.2-.6.7.7h0Zm8.8,4.9H98.8l-1.5-1-.8.6-1.7-1.9h0l1.7,1.9.8-.6,1.5,1Zm8.2-1.5-2.4,1-1.3.8-.9-2.7-1.6.7-1-.1h0l1,.1,1.6-.7.9,2.7,1.3-.8,2.4-1Zm.7-37.4-1-.8-2.5-27.7-2.4-27.7,2.4,27.7,2.5,27.7,1,.8Zm2.6-56.3L94.2,63.8h0l.1-1.2.1-.4-.1.4-.1,1.2,20.5,15.6Zm.7-35.5h0l6.4-2.5h0Zm9,108.9-2.4,1.3-2.7-.9h0l2.7.9,2.4-1.3ZM122.1,36.6h0l2.5-.48Zm7.4,111.7-4.3,2.8h0l4.3-2.8Zm18.1-4.7-3.6.3h-3.6l-1.4-1.2-3.1.9-5.3,2.7h0l5.3-2.7,3.1-.9,1.4,1.2H144l3.6-.3Zm11.8-30.3.1,4.1h0l-.1-4.1ZM154,163.1h0l1.9-1.9h0Zm3.3-22.3-7.7.5h0l7.7-.5,5-1Zm6,30-1.1,2.6,1.1-2.6Zm3.1-19.3-1.4,1.3-.8,3.7-1.6,2.6-.4,5.8h0l.4-5.8,1.6-2.6.8-3.7,1.4-1.3,6.1-.8h0Zm16.7,4.1h0l2.7-1.5h0Zm20.6-1.8h0l-1.6.9h0Zm-8.2,3.4h0l3.3-2.7h0Zm10.3,68-8.9-.1,8.9.1Zm14.7,126.4-3.3-2.9-3.6-.2,3.6.2,3.3,2.9ZM326.3,161.1l2.6.4-.6,4.8.9,4.6,2.9,2.5.8,2.2-.1,3.2.8.2h0l-.8-.2.1-3.2-.8-2.2-2.9-2.5-.9-4.6.6-4.8-2.6-.4Zm-3.8,1.8,3.4-.4h0l-3.4.4Zm-.3,80.9,2.6-3.7,3.6-.9,2.4-1.6,3,1.3.2.4h0l1.4,2.5-.4,4.7h0l-2.8,2.9-1.9,2.9,2.3,2.2-3.3,1.6-.7-.8-3.3.4-2.5,1.5-1.6-2.5,1.1-4.5.2-3.9-6.2-.1-2,.8,2.2,3.6-.3,3.8-1.6.8.3,2.5,1.2,1.5v2.1l-1.4,1.3-2.3,3.4-2,2.3-.6.1-.3,2.8,1,.9-.2,2.7,1.1,2.6-1.4,2.4,4.5,4.4.4,3.9,2.7,6.6.3.2h0l-.3-.2h0l.5,1.1-1,.3-1.2-1.3-1.9-.5.3-1.4-.9-.3-7.7,1.1-1.5.8-1.7,4.1h0l1.7-4.1,1.5-.8,7.7-1.1.9.3.3-1.1-1.6-1.7-.7-3.5-3.4-3.5-1.8-4.6,1-2.7-1.5-3.6L307.79,262v0l2,6.1v.3l.6-.1h0l2-2.3,2.3-3.4,1.4-1.3v-2.1l-1.2-1.5-.3-2.5-3.1-.4-1.7,3.7-3.5-.5h0l3.5.5,1.7-3.7,3.1.4,1.6-.8.3-3.8-2.2-3.6,2-.8,6.2.1Zm-18.5,57.6h0l-1.1,7.6-.9,6.4.9-6.4Zm-.8-89.2,1.5-1.1h0l-1.5,1.1Zm4.8,41.7.2-3.8,1.6-1.8.1-4.8,1.3-2.5.3-5.1,1.2-3,2.2-3.3,2.1-1.8,1.9-2.2h0l-1.9,2.2-2.1,1.8-2.2,3.3-1.2,3-.3,5.1-1.3,2.5-.1,4.8-1.6,1.8-.2,3.8-.8.5-.6,3.6.6-3.6Zm-.7-42.4,3.1-1.3h0l-3.1,1.3Zm11.9,3.9-2.3,1.8-.3,7.5.3-7.5h0l2.3-1.8ZM309,175l2.1-1.3,4.8,3.7,2.9-.7h0l-2.9.7-4.8-3.7L309,175Zm-3.4,3.1,2.9-1.3h0l-2.9,1.3Zm-22.3-4.3,4.1-.9,1,1.7,2.9,3.8,1.6.5,2-1.1,4.1.3.8,1.3h0l-.8-1.3-4.1-.3-2,1.1-1.6-.5-2.9-3.8-1-1.7-4.1.9Zm-1,34.5h0l-2.2-1.4h0Zm-3.8-24.6,2-1.2h0l-2,1.2-1.7.7h0ZM229.6,89.4l22.5,12.3L274.7,114h0l1.1,25.5h0L274.7,114h0l-22.6-12.3L229.6,89.4Zm38.8,59.8-1.8,2,.7,2.7-1.4,2.6-.5,2.4,1.9-.4,1.3,2.5.1,3.7,2.1,1.9v1.6h0l-3.6,1.1-2.8,2.6-4,7-5.2,3h0l5.2-3,4-7,2.8-2.6,3.6-1.1v-1.6l-2.1-1.9-.1-3.7-1.3-2.5-1.9.4.5-2.4,1.4-2.6-.7-2.7,1.8-2-1.2-1.5,1.3-3.9L271,139h0l-2.5,4.8-1.3,3.9Zm-3.1,173.3-.8,20.5.8-20.5,11.7.1Zm6.4,29.7h0l-6.93,1.73Zm-13.8-65.6h0l6.8-.1v0Zm3.4,68.2-13.5-.9-3.8-3h0l3.8,3ZM260.4,212l-3.6-2.4-4.7-2.2h0l4.7,2.2,3.6,2.4Zm4.4,78.6h0l.7,1.53Zm.6,10.3,1.8,2.4h0l-1.8-2.4ZM221.8,175.4l2.6.6,1.6-.4h0l-1.6.4-2.6-.6ZM208.3,89l8.8,2.8,3.2,3.5h0l-3.2-3.5L208.3,89Zm3.6,136.6-3.4-.8h0l3.4.8Zm-.8-69.6h0l4.3-3.6h0Zm4.3,114.4-2.1-2.2h0l2.1,2.2Zm1.8-39.1h0l-1.6-3.3.4-2.8h0l-.7-.4h0l.7.4,7.1.2h0l-7.1-.2-.4,2.8Zm4,24.3,1.7-3,.7-4.3-.6-5-2.7-3.8,2.5-7.5-1.4-1.2h0l1.4,1.2-2.5,7.5,2.7,3.8.6,5-.7,4.3-1.7,3Zm1.1,14.9-.3-1.8h0l.3,1.8,2.1,1.1Zm13.3-51.3-3,6-.4,3.4h0l.4-3.4-.6-1.9-.3-2.9-2.6-2.1L227,215l-.5-2.3-2.7-3.4.5-1.9-.6-2.7.4-5,1.4-1.1,2.8-6.5h0l4.6-.5,1-1.7h0l-1,1.7-4.6.5-2.8,6.5-1.4,1.1-.4,5,.6,2.7-.5,1.9,2.7,3.4.5,2.3,2.1,3.3,2.6,2.1.3,2.9.6,1.9,3-6,3.3-3.4h0Zm.7-27.7h0l7.1-2.4,2.4-2.5,2.9-2.3-.6-2.2,1.6-.6h0l-1.6.6.6,2.2-2.9,2.3-2.4,2.5Zm4.3,100h0l3.8-.5,1.8-.9,3.1.9.9-1.6,1.5-3.7,3.5-.3.3-1.1h0l-.3,1.1-3.5.3-1.5,3.7-.9,1.6-3.1-.9-1.8.9Zm27,111.9-1.5,3.1-2.7,1.9-2.8,2.9-4,.7,4-.7,2.8-2.9,2.7-1.9,1.5-3.1,2.8-1.4h0Zm9.6-48.8-3.7,2.5-2-2.7-8.7,2.3-4.2.2-.8,22.9-5.5.2-.6,18.7h0l-1.1,23.7-5,3.3-2.9.5h0l2.9-.5,5-3.3,1.1-23.7.6-18.7,5.5-.2.8-22.9,4.2-.2,8.7-2.3,2,2.7,3.7-2.5h1.7l3.2-1.5h0l1,.5h0l-1-.5-3.2,1.5Zm6.7,46.8-.6,2-3.6,1.4h0l3.6-1.4.6-2,1.2-3.1h0Zm1.2-88.9-3.5-.6-2.7.1-.3-2-1.9-.1-2.6-.4-3.5,1-2.4-.2-1.4.6h0l1.4-.6,2.4.2,3.5-1,2.6.4,1.9.1.3,2,2.7-.1,3.5.6,1.9,2.9,4.4.9,3.5-2,1.2,3.3,4.3.9,2,2.8,2.2,3.5h0l-2.2-3.5-2-2.8-4.3-.9-1.2-3.3-3.5,2-4.4-.9Zm14.8,118.2-1.1,2.1-3.1,1-1.1,2h0l-2,.7h0l2-.7h0l1.1-2,3.1-1,1.1-2.1,1.9-3.1-1.7-2-2.2-2h0l2.2,2,1.7,2Zm-2.8-44.4-5.2,4.8-2,4.3-1.8,2.4h0l1.8-2.4,2-4.3,5.2-4.8,8.1-4.7h0Zm13-3.6h0l1.9-.8h0Zm15.3-27.5-1.3,4.4-.4,4.8.8,1.9-.9,3.8-.8.6-1.7,4.6-6.2,7.3h0l6.2-7.3,1.7-4.6.8-.6.9-3.8-.8-1.9.4-4.8,1.3-4.4.4-8.2-2.8-2-2.7-.5-1.1-1.6-2.6-1.3h0l2.6,1.3,1.1,1.6,2.7.5,2.8,2Zm12.6-7.6-3.5-4-.2-4.5,1.3-3-.2-2.6-2.2-1.6-1.5.6-3.2-3.1-17.2,5.3.4,4.6.2,2.4h0l-.2-2.4-4.3.9-3.3,2.5-.8,2.2-2,.6-5.1,5.2-3.2,4.2-1.9.1,1.9-.1,3.2-4.2,5.1-5.2,2-.6.8-2.2,3.3-2.5,4.3-.9-.4-4.6,17.2-5.3-2.9-1.6,2-6,1.8-2.2-.9-5.4,1.3-5.2,1-1.7-1.3-5.4-2.6-2.9-3.2-1.9,3.2,1.9h0l2.6,2.9,1.3,5.4-1,1.7-1.3,5.2.9,5.4-1.8,2.2-2,6,2.9,1.6,3.2,3.1,1.5-.6,2.2,1.6.2,2.6-1.3,3,.2,4.5,3.5,4Zm1.8-15.4-1.9-2.5-1,1.6-.9-1.4.1-2.4-1.2-1.9.2-2.8-1.6-4.7,1.8-3.6-.2-7.7-1.8-4.1.1-.8h0l.4-1.2,2.9,3.4.3,6.8,1.8,2.4-.1.1h0l-1.5,6.1.6,7.3h0l.1.9,1.1.3,1,3.4Zm-1.9-112.1-.7-3.2-2.7-4.5h0l-3.5,3h-4l-4.5,1.5h0l4.5-1.5h4l3.5-3,3.4-3.8,3.8-4.2h0l-3.8,4.2-3.4,3.8,2.7,4.5.7,3.2,2.6,7.4Zm9.7,94.9-6.7-1.8h0l6.7,1.8Zm10.6-168.4-3.6-2.9h0l3.6,2.9Zm14.6,65.8-5.2,2.7-1.6,2.7h0l1.6-2.7,5.2-2.7Zm4.5-43.6-.2-2-.5-1.8h0l.5,1.8.2,2,3.2.1Zm1.7,45.8,1.5-2.1h0Zm5.1-2.2h0l5-4.5Zm12.3-4.8h0L412,188.3l-4.8.1-18.7-7.6-2.2-2.3-2.2-3.1-2.2-3.6,1.2-2.2,1.9-3.5h0l-1.9,3.5-1.2,2.2,2.2,3.6,2.2,3.1,2.2,2.3,18.7,7.6,4.8-.1Z"/><polygon class="cls-1" points="388.7 319.2 388.8 319 388.1 318.5 387.6 318.4 387.6 318.7 387.8 319.1 388.7 319.2"/><polygon class="cls-1" points="391.8 318.4 391.9 318.6 392.3 318.9 392.5 319.2 392.6 319 392.6 318.3 392.4 317.3 392.3 317.2 392 317.3 392 317.5 391.8 317.9 391.5 318 391 317.8 390.9 317.9 391.5 318.3 391.8 318.4"/><polygon class="cls-1" points="385.5 314.7 385.4 315 385.6 315.6 385.9 315.8 386.2 315.9 386.7 316.3 386.9 316 386.7 315.4 386.6 314.9 386.4 314.5 386.3 314.2 386.5 313 386.3 312.7 385.8 312.8 385.6 313.2 385.7 313.3 385.5 314.5 385.5 314.7"/><polygon class="cls-1" points="2.9 144.2 2.9 144.5 3.1 144.7 3.3 144.4 3.2 144.1 2.9 144.2"/><polygon class="cls-1" points="4.9 143.2 4.4 143.5 4.2 143.9 4.3 144.2 4.6 144.5 5 144.6 5.2 144.5 5.4 144.3 5.5 143.9 5.3 143.2 4.9 143.2"/><polygon class="cls-1" points="9.9 142.7 9.7 142.4 9.5 142.4 9.1 141.9 8.9 141.7 8.9 141.5 8.7 141.4 8.4 141.4 8.6 141.9 8.4 142.3 8.4 142.6 8.3 142.8 8.4 143.2 8.6 143.3 8.6 143.5 8.9 143.8 9.2 143.9 9.7 144 10 143.9 10.3 143.4 10.1 143.2 9.9 142.7"/><polygon class="cls-1" points="11.8 141.4 11.4 141.7 11.5 141.9 11.3 142.3 11.7 142.7 12.1 142.5 12.2 142.1 12.1 141.5 11.8 141.4"/><polygon class="cls-1" points="14.1 135.5 13.8 135.7 13.5 135.5 13.4 135.6 13.4 136.2 13.2 136.4 13.2 136.9 13.7 137.1 14 137.1 14.3 136.9 14.7 136.6 14.7 135.9 14.6 135.7 14.1 135.5"/><polygon class="cls-1" points="6.9 133 6.5 133 6.2 132.8 5.8 132.9 5.4 132.6 5.1 132.7 5.2 133.1 5.3 133.2 5.6 133.8 5.9 133.2 6.1 133.1 6.8 133.4 7.3 133.4 7.2 133.2 6.9 133"/><polygon class="cls-1" points="13.2 132.4 13.4 132.7 13.4 133.2 13.6 133.1 13.7 132.5 13.6 132.4 13.6 132.3 13.7 131.7 13.5 131.5 13.1 131.8 13.2 132.1 13.2 132.4"/><polygon class="cls-1" points="2.3 131.1 1.8 131.2 1.4 131.6 1.6 131.8 1.9 132 2.6 131.7 2.5 131.4 2.3 131.1"/><polygon class="cls-1" points="2.1 129.9 1.8 129.6 1.8 129.4 1.5 129.3 1.3 129.3 0.6 129.7 0.4 129.9 0.2 129.9 0 130.1 0 130.3 0.2 130.5 0.2 131 0.2 131.1 0.9 131 1.3 130.6 1.9 130.3 2.1 129.9"/><polygon class="cls-1" points="463.6 369.6 463.2 368.7 463 368.1 462.6 368 462.2 368.3 462 368.8 461.9 369 461.4 369.4 461.2 369.8 461.1 370.5 461 370.9 460.8 371.1 461.1 371.4 461.2 371.3 461.8 371.4 462.3 371.4 462.8 371.2 463.1 370.9 463 370.6 463.4 370.2 463.6 369.6"/><polygon class="cls-1" points="179.9 237.2 179.5 237.1 179.2 237.4 178.9 237.5 178.5 238 178.5 238.3 178.7 239.1 178.8 239.5 179 239.5 179.2 239.2 179.4 239.2 179.6 239 179.9 238.6 180.1 238.3 180.2 237.9 180.1 237.6 179.9 237.2"/><polygon class="cls-1" points="183.6 229 183.6 229.3 183.4 229.4 183.4 229.7 183.7 229.8 183.9 229.7 184 229.4 184.1 228.9 183.8 228.8 183.6 229"/><polygon class="cls-1" points="402.9 300.2 402.9 300.4 403.3 300.4 403.7 300.2 404.2 300.2 404.5 300 404.4 299.8 404.2 299.8 403.8 300.1 403.4 300.2 402.9 300.2"/><polygon class="cls-1" points="404 299.7 403.4 299.6 403.4 299.8 403.8 299.8 404 299.7"/><polygon class="cls-1" points="43.2 62.3 43.6 61.8 43.9 61.3 43.8 61 43.6 60.9 43.3 61.1 42.9 61.5 42.5 61.4 42.3 61.7 42.5 61.9 42.9 61.9 43.2 62.3"/><polygon class="cls-1" points="55.9 61.5 56.5 61.7 56.7 61.5 57.2 61.3 57.6 60.9 57.5 60.6 57.7 59.9 57.5 59.5 57.5 59 57.2 59.1 56.9 59 56.5 59 55.9 58.9 55.9 59.1 55.8 59.6 55.2 60 55.2 60.6 55.4 61 55.9 61.5"/><polygon class="cls-1" points="47.4 59.8 47.6 59.8 47.8 59.8 48.3 59.3 48.2 59 47.7 58.6 47.4 58.6 47.1 58.6 47 58.9 46.9 59.3 47.1 59.6 47.4 59.8"/><polygon class="cls-1" points="49.7 58.6 49.9 58.9 50 59.1 50.3 59.5 50.4 59.9 50.5 60 51.1 59.8 51.3 59.8 51.4 59.6 51.9 59 52 58.6 52.4 57.9 52.4 57.5 52.7 57.3 53.1 56.8 53.7 56.5 53.7 56.3 53.6 56.2 53.3 56.3 52.7 56.3 52.1 56.6 52.1 56.8 51.6 57.2 51.1 57.4 50.7 57.4 50.1 57.6 49.8 57.4 49.3 57.7 49.7 58.3 49.7 58.6"/><polygon class="cls-1" points="63.2 59.6 63.6 59.5 63.9 59.1 64.1 58.9 64.8 58.6 65.4 58.5 65.7 58.2 66 57.5 66.1 57.4 66.1 56.9 66.2 56.4 66.3 55.9 66.2 55.4 65.9 55.1 65.5 55.2 65.3 55.4 65.1 56.2 64.8 56.8 64.5 57.2 64.3 57.7 64.2 58 64.1 58.5 63.8 58.8 63.4 59.1 62.8 59.3 62.5 59.3 62.5 59.5 62.9 59.5 63.2 59.6"/><polygon class="cls-1" points="43.7 55.6 44.1 56.5 44.2 56.9 44.3 57 44.9 56 44.8 55.6 45 55.3 44.8 54.8 44.6 54.5 44.3 54.6 44 54.5 43.7 54.7 43.5 55.1 43.6 55.3 43.7 55.6"/><polygon class="cls-1" points="67 54.1 67.5 54 68.2 53.5 68.4 53 68.4 52.6 68.6 52.2 68.4 52 68.2 52.1 68 52.6 67.9 52.7 67.4 52.7 67.1 53 66.8 53 66.5 53.2 66.3 53.5 66.3 53.9 66.1 54.3 66.1 54.4 66.6 54.6 67 54.1"/><polygon class="cls-1" points="396.4 321.5 395.9 321.3 395.7 321 395.4 321.3 395.5 321.5 395.6 321.6 395.8 322.3 395.6 322.5 395.6 322.8 395.8 323.1 396.1 323 396 322.8 396.3 322.2 396.2 322 396.4 321.8 396.4 321.5"/><polygon class="cls-1" points="452 375.2 451.7 375 451.6 374.5 451.6 374.2 451.3 373.9 450.9 373.7 450.5 373.7 450.5 373.7 450 373.7 449.5 373.9 449.4 373.9 449.2 374.3 449 374.5 448.9 374.9 449.2 375.5 449.2 375.8 449.5 376.3 450.3 376.7 450.5 376.9 451.4 376.9 451.8 376.8 452 376.6 452.1 376.2 452.3 375.6 452.2 375.4 452 375.2"/></g></g></g></svg>