<svg xmlns="http://www.w3.org/2000/svg" xmlns:xlink="http://www.w3.org/1999/xlink" viewBox="0 0 700.4 558.1"><defs><style>.cls-1{fill:url(#Naamloos_verloop_20);}.cls-2{fill:url(#Naamloos_verloop_20-2);}.cls-3{fill:url(#Naamloos_verloop_20-3);}.cls-4{fill:url(#Naamloos_verloop_20-4);}.cls-5{fill:url(#Naamloos_verloop_20-5);}.cls-6{fill:url(#Naamloos_verloop_20-6);}.cls-7{fill:url(#Naamloos_verloop_20-7);}.cls-8{fill:url(#Naamloos_verloop_20-8);}.cls-9{fill:url(#Naamloos_verloop_20-9);}.cls-10{fill:url(#Naamloos_verloop_20-10);}.cls-11{fill:url(#Naamloos_verloop_20-11);}.cls-12{fill:url(#Naamloos_verloop_20-12);}.cls-13{fill:url(#Naamloos_verloop_20-13);}.cls-14{fill:url(#Naamloos_verloop_20-14);}.cls-15{fill:url(#Naamloos_verloop_20-15);}.cls-16{fill:url(#Naamloos_verloop_20-16);}.cls-17{fill:url(#Naamloos_verloop_20-17);}.cls-18{fill:url(#Naamloos_verloop_20-18);}.cls-19{fill:url(#Naamloos_verloop_20-19);}.cls-20{fill:url(#Naamloos_verloop_20-20);}.cls-21{fill:url(#Naamloos_verloop_20-21);}.cls-22{fill:url(#Naamloos_verloop_20-22);}.cls-23{fill:url(#Naamloos_verloop_20-23);}.cls-24{fill:url(#Naamloos_verloop_20-24);}.cls-25{fill:url(#Naamloos_verloop_20-25);}.cls-26{fill:url(#Naamloos_verloop_20-26);}.cls-27{fill:url(#Naamloos_verloop_20-27);}.cls-28{fill:url(#Naamloos_verloop_20-28);}.cls-29{fill:url(#Naamloos_verloop_20-29);}.cls-30{fill:url(#Naamloos_verloop_20-30);}.cls-31{fill:url(#Naamloos_verloop_20-31);}.cls-32{fill:url(#Naamloos_verloop_20-32);}.cls-33{fill:url(#Naamloos_verloop_20-33);}.cls-34{fill:url(#Naamloos_verloop_20-34);}.cls-35{fill:url(#Naamloos_verloop_20-35);}.cls-36{fill:url(#Naamloos_verloop_20-36);}.cls-37{fill:url(#Naamloos_verloop_20-37);}.cls-38{fill:url(#Naamloos_verloop_20-38);}.cls-39{fill:url(#Naamloos_verloop_20-39);}.cls-40{fill:url(#Naamloos_verloop_20-40);}.cls-41{fill:url(#Naamloos_verloop_20-41);}.cls-42{fill:url(#Naamloos_verloop_20-42);}.cls-43{fill:url(#Naamloos_verloop_20-43);}.cls-44{fill:url(#Naamloos_verloop_20-44);}.cls-45{fill:url(#Naamloos_verloop_20-45);}.cls-46{fill:url(#Naamloos_verloop_20-46);}.cls-47{fill:url(#Naamloos_verloop_20-47);}</style><linearGradient id="Naamloos_verloop_20" x1="695.9" y1="405.3" x2="697.4" y2="405.3" gradientUnits="userSpaceOnUse"><stop offset="0" stop-color="#3174ec"/><stop offset="1" stop-color="#4181f3"/></linearGradient><linearGradient id="Naamloos_verloop_20-2" x1="698" y1="400.75" x2="698.7" y2="400.75" xlink:href="#Naamloos_verloop_20"/><linearGradient id="Naamloos_verloop_20-3" x1="699.4" y1="395.35" x2="700" y2="395.35" xlink:href="#Naamloos_verloop_20"/><linearGradient id="Naamloos_verloop_20-4" x1="699.9" y1="394.15" x2="700.4" y2="394.15" xlink:href="#Naamloos_verloop_20"/><linearGradient id="Naamloos_verloop_20-5" x1="698.1" y1="386.6" x2="698.5" y2="386.6" xlink:href="#Naamloos_verloop_20"/><linearGradient id="Naamloos_verloop_20-6" x1="696.5" y1="375.3" x2="697" y2="375.3" xlink:href="#Naamloos_verloop_20"/><linearGradient id="Naamloos_verloop_20-7" x1="695" y1="371.15" x2="695.4" y2="371.15" xlink:href="#Naamloos_verloop_20"/><linearGradient id="Naamloos_verloop_20-8" x1="487.9" y1="368.7" x2="500.8" y2="368.7" xlink:href="#Naamloos_verloop_20"/><linearGradient id="Naamloos_verloop_20-9" x1="553.9" y1="554.6" x2="563.9" y2="554.6" xlink:href="#Naamloos_verloop_20"/><linearGradient id="Naamloos_verloop_20-10" x1="541.6" y1="546.65" x2="555.3" y2="546.65" xlink:href="#Naamloos_verloop_20"/><linearGradient id="Naamloos_verloop_20-11" x1="559.7" y1="546.3" x2="576.9" y2="546.3" xlink:href="#Naamloos_verloop_20"/><linearGradient id="Naamloos_verloop_20-12" x1="478.3" y1="538.65" x2="536.1" y2="538.65" xlink:href="#Naamloos_verloop_20"/><linearGradient id="Naamloos_verloop_20-13" x1="641.2" y1="531.25" x2="644.8" y2="531.25" xlink:href="#Naamloos_verloop_20"/><linearGradient id="Naamloos_verloop_20-14" x1="596.2" y1="513.85" x2="603.2" y2="513.85" xlink:href="#Naamloos_verloop_20"/><linearGradient id="Naamloos_verloop_20-15" x1="606.9" y1="513" x2="623.4" y2="513" xlink:href="#Naamloos_verloop_20"/><linearGradient id="Naamloos_verloop_20-16" x1="622.3" y1="522.1" x2="681.4" y2="522.1" xlink:href="#Naamloos_verloop_20"/><linearGradient id="Naamloos_verloop_20-17" x1="555.3" y1="504.55" x2="592.3" y2="504.55" xlink:href="#Naamloos_verloop_20"/><linearGradient id="Naamloos_verloop_20-18" x1="604.6" y1="487.55" x2="611.9" y2="487.55" xlink:href="#Naamloos_verloop_20"/><linearGradient id="Naamloos_verloop_20-19" x1="500" y1="482.55" x2="556.9" y2="482.55" xlink:href="#Naamloos_verloop_20"/><linearGradient id="Naamloos_verloop_20-20" x1="421.7" y1="492.85" x2="483.5" y2="492.85" xlink:href="#Naamloos_verloop_20"/><linearGradient id="Naamloos_verloop_20-21" x1="594.1" y1="276.3" x2="606" y2="276.3" xlink:href="#Naamloos_verloop_20"/><linearGradient id="Naamloos_verloop_20-22" x1="578.6" y1="259.25" x2="632.1" y2="259.25" xlink:href="#Naamloos_verloop_20"/><linearGradient id="Naamloos_verloop_20-23" x1="601.3" y1="212.3" x2="629.4" y2="212.3" xlink:href="#Naamloos_verloop_20"/><linearGradient id="Naamloos_verloop_20-24" x1="332.7" y1="440.95" x2="344.7" y2="440.95" xlink:href="#Naamloos_verloop_20"/><linearGradient id="Naamloos_verloop_20-25" x1="0" y1="249.75" x2="675.9" y2="249.75" xlink:href="#Naamloos_verloop_20"/><linearGradient id="Naamloos_verloop_20-26" x1="571.8" y1="442.4" x2="597.9" y2="442.4" xlink:href="#Naamloos_verloop_20"/><linearGradient id="Naamloos_verloop_20-27" x1="573.1" y1="426.6" x2="581.8" y2="426.6" xlink:href="#Naamloos_verloop_20"/><linearGradient id="Naamloos_verloop_20-28" x1="544.4" y1="428.25" x2="557.5" y2="428.25" xlink:href="#Naamloos_verloop_20"/><linearGradient id="Naamloos_verloop_20-29" x1="569" y1="419.95" x2="576.3" y2="419.95" xlink:href="#Naamloos_verloop_20"/><linearGradient id="Naamloos_verloop_20-30" x1="581.9" y1="418.8" x2="591.5" y2="418.8" xlink:href="#Naamloos_verloop_20"/><linearGradient id="Naamloos_verloop_20-31" x1="559" y1="409.25" x2="566.1" y2="409.25" xlink:href="#Naamloos_verloop_20"/><linearGradient id="Naamloos_verloop_20-32" x1="553.9" y1="391.95" x2="581.1" y2="391.95" xlink:href="#Naamloos_verloop_20"/><linearGradient id="Naamloos_verloop_20-33" x1="578.9" y1="551.4" x2="601.8" y2="551.4" xlink:href="#Naamloos_verloop_20"/><linearGradient id="Naamloos_verloop_20-34" x1="546.9" y1="339.9" x2="555.1" y2="339.9" xlink:href="#Naamloos_verloop_20"/><linearGradient id="Naamloos_verloop_20-35" x1="559.9" y1="171.05" x2="606.5" y2="171.05" xlink:href="#Naamloos_verloop_20"/><linearGradient id="Naamloos_verloop_20-36" x1="38.7" y1="3.25" x2="61.6" y2="3.25" xlink:href="#Naamloos_verloop_20"/><linearGradient id="Naamloos_verloop_20-37" x1="642.7" y1="443.5" x2="643.6" y2="443.5" xlink:href="#Naamloos_verloop_20"/><linearGradient id="Naamloos_verloop_20-38" x1="428.5" y1="36.4" x2="444.3" y2="36.4" xlink:href="#Naamloos_verloop_20"/><linearGradient id="Naamloos_verloop_20-39" x1="436.8" y1="28.5" x2="456.9" y2="28.5" xlink:href="#Naamloos_verloop_20"/><linearGradient id="Naamloos_verloop_20-40" x1="399.7" y1="27.1" x2="434.5" y2="27.1" xlink:href="#Naamloos_verloop_20"/><linearGradient id="Naamloos_verloop_20-41" x1="71.4" y1="274.2" x2="78.6" y2="274.2" xlink:href="#Naamloos_verloop_20"/><linearGradient id="Naamloos_verloop_20-42" x1="190.8" y1="324.35" x2="192.9" y2="324.35" xlink:href="#Naamloos_verloop_20"/><linearGradient id="Naamloos_verloop_20-43" x1="86.8" y1="35.45" x2="139" y2="35.45" xlink:href="#Naamloos_verloop_20"/><linearGradient id="Naamloos_verloop_20-44" x1="243.6" y1="11.4" x2="263" y2="11.4" xlink:href="#Naamloos_verloop_20"/><linearGradient id="Naamloos_verloop_20-45" x1="201.6" y1="5.4" x2="241" y2="5.4" xlink:href="#Naamloos_verloop_20"/><linearGradient id="Naamloos_verloop_20-46" x1="159.9" y1="324.55" x2="160.9" y2="324.55" xlink:href="#Naamloos_verloop_20"/><linearGradient id="Naamloos_verloop_20-47" x1="196" y1="521.5" x2="196.7" y2="521.5" xlink:href="#Naamloos_verloop_20"/></defs><g id="Laag_2" data-name="Laag 2"><g id="Laag_1-2" data-name="Laag 1"><g id="Laag_2-2" data-name="Laag 2"><g id="World-map"><g id="Asia"><polygon class="cls-1" points="696.9 404 696.7 404.1 696.6 404.6 696.5 404.8 695.9 405.3 695.9 405.8 696 406.3 696.2 406.6 696.5 406.6 696.6 406.3 696.6 405.7 696.7 405.3 697.2 404.8 697.4 404.3 697 404.2 696.9 404"/><polygon class="cls-2" points="698 400.7 698.1 400.9 698.3 401 698.4 400.9 698.7 400.7 698.5 400.5 698 400.7"/><polygon class="cls-3" points="699.8 394.9 699.5 394.9 699.4 395.2 699.7 395.8 699.9 395.8 700 395.4 699.8 395.2 699.8 394.9"/><polygon class="cls-4" points="700.3 394.1 700.4 393.6 700 393.8 699.9 394 699.9 394.7 700.3 394.7 700.2 394.4 700.4 394.2 700.3 394.1"/><polygon class="cls-5" points="698.5 386.7 698.5 386.5 698.1 386.5 698.2 386.7 698.5 386.7"/><polygon class="cls-6" points="697 375.2 696.8 374.9 696.5 375 696.5 375.5 696.6 375.7 697 375.2"/><polygon class="cls-7" points="695 371 695 371.3 695.4 371.4 695.4 371.1 695.2 370.9 695 371"/><polygon class="cls-8" points="490.1 364.4 487.9 367.3 488.9 372.8 493.8 374.8 498.1 371.7 498.8 368 500.8 365.2 499.2 362.7 495.9 362.6 490.1 364.4"/><polygon class="cls-9" points="559.3 551.7 553.9 553 561 557.5 563.4 557.4 563.9 555.6 562.1 553.7 559.3 551.7"/><polygon class="cls-10" points="554.1 544.8 550.5 545.3 548.6 543.6 547 545.9 543.8 545.9 541.6 549.6 544.7 549.7 548.6 548.8 555.3 547.5 554.1 544.8"/><polygon class="cls-11" points="567.9 546.4 564.5 544.5 559.9 545.8 559.7 548.2 567.2 549 575.8 547.2 576.9 543.6 571.7 545.9 567.9 546.4"/><polygon class="cls-12" points="521 540.4 519.2 536.2 508.9 533.1 507.5 535.8 496.7 535.1 496.1 532.9 493.7 532.4 489.3 529.9 482.5 529.5 478.3 535.6 483.4 536.1 484.2 538.8 494.4 541.5 496.8 540.7 500.9 541.3 507.3 543.8 512.5 544.9 518.3 545.4 523.4 545.2 529.5 547.8 536.1 545.4 529.4 541.6 521 540.4"/><polygon class="cls-13" points="642.3 528.8 641.2 531.1 641.4 535.9 644.6 531.5 644.8 528.5 643.6 526.6 642.3 528.8"/><polygon class="cls-14" points="596.2 512 597.2 514.8 601 516 603.2 513.8 601.9 511.7 596.2 512"/><polygon class="cls-15" points="615.4 509.6 608.4 509.9 606.9 513.4 610.8 513.6 614.1 513.2 618.8 513.7 623.4 516.4 621.6 511.5 615.4 509.6"/><polygon class="cls-16" points="671.2 504.8 666.4 502.6 661.4 502.6 654.8 506.4 649.8 513.2 644.1 509.4 642.8 499 641.9 496.6 632.8 494 629.9 496.1 622.3 497.6 624.6 500.8 629.6 502 631.8 505.8 640.1 505.8 640.5 507.5 636.5 507.4 630.3 509.7 634.5 512.9 634.4 515.7 635.5 518 637.7 517.5 639.5 514.3 647.8 520.3 652.4 520.8 663.1 526.3 665.4 531.6 666.4 538.6 662.7 540.4 659.9 545.6 667.1 545.4 668.6 543.6 674.2 544.9 678.8 550.2 680.4 529.2 681.4 508.3 675.3 507.1 671.2 504.8"/><polygon class="cls-17" points="568.6 489.2 578.1 488.9 583.5 490.1 587.8 488.9 592.3 482.5 591.3 481.1 585.7 485.7 579.2 486 572.1 485.1 567.6 483.2 562.8 488 561.7 490.6 558.7 500.3 557.8 505.4 555.3 509.6 556.9 514 559.3 514.1 559.9 520.3 558 526.2 560.3 528 564 527.1 564.2 517.9 564 510.4 567.9 508.5 567.2 514.7 571.1 518.5 570.3 521 571.6 522.8 577.3 520.3 574.3 525.5 576.4 527.8 579.5 525.9 579.8 521.7 575 514.3 576.1 512.1 571 503.9 576.1 501.4 578.6 497.6 581.1 498.5 581.6 495.6 571 497.8 567.9 500.7 562.9 495 563.7 490.1 568.6 489.2"/><polygon class="cls-18" points="610.1 496.6 607.8 493.2 608.7 489.3 611.6 490 611.9 484.4 611.3 481.7 607.9 481.2 607.4 477.7 605.6 480 604.6 485.1 606.3 493.3 608.5 497.4 610.1 496.6"/><polygon class="cls-19" points="543.1 501.2 548.6 496.8 548.4 491 550.2 486.6 556.9 485.8 550.5 479.9 551.4 476.9 547 470.9 550 465.1 554 462.9 552.9 459.7 556.7 459.4 556.9 456.9 552.1 455 548.3 453.2 547.9 450.4 544.8 447.1 542.5 447.2 539.9 452.2 535.8 456.6 535.7 459.8 535.6 463.9 535.7 459.8 535.8 456.6 531.2 460.2 529 462.6 526.4 466.6 522.6 471.7 515.8 473.1 513.4 474.3 512.4 479.7 508.1 480.9 503.9 478.7 500.6 483 500 489 500.8 494.6 503.5 500.1 506.3 501.9 506.9 510.5 511.5 511.2 515.3 510.8 517.2 514 524 511.6 526.8 513.7 530.8 514.1 532.9 518 539.5 515.1 540.2 517.4 542.7 507.6 543.1 501.2"/><polygon class="cls-20" points="481.8 519.3 483.5 511.3 480.9 507.2 476.8 506.6 474.9 503.1 474 498.6 472 498.4 468.7 496.2 471 491 466.7 488 463.3 482.6 458.5 478.2 452.7 478.1 447.2 471.2 444 468.6 439.4 464.2 434.2 457.9 425.3 456.7 421.7 456.4 422.3 459.7 428.5 466.8 432.9 470.4 436 475.9 441.2 479.9 443.4 484.9 445.1 490.4 450 495.8 454.2 504.8 456.9 509.6 461 514.8 463.3 518.7 470.4 524 474.9 529.3 481.1 529.2 481.8 519.3"/><polygon class="cls-21" points="604.7 278.5 606 274.6 604.4 272.4 599.8 271 598.8 273.7 595.4 272.9 594.1 276.8 595.3 279.8 599.6 281.6 599.5 277.9 601.6 276.4 604.7 278.5"/><polygon class="cls-22" points="612.5 276.8 616.9 269.4 626.1 269 631.5 266 632.1 261.5 629.6 258.3 629 253.2 625.4 246.6 626.7 240.1 623.9 235 615.7 226.1 610.9 227.3 611.1 231.3 616.2 238.5 617.2 246.3 615.5 248.8 611 255.2 605.9 252.1 605.9 263.5 599.6 262.2 589.9 264.1 587.9 268.5 584 271.8 582.9 275.9 578.6 277.9 582.6 282.3 586.7 284.1 587.6 289.9 591.2 292.4 593.7 289.7 592.9 278.8 585.5 274.1 591.7 273.9 596.8 270.9 605.4 269.5 607.8 274.3 612.5 276.8"/><polygon class="cls-23" points="623 215.9 629.4 214.2 623.4 207.1 621.6 209.7 617.1 208.4 611.8 206.3 601.3 199.7 603.1 204.6 607.5 213.4 602.3 213.7 602.9 218.6 607.6 224.9 613.3 224.8 611.7 217.9 622.6 222.2 623 215.9"/><polygon class="cls-24" points="338.8 432.1 334.7 428.6 332.7 439 334.1 448.2 337 453.3 341.8 451.8 341.8 451.8 344.1 450 344.7 443.3 341.6 436.6 338.8 432.1"/><path class="cls-25" d="M426.1,382.9l3.1,5.4,2,8.1,2.7,7.6,2.6,3.4.2,7,2.2,3.8-1.3,4.9.9,4.8h0l-1.2,6.1-.4,4,1.3,3.6.7-3.8,2.9,3.1,3.2,3.6,1.2,3.2,2.3,2.4.9-1.1h0l-.9,1.1,1.4,2.7-.4,4.7,2.2,3.5,1,5.3,3.4,4.3.8,3.3,6.8,5.1,5.5,4.8,4-.5v-2.1l-2.3-5.7-2.1-1.8-.5-3.8-.6-2.2.5-2.9-.6-4.3-2.5-4.3-3.5-3.9-1.4-.6-1.7,2.6h0l1.7-2.6-3.1-3.4-3.4-.7-3.4-3.7-1.3-5.5-2.7-5.9-3.7-.2-.7-4.6,1.4-5.7,2.2-9.4-.2-7.1h4.9l-.3,5.1,4.8-.2,5.3,3-2.1-7.8,3.1-5.3,7.1-1.2-7.1,1.2-3.1,5.3,2.1,7.8,3.5,6.6,2.6,3.4,4.8.9,4.4,3.6-1.2,4.4,2.3,4.1,6.6-6,4.2-5.3,6.1-4.2,4.3-4.2-.4-11.3-4-11.9-4.1-5.1-5.7-4-6.5-8.4-5.3-6.7.6-4.5,3.7-6.1,6.5-5.4h0l-5.9-1.7-3.1-2.6.3-3.7-5.3-1.2-3.1-2.4h0l3.1,2.4,5.3,1.2-.3,3.7,3.1,2.6,5.9,1.7,2.4-1.1,7.8,2.1-.9,2.4,2.2,4.7,3.1-.4.7-6.8,5.8-.9,7.2-3.3,2.5-3.1,2.3,2,2.9-2.8,6.1-.7,6.6-5.5,6.4-5.9,3.4-7.6,2.3-8.5,2.1-6.9,2.8-.6-.1-5.1-.8-5.2-3.9-2-2.4-3.4,2.8-1.8-1.6-4.8-5.5-4.9-5.5-5.9-4.6-6.3-7.1-3.5.9-4.5,3.8-3.2,1-3.5,6.7-1.8-2.3-3.3L526,251l-5.9-2.5-3.8,4.6-5.1-1.9-1.4-2.8-4.8-1.1-4.8-4.3,1.3-3,5-.3,1.3-4.1,3.6-4.5,3.4-2.2,4.5,3.3-2,4.3,2.3,2.5-1.3,3,4.8-1.8,2.4-3,6.3-1.8,3.4,1.7,3.4.7.9,1,.4,3.5,1,1.1-.9.8-.1,2.8,1.9,1,1.7.6.7,1.2,1.3-.5.1-1.2,3.2,1.2h0l6.1,5.5-3.4,1.1,5.3,6.6,1.1,4.8,2.1,3.5,4.6-.5,3.1-2.7,4.3-1.2.5-3.5-3.4-7.4-3.3-4.2-8.3-7.5-4.4-2.8-2.6-1.1.3-.7-1.3-2.7,1.4-1.7,2.9-1.1.9-1.9.3-1.1,1.9-1.4-2.8-4.6.3-2.1,1-2.2,2.2.4h0l-.5-2.1,4.1-4.7,5.2,3.1,3.1-.1,4.6-3.7.9-3.7,2.1-7.3,2-7.4-1.3-4.3,1-9.1-5.3-9.9-5.5-7.4-1.4-6.2-4.7-5.2-12.8-6.7-5.6-.4-.4,3-5.8-1.3-5.7-3.8-8.2-.8,5-14.2,3.5-11.7,13.2-1.7,15.1,1,2.5-2.9,8,.9,4.3,4.3,6.4-.6,8.5-1.6-7.7-3.6v-9.8l9.1-2,12.3,7.2,3.6-6.4L604,96.9l4.7-.5,6.6,8.2-2.5,4.7-.7,6,.2,7.5-5.7,1.3,2.8,2.8-.1,3.6,6.5,8.3L632,152.4l10.5,8.9,5.7,4.3,1.7-5.8-4.5-6.2,5.7-1.5-5.4-7,5-3.1-4.7-2.6-3.4-5,4.1-.3-9.1-8.7-6.8-1.3-2.9-2.4-1.1-5.8-3.1-3.9,7,.9,1.4-2.6,4.7,2.2,6.1-4.6,11.5,4.1-1.7-2.7,2-3.6,1.6-4.1,3-.7,6.6-4.3,10,1.2-1-1.5-3.8-2.4-4.2-1.5-9.1-4.7-8.2-3,6.2.4,2-2.5L624.6,60.5l-9.5-2.4-15.8-2.5-8,.3L576,54.4l1.8,2.4,8.5,3.4-2.5,1.7-14.3-4.8-6.9.6-9.3-1-7,.1-3.9,1.1-7.3-1.5L530,52.5l-6.6-2.2-9.3-.9-14.8,1-16.3-4-7.9-3.1-40.4-3.4-2.1,2.2L442,47l-7.6-.7-1,1.4-9.8-1.6-5,1.4-9.4-2.3,3,5.5-9-2.1-10.1-4.2-.4-2.2-6-3.3-9.9-2.7-6.1.1-9.5-.9,4.8,3.9-17.4-.8-3.8-2.4-13.6-.8-5.2.8-.2,1.3L320,34.1l-2.4,1-7.2-1.3-5.6-.7,1.1-1.5,6.6-2.8,2.4-1.5-2.5-2.6-5.5-1.8-11.6-2.4-10.9-.1-1.9,1.2-4.1-2.4-9.4-.7,3.5-1.2-8.3-1.6-6.2,2-.9,2,1.5,2.2-7-.1-5.4,2.6-4.3-1.1-9.3.4.2,1.4-9.3.7-4.9,2.4-4.2.2-1.3,3.3,5.6,2.6-7.8.7-9.5-.2-5.9,1,4.9,5.5,6.9,4.3-9.6-3-8.1.3L184.5,45l4.6,3.8-5-1L182,42.7l-4.2-2.8-1.9.1,3.7,3.7-4.7,3.5,8.2,4.3.4,5.4,2.9,3,4.8.4.4,3.6L196,67l-1.9,2.7.5,2.7-3.8,1.4-.5,2L185,75l3.5-7.8-.5-3.7-6.7-3.3-3.8-7.4-3.8-3.7L170,47.4l.9-4.2L168,40.3l-11.4-1.4-2.2,1,.6,4.8-4.3,4.7,1.1,1.7,4.7,4.2.2,2.5,5.3.6.8,1.1,5.9,2.9-1.1,2.8L149,59l-6.6-1.7-13-1.6-1.2,1.8,6,3.1-2.8,3.6L125,60.9l-5,2.3-7.7.1-2.1,1.9-5.4-.6,2.5-3.3-3.2-.2L91.7,65.7,84,68.4l.4,3.5-6,1.2-4.1-1.9-1.2-3.1,5.1-.7-3.6-3L62.3,62.6,66.6,66l-.8,3.3,4.7,3.3-1.1,3.8-4.6-1.9-4.1-.3-8.1,5.4,4.3,4.2-3.2,1.4L42.1,81.6,40,83.8l3.4,2.4.2,2.8-3.8-1.5-6.1-1.7L31.8,80l-1-2.6-8.1-4.1,2.9-.7,20.2,4.2,6.5-1.5L56,72.4l-1.5-3.7-4.1-2.6L32.7,59.9,21,58.6l-7.7-3.2L9.6,57.3,3.2,59.4,0,59.9l.4,3.8,7.3,3.7L4.8,71.6l6.5,6.3L9.6,82.7l4.9,4.2-.9,3.8L21,94.6l-.9,2.9-3.4,3.4-8,7.4,5.4,2.8-4.5,3.3.9,1-2.6,3.4,2.4,5.6-1.6,1.9,2.5,1.3,1,2.9,2.1,3.6,5.3,1.5.9,1.5,2.4-.7,4.8,1.4,1.1,2.9-.7,1.6,3.8,4,2.1,1.1v1.1l3.4,1.1,1.7,1.6-1.6,1.3-3.9-.2-.8.6,1.5,2,2,4,1.8.2,1-1.4,1.5.3,4.9-.6,3.8,3.5-.9,1.3.8,1.9,3.9.3,2.3,2.7.1,1.2,6.7,2.2,3.6-1,3.6,2.9,2.9-.1,7.7,2,.4,1.9-1.3,3.2,1.8,3.5-.3,2.1-4.8.4-2.2,1.8.4,2.7,4.3-1,.4,1.4-6.9,2.6,3.3,2.5-3.2,5.2-3.6,1,5.1,3.7,6.2,2.4,7.6,5.4.4-.8h0l-.4.8,2.2,1.9,3,.7,3.4,2.4,2.1,4.3-.3,2.7h0l-5.5,3.4-4.6-.6-5.8,1-7.9-2.5L64,221.9l-8.5.2-5.8,1.8L44.1,228l-10-.9L32.5,232l-8,.2-5.1,6.1,3.6,3.1-2,5,4.2,3.5,3.8,6.4,5.8-.1,5.4,3.4,3.6-.8,1-2.6,5.7.2,4.7,3.4,8-.7,3.2-3.7,4.6,1.5,3.2-.6-1.7,2.4,2.3,2.9,1.3-1.4,1.2-1.4-.2-3.5h0l.2,3.5-1.2,1.4-1.3,1.4-1,2.7,1.1,4.9,2.5.3,1.2,2.5-2.7,2.5L75,278h0l-1.4.1-.4,1.1H71.3l-.6,1.7-.6,4.8-1.1,3,.4.4L68,291.2l3.9,9.4.7,1.6L74.4,292l-.4-2.5-2.5.8h0l2.5-.8.6-1.9-.4-4,.7-2,6.3,2.6,9.7-6.9,3.1,7.8,6.8,1.8,8.6,4.5,16.8,12.9,10.2.5-10.2-.5-16.8-12.9-8.6-4.5L94,285.1l-.9,1-10.4,3.2,6,6.5-1.6,1-.7,2.2-4.1.9-1.1,2.3-2.1,2-6.2-1.1-.4,2.6-.1,2.3-.5,3.5h2.7l3.1,4.4,3.8,5.1,2.5,4.8,1.7,1.4,1.8,3.4-.2,1.4,2.1,3.7,3,1.3,2.8,2.5,3.6,7.2v3.8l.9,4.4,4.1,6.1,2.5,1.1,4.1,4.4,1.9,5.2,3.3,5.4,3.1,2.3.5,2.6,1.8,1.9.9,2.8,2.4-2.1h0l-2.4,2.1.4,2.8-.6,1.2.7,2.9-1.1.4,1.8,2.6,1.3,4.7,1,1.9v3.5l1.6,3.8,4,.3,1.7-.9,2.8.2.8-1.6,1.5-.5,1.1-1.7,1.4-.4,4.7-.3,3.5-1.2,3.2-2.7,1.7.4,2.5-.4,4.7-4.5,8.8-3,5.4-2.7v-2.2l.9-2.9,4-1.7-2.2-4.5-5.2-10.6-15.9,2.5-5,2.9,5-2.9,15.9-2.5,5.2,10.6,2.2,4.5,2.5-.3,3.6-2.2,3.1.6,2.6-1.8-.2-2.6,2-1.6,3.5.1,1.2-1.4.3-3.1,3.3-2.4h2.5l.5-.8-1.1-4.3.7-3.2,1-1.6,2.5.4,1.7-4.4,2.2-2.1.7-1.8,1.7-3.8-.2-1.4-2-.9-1.7-2.1-2.9-3.7-3.4-1.1-4.1-.9-3.3-2.3-3-4.4-1.3-5.1h0l-1.3-2.2-3,4-3.7,4.1-3.3,4.4-3.4-.2-4.6-.2-4.2,1-.4-1.8-.9.4-1.3-2.5h0l.8-3.8-.5-3.7-1.8-2-1.5.7-1.1,3.3.8,4.7-1-1.6-.9-2.1-1.8-1.8-.9-2.1.4-2.2-.7-2.6-4-2.7-1.2-2.3-2.9-1.4-2.7-5.6-3.9.2-1.7-3.1-5-.6h0l3.3-6.2h0l-3.3,6.2,5,.6,1.7,3.1,3.9-.2-2.4-4.8.3-1.5-1.5-2.8,3.3.3-3.5-3.4-.5-3.4H141l.2-4.7-3.5-4.8-7.1-3.6-4.6-6.1.5-5,2.3-2.2-.9-3.7-3.8-2-4.7-7.6-3.8-5.1.7-2-2.9-7.3,3.3-1.9h0l-3.3,1.9,2.9,7.3-.7,2,3.8,5.1,4.7,7.6,3.8,2,.9,3.7-2.3,2.2-.5,5,4.6,6.1,7.1,3.6,3.5,4.8-.2,4.7h1.7l.5,3.4,3.5,3.4,1.7-2.5,3.7,2.1,2.8-1,5.2,8.5,4.4,6.1,5.5,1.8,6.1,5,7,2.1,5.1-3.1,4.1-1.1,2.8,1.1,3.3,7.9,6.3.8,6.2,1.5,10.6,1.9,1.1-7.4,7.5-3.4h0l-7.5,3.4-1.1,7.4,7.6-.9,9-.1,10-1.2,4.9,4.9,2.2,4.6,4.2,1.6,3.2-4.3h0l-3.2,4.3,7.1,5.5,1.9,2.5-2.4,2.3,8.1,7.8,4,.8,7.7-3.9,1.7,6,.8,7.8,2.6,8.2,3.5,12.5,5.9,8.8,1.4,4,2,8,3.4,6.2,2.2,3,2.5,6.5,3.1,9,5.6,6,2.2-1.9,1.7-4.3,5.1-1.8-1.9-2.2,2.3-4.9,2.9-.3-.7-10.9,1.9-6.1-.7-5.3-1.9-8.4,1.2-4.9,2.6-.3,4.8-2.3,2.6-1.6-.3-2.9,5-4.2,3.8-4.1,5.3-7.5,7.5-4.4,2.4-3.8-.9-4.8,6.6-1.3,3.8.1.5-2.4,2.2.6,1.7.7.6-1.2,2.6,1.3,1.2-3.5-.9-2.7,5.2.3,2.8,3.7,1.5,3.1.8,3.3,2.1,3.3-1.1-5.2h0l1.1,5.2,4.6,5.2,3.4.9-.3,2.3,5.3,7.4,2,6-.9,8,3.6,1.5,3.3.5,5.8-4.5Zm124.6-167,5.5,3.8h0ZM72.9,287.7l-1.5-.7h0Zm62.2,92-6.4.1-1.5.6-2.4-1.6-1.3,3.1h0l1.3-3.1,2.4,1.6,1.5-.6,6.4-.1,1.1.6Zm53.1-33.9v-2.6l1.3-2.6-.2-2.6,2.4-1.3-1.1-.9,1.1.9-2.4,1.3.2,2.6-1.3,2.6v2.6l3,4.6h0l-3-4.6-1,1.4h0Zm-42.9,37,2.6-1.1-2.6,1.1-1.5-2.1ZM182.6,164h0l-4.91-2.25Zm-8.5-14.7,3.1,2.55Zm-12.7,70.8,3.9,1.8,4.8,5,2-.23-2,.23-4.8-5Zm-5.6,1.3,3-.7Zm-52.7,3.4,5.6,3.2ZM92.2,213.4l-1.62-.4,1.62.39,7.7,1,1.4.57-1.4-.57Zm22.7,39.1,2.1,1.6.2-.09-.2.09-2.1-1.6-6.3-.9-2.1,1h0l-5.9,1-2.9-.1L92,255.9H87.6l-3-1.2L79,256.5l5.6-1.8,3,1.2H92l5.7-2.4,2.9.1,5.9-1,2.1-1Zm-3.3-34.8-2.9,1-.4-.4.4.4,2.9-1,5.1,1.3,2.1,2.6,3.6,1.5-1.2.8,3.3,3.5-3.3-3.5,1.2-.8-3.6-1.5-2.1-2.6ZM132,238.1l-5.3,4.7h0l-.9-4.5-2.5-1-2.6-1.7,1.1-2.1-3.2-2.2.7-1.6-2.2-1.1-1.4-1.6h0l1.4,1.6,2.2,1.1-.7,1.6,3.2,2.2-1.1,2.1,2.6,1.7,2.5,1,.9,4.5,5.3-4.7,1.9-.5Zm40.2,13.5-4.4,1.2-.2,1.5-8,1.7-7.7-1.1-4.3-3.2-5.3-1.3-2.5-4.8-1.3.4h0l1.3-.4-.8-3.1,1.7-1.5.4-2.2-.1-5,4.2-.5-1.9-1.7-2.5-.3-3.6-4.6-3.5-3.3-7.3-7.5-.4-4.2-6-6.1,3.6-6.5,4.6-1,1.4-3.7-2.8-1.1-.2-3.2-4.3-4.2-3.6.2-5.3-4.2,1.7-4.8-1.8-1.2h0l1.8,1.2-1.7,4.8,5.3,4.2,3.6-.2,4.3,4.2.2,3.2,2.8,1.1L134,193l5.1-2.7,4.7,1.5,5-.3,1.9,3.9.7,6.1-4.7-.9-4.1,1,1,4.6-5.1-.6.6,2.1,3.2,1.6L146,215l6.5,2.2,1.5,2.2-.6,2.6.6,1.6h0l2.6,4.1L156,223l3.8-1.6,2.4,3.6,4.7,3.9-4.1,2-5.3-1.6.1,5.4,3.5.4-.4,4.3,4.6,2.2.6,6.7,1.9,4.5,4.4-1.2,3-3.7h0Zm6.6-3.5h0l2-1.2h0Zm1.9-27-3.8,2.2,1.7,3.2-5.9.1,5.9-.1-1.7-3.2,3.8-2.2,3.4-3.7h0Zm12.9-14.2-4.8-2.4-9.2-4.5-1.1-.5h0l1.1.5,9.2,4.5,4.8,2.4,6.6,5.7h0Zm8.1,19.9-5.5.3h0ZM273,215.9h0l-1.6.7h0Zm-4.7,22.6,3.1,6h0ZM265,254.4l2.2-.6,2.5-2.9,3.8.5h5.4l-1.8-3.6-.5-2.5-3.7-1.5,3.7,1.5.5,2.5,1.8,3.6h-5.4l-3.8-.5-2.5,2.9-2.2.6-1.5,1.4h0Zm-1.8-40.5h0l-2.5,1.4.5,3.7-.4-.1.4.1-.5-3.7ZM255.1,226l7.2,3.4L257,234h0l5.3-4.6-7.2-3.4Zm-6.5-5.5.3-2.8,3.1-.9h0l-3.1.9-.3,2.8,1.7.6-3,4.1,4.6,2.4h0l-4.6-2.4,3-4.1Zm4.3,12.9-1.4,1.9h0Zm-6.2,18.5h0l-3.4,2h0Zm-1.2-17.6h0l.6,3.6h0Zm-2.3-4-.5,4.1-1.5,3.5h0l1.5-3.5.5-4.1,6.5-1.5h0Zm6.5,19.9h0l-.9,2.9h0Zm-15.5-99.9,4.4-.3,9.2-5.8-9.2,5.8-4.4.3h0l-.92-2.75Zm-16.9-10.2,4.4,6.3h0Zm6.1,163.3h0l5.3-1h0Zm9.6-1.6-.9,1.4h0l.9-1.4.3.05Zm-4.3-74.3-2.5-5.2-2.6-.1-1.5-6.4-7.6-4.6-5.29.31,5.29-.31,7.6,4.6,1.5,6.4,2.6.1,2.5,5.2,6.7.2,2.3,3h0l-2.3-3Zm8.1,10.1h0l-.6,2.8,4.2,1.5,2.4,4.8-1.3,6.5h0l1.3-6.5-2.4-4.8-4.2-1.5Zm12.5,51.3-.2,1.7H245l-2.3,3.7.8,5.4-6.6,2.7h0l6.6-2.7-.8-5.4,2.3-3.7h4.1l.2-1.7,4-.9h0Zm4.2-39.5-.6.9h0l.6-.9-.2-2.6,1.7-2.2h0l-1.7,2.2Zm-1.9-12h0l7.1,2.1h0Zm5.9,41.7-1.4,3.8,1.1,3.9-1.8,1.8h0l1.8-1.8-1.1-3.9,1.4-3.8,3.1-1.7-3.1-4.2h0l3.1,4.2Zm17.2,56.1-1.8-5.5-3.5-3.2-1.4-5-4-2.8,4.9-6.8h0l-4.9,6.8,4,2.8,1.4,5,3.5,3.2Zm-5.5-79.3-5.3,1.3-2.4,2.8,1.9,2.7,1.4,3.2-2,2.7.8,2.5-.9,2.3h0l.9-2.3-.8-2.5,2-2.7-1.4-3.2-1.9-2.7,2.4-2.8,5.3-1.3,5.9-.8,2.4-1.1,2.9-.8h0l-2.9.8-2.4,1.1ZM285,288.1l1,4.6-3.9,6.5-2.2,6.5-4.5,6.7h0l4.5-6.7,2.2-6.5,3.9-6.5-1-4.6,3.8-3.7-5.1-3.1-2.9-4.4-3.3-5.6,2-2.8h0l-2,2.8,3.3,5.6,2.9,4.4,5.1,3.1Zm-1-71.82,5.5.42h0Zm9.7,52.82,3.8-5.4h0Zm15.9,14-4.1-.9ZM430,343l-2.4-5.9h0Zm10,10.2-2.6-1.2-4.5-2.4.8-5.3-2.13-.75,2.13.75-.8,5.3,4.5,2.4Zm-2.2-134.1-7.2,2.2h0l7.2-2.2,7.6-.2,4.9-2.2,2-3.4,2.4-2.2h0l-2.4,2.2-2,3.4-4.9,2.2Zm7.3,136.4-.8-1.5h0l-.5-2.7h0l.5,2.7.8,1.5,3,.2h0Zm12.7,20.8-3.2.2,3.2-.2.8-2.2h0Zm20.6,26.2h0l2-4.4h0Zm-9.5-30.7,5.7,7.6L479,385l4.9,4.5,2,4.5h0l-2-4.5L479,385l-4.4-5.6-5.7-7.6-7.3-3.9h0Zm-2.8-7.9-3-5.6h-6.8l-3.5-5.8-4-5.1h0l4,5.1,3.5,5.8h6.8ZM462.7,201l-3.2,3.4-5.9-1.3-3.2-.6-.5,4.1h0l.5-4.1,3.2.6,5.9,1.3,3.2-3.4,6.4-2.4Zm17-9.2-6.8.8,6.8-.8,4.4.7h0Zm-8.8-7.9-2.5,2.3h0Zm-8,1.3-1.6.56Zm-39.6-8.9,6.8,1Zm-16.1-6.1,6.6,2.9,4.9,3.2h0l-4.9-3.2-6.6-2.9-5.4-.9h0Zm-45.7-11-1.17,5.8,1.17-5.75Zm-1.3,6.4,4,3.6h0ZM346.9,307.7l-4.5-1.2,4.5,1.2,5,2.9Zm-16.7-9.4-4.8-2h0l4.8,2,6.4,4.2Zm37.8,13-3.1,1.4.2,2.7,1.5,4.1-.1,2.5-4.6.1h0l4.6-.1.1-2.5-1.5-4.1-.2-2.7h0l-6.5-.7,6.5.7Zm4.1.3-2.6,4.8h0l2.6-4.8,2.6-1.6Zm25,43.1-.6-4.6h0Zm5.6-16.2-4.6-1.5h0Zm.4-33.3-4.9-1.5-5.4,4-3.9,4.8,3.9-4.8,5.4-4,4.9,1.5,3.2-2.7ZM401.7,218l-6.4.9L384,217.4l-5.6.2-4.7-3.8-5-5.8-3.4-.7-8-4-7.2-.8-6.5-1.1-3-2.8-1.4-7.3-5.8-5.1-8.2-2.3-5.7-3.3-3.3-4.4h0l3.3,4.4,5.7,3.3,8.2,2.3,5.8,5.1,1.4,7.3,3,2.8,6.5,1.1,7.2.8,8,4,3.4.7,5,5.8,4.7,3.8,5.6-.2,11.3,1.5,6.4-.9,5.6.9,9.4,3.9h6.2l3.3,1.9,2.85-2.2-2.85,2.2-3.3-1.9h-6.2l-9.4-3.9Zm13.8,99.7-4.2-1.1Zm6.5,20.5-.7-7.6,4.2-5.4-.9-5.3-1.3-4.9-2.7-1.5-2.7-3.8-3.1.5-6.1-1h0l6.1,1,3.1-.5,2.7,3.8,2.7,1.5,1.3,4.9.9,5.3-4.2,5.4Z"/><polygon class="cls-26" points="596.3 451.3 597.9 445.5 597.3 441.9 596.4 437.6 595.8 435.2 595.1 432 590.2 429 591 433.9 587 434.1 586.3 437 582.1 438.7 579.9 435.8 577 438.2 573.6 440 571.8 445.4 572.8 447.3 576.8 443.7 579.4 444 581 441.3 584.8 444.4 583.3 447.4 585.2 452.1 592.1 455.8 593.5 452.8 591.4 448.1 593.8 444.8 596.3 451.3"/><polygon class="cls-27" points="578.6 431.8 580 427.7 581.8 425.6 581.8 419.5 578.2 425.7 578.7 421.4 575.6 421.8 575.4 425.7 574.1 427.5 573.1 429.3 577 433.7 578.6 431.8"/><polygon class="cls-28" points="544.4 437.9 551.5 431.8 554 427.4 557.5 423.9 555.9 418.6 553.6 425 550.6 429.4 546.8 433.4 544.4 437.9"/><polygon class="cls-29" points="570.6 424.6 574 422.7 576.3 419.9 576.1 417.3 572.6 417.3 569 415.3 570.2 418.3 570.1 421.6 570.6 424.6"/><polygon class="cls-30" points="589.1 413.5 587.3 411.1 581.9 411 585.9 415.9 586.2 418.3 582.9 417.8 584.1 421.7 585.9 422 586.5 426.6 589.1 425.1 587.3 421.2 587 419 591.5 420.7 589.1 413.5"/><polygon class="cls-31" points="562.5 410.1 565.2 413.3 566.1 407.7 563.8 405.4 559 405.2 562.5 410.1"/><polygon class="cls-32" points="555 392.7 556.3 395.5 559.6 399.2 560 396.9 561.9 398.4 560.3 400 560.4 402.7 563.4 404.1 568.4 403.1 572.4 407 573.6 404.6 576.1 408 580.8 411.1 581.1 408.2 579 406.6 579.1 403.1 571.6 399.6 569.2 400.3 566.2 399.6 564.2 394.5 564.3 389.3 567.2 387.2 567.8 381.9 565.2 377.3 565.6 374.6 564.8 373 563.4 374.7 559.6 372.8 556.2 372.8 555.4 378.6 556.5 388.7 553.9 386.6 555 392.7"/><polygon class="cls-33" points="597.9 545.5 593.9 545.8 589 547.2 588.2 548.7 588.2 548.7 582.4 551.3 579.6 555.2 578.9 557.4 579.5 558.1 584.5 556.7 588.6 551.9 588.6 551.9 593.5 550.1 599.6 547.3 601.8 545.5 599.7 544.7 597.9 545.5"/><polygon class="cls-34" points="548.8 334.1 546.9 340.4 548.4 345.1 552.4 350.6 553.8 345.3 553.8 345.3 555 335 555.1 331.1 552.1 329.2 548.8 334.1"/><polygon class="cls-35" points="569.2 159.9 577.2 166 583.6 174.2 586 179 591.6 185.7 595.4 191.8 600.1 197.1 600 192.2 606.5 196 603.5 191.6 593.9 185.2 590.2 176.2 599.1 178.2 585.4 167.2 578.2 161 573 154.9 566.1 149 561.2 145 559.9 145.9 564.3 148.7 562.4 151.5 569.2 159.9"/><polygon class="cls-36" points="45.4 4.2 49.9 5.2 53.5 4.5 53.5 3.8 56.4 3.4 60.7 2.9 61.6 2.2 55.8 1.3 53 2 51.7 3 50.2 1.9 45 1.9 38.7 2.7 46.5 2.8 45.4 4.2"/><polygon class="cls-37" points="643.6 442.9 643.4 442.6 643.1 442.7 642.8 443.3 643 443.5 642.7 443.7 642.9 444.4 643.4 444.2 643.3 444 643.5 443.4 643.4 443.3 643.6 442.9 643.6 442.9"/><polygon class="cls-38" points="429.2 35.2 428.5 37.2 429.5 37.5 438.4 38.1 444.3 38 441.8 36.7 433.4 34.7 429.2 35.2"/><polygon class="cls-39" points="448.9 30.1 455.8 30.5 456.9 28.5 445.1 27.2 436.8 26.5 438.6 28.1 448.9 30.1"/><polygon class="cls-40" points="415.6 30.9 420.2 29.7 434.5 29.9 431.4 26.1 413.4 23.5 403.2 23.3 399.7 24.2 403.1 27.6 415.6 30.9"/><polygon class="cls-41" points="75.9 274.5 78.6 272 77.4 269.5 74.9 269.2 74.9 269.4 72.7 273.9 71.4 279.2 73.2 279.2 73.6 278.1 75 278 75 278 75.9 274.5"/><polygon class="cls-42" points="192.9 322.7 192.2 322.2 190.8 324.3 192.1 326.5 192.7 325.4 192.9 322.7"/><polygon class="cls-43" points="88.8 47.1 96.7 48.5 99 50.8 112.5 51.5 114.7 51.1 104.7 46.7 101.6 42.4 104.9 37.4 107.7 32.4 116.4 27.6 126.3 25.3 137.7 22.8 139 21.3 134.8 19.4 128.1 20 123.1 21.8 111.4 22.7 101.1 25.9 94.3 28.5 96.8 30.8 90.1 35.3 94.1 35.9 88.7 40.3 90.3 43.1 86.8 44.2 88.8 47.1"/><polygon class="cls-44" points="263 12.9 261.5 11 248.9 8.4 245.8 8.1 243.6 8.6 244.9 14.7 263 12.9"/><polygon class="cls-45" points="214.1 7.8 222.2 9.5 233.9 10.8 241 10.2 236.5 6.2 222.8 2 213.2 0 207 0.9 201.6 3.8 207.5 4.6 214.1 7.8"/><polygon class="cls-46" points="160.5 323.1 160.3 323.2 160 323.1 159.9 323.3 159.9 323.7 160.1 324.4 160 324.8 160.6 325.6 160.7 326 160.9 325.6 160.9 324.9 160.8 324 160.9 323.8 160.5 323.1"/><polygon class="cls-47" points="196.2 521 196 521.5 196.3 521.7 196.5 522 196.7 521.7 196.3 521.3 196.2 521"/></g></g></g></g></g></svg>