<svg xmlns="http://www.w3.org/2000/svg" xmlns:xlink="http://www.w3.org/1999/xlink" viewBox="0 0 240.1 229.38"><defs><style>.cls-1{fill:url(#Naamloos_verloop_20);}.cls-2{fill:url(#Naamloos_verloop_20-2);}.cls-3{fill:url(#Naamloos_verloop_20-3);}.cls-4{fill:url(#Naamloos_verloop_20-4);}.cls-5{fill:url(#Naamloos_verloop_20-5);}.cls-6{fill:url(#Naamloos_verloop_20-6);}.cls-7{fill:url(#Naamloos_verloop_20-7);}.cls-8{fill:url(#Naamloos_verloop_20-8);}.cls-9{fill:url(#Naamloos_verloop_20-9);}.cls-10{fill:url(#Naamloos_verloop_20-10);}.cls-11{fill:url(#Naamloos_verloop_20-11);}.cls-12{fill:url(#Naamloos_verloop_20-12);}.cls-13{fill:url(#Naamloos_verloop_20-13);}.cls-14{fill:url(#Naamloos_verloop_20-14);}.cls-15{fill:url(#Naamloos_verloop_20-15);}.cls-16{fill:url(#Naamloos_verloop_20-16);}.cls-17{fill:url(#Naamloos_verloop_20-17);}.cls-18{fill:url(#Naamloos_verloop_20-18);}.cls-19{fill:url(#Naamloos_verloop_20-19);}.cls-20{fill:url(#Naamloos_verloop_20-20);}.cls-21{fill:url(#Naamloos_verloop_20-21);}.cls-22{fill:url(#Naamloos_verloop_20-22);}.cls-23{fill:url(#Naamloos_verloop_20-23);}.cls-24{fill:url(#Naamloos_verloop_20-24);}.cls-25{fill:url(#Naamloos_verloop_20-25);}</style><linearGradient id="Naamloos_verloop_20" x1="118.11" y1="103.37" x2="124.57" y2="103.37" gradientUnits="userSpaceOnUse"><stop offset="0" stop-color="#3174ec"/><stop offset="1" stop-color="#4181f3"/></linearGradient><linearGradient id="Naamloos_verloop_20-2" x1="57.38" y1="108.92" x2="85.35" y2="108.92" xlink:href="#Naamloos_verloop_20"/><linearGradient id="Naamloos_verloop_20-3" x1="174.58" y1="199.51" x2="185.83" y2="199.51" xlink:href="#Naamloos_verloop_20"/><linearGradient id="Naamloos_verloop_20-4" x1="42.33" y1="112.79" x2="58.68" y2="112.79" xlink:href="#Naamloos_verloop_20"/><linearGradient id="Naamloos_verloop_20-5" x1="0" y1="60.84" x2="34.66" y2="60.84" xlink:href="#Naamloos_verloop_20"/><linearGradient id="Naamloos_verloop_20-6" x1="129.13" y1="189.21" x2="141.37" y2="189.21" xlink:href="#Naamloos_verloop_20"/><linearGradient id="Naamloos_verloop_20-7" x1="111.42" y1="176.45" x2="118.04" y2="176.45" xlink:href="#Naamloos_verloop_20"/><linearGradient id="Naamloos_verloop_20-8" x1="223.83" y1="219.16" x2="240.1" y2="219.16" xlink:href="#Naamloos_verloop_20"/><linearGradient id="Naamloos_verloop_20-9" x1="95.99" y1="69.47" x2="184.62" y2="69.47" xlink:href="#Naamloos_verloop_20"/><linearGradient id="Naamloos_verloop_20-10" x1="136.51" y1="9.23" x2="147.75" y2="9.23" xlink:href="#Naamloos_verloop_20"/><linearGradient id="Naamloos_verloop_20-11" x1="107.32" y1="7.75" x2="137.87" y2="7.75" xlink:href="#Naamloos_verloop_20"/><linearGradient id="Naamloos_verloop_20-12" x1="125.41" y1="2.09" x2="152.47" y2="2.09" xlink:href="#Naamloos_verloop_20"/><linearGradient id="Naamloos_verloop_20-13" x1="41.12" y1="140.46" x2="230.14" y2="140.46" xlink:href="#Naamloos_verloop_20"/><linearGradient id="Naamloos_verloop_20-14" x1="112.72" y1="166.11" x2="116.67" y2="166.11" xlink:href="#Naamloos_verloop_20"/><linearGradient id="Naamloos_verloop_20-15" x1="216.61" y1="201" x2="217.68" y2="201" xlink:href="#Naamloos_verloop_20"/><linearGradient id="Naamloos_verloop_20-16" x1="210.23" y1="201.49" x2="216.08" y2="201.49" xlink:href="#Naamloos_verloop_20"/><linearGradient id="Naamloos_verloop_20-17" x1="55.56" y1="76.04" x2="56.55" y2="76.04" xlink:href="#Naamloos_verloop_20"/><linearGradient id="Naamloos_verloop_20-18" x1="55.79" y1="74.64" x2="56.78" y2="74.64" xlink:href="#Naamloos_verloop_20"/><linearGradient id="Naamloos_verloop_20-19" x1="54.12" y1="73.34" x2="56.47" y2="73.34" xlink:href="#Naamloos_verloop_20"/><linearGradient id="Naamloos_verloop_20-20" x1="57.69" y1="72.66" x2="57.92" y2="72.66" xlink:href="#Naamloos_verloop_20"/><linearGradient id="Naamloos_verloop_20-21" x1="55.41" y1="73" x2="56.93" y2="73" xlink:href="#Naamloos_verloop_20"/><linearGradient id="Naamloos_verloop_20-22" x1="57" y1="72.66" x2="57.69" y2="72.66" xlink:href="#Naamloos_verloop_20"/><linearGradient id="Naamloos_verloop_20-23" x1="56.7" y1="72.47" x2="57" y2="72.47" xlink:href="#Naamloos_verloop_20"/><linearGradient id="Naamloos_verloop_20-24" x1="137.11" y1="196.74" x2="138.1" y2="196.74" xlink:href="#Naamloos_verloop_20"/><linearGradient id="Naamloos_verloop_20-25" x1="136.51" y1="195.94" x2="137.11" y2="195.94" xlink:href="#Naamloos_verloop_20"/></defs><g id="Laag_2" data-name="Laag 2"><g id="Laag_1-2" data-name="Laag 1"><polygon class="cls-1" points="118.11 101.85 118.8 103.75 122.75 106.41 124.57 102.68 123.28 100.33 118.11 101.85"/><polygon class="cls-2" points="59.06 99.57 59.13 104.05 61.11 101.85 62.25 103.14 60.88 105.19 61.72 106.41 66.05 107.24 66.12 107.32 68.48 110.13 67.87 112.87 62.48 112.41 61.72 115.45 63.62 117.96 59.74 119.4 60.73 121.3 66.5 122.06 63.16 123.13 57.61 128.07 59.51 128.98 62.25 127.16 65.67 127.69 68.18 125.48 69.85 126.47 76.23 125.1 81.17 125.18 84.52 122.75 83.07 120.32 84.9 118.95 85.35 115.91 80.87 115.07 79.81 113.25 77.6 107.93 75.17 107.17 71.98 101.77 71.75 101.24 68.03 101.01 71.29 96.91 72.28 93.18 68.41 93.18 64.83 93.79 68.71 88.85 64.45 89.23 61.72 88.93 58.83 92.57 57.38 97.29 59.06 99.57"/><polygon class="cls-3" points="183.7 199.28 180.66 198.98 177.55 199.28 175.19 197.61 174.58 199.66 179.6 200.65 179.68 201.41 185.45 201.03 185.83 199.59 183.7 200.2 183.7 199.28"/><polygon class="cls-4" points="47.5 120.92 54.19 118.19 57.16 114.01 56.62 110.66 58.68 107.55 54.95 104.66 51.91 104.89 49.1 107.02 44.01 110.66 45.6 115.38 42.34 120.24 47.5 120.92"/><polygon class="cls-5" points="32.38 54.65 27.06 54.34 21.51 56.55 17.63 55.41 12.31 57.69 7.75 54.8 2.74 55.41 0 58.22 6.69 59.21 6.61 60.5 0.61 61.34 7.45 63.39 3.8 65.29 12.85 66.66 17.1 67.34 20.07 66.5 30.02 63.54 34.66 60.27 31.31 57.38 32.38 54.65"/><polygon class="cls-6" points="138.33 185.76 134.22 186.29 129.51 185.83 129.13 188.34 134.83 190.77 136.88 191.31 140.08 193.13 140.76 190.62 140.08 189.18 141.37 185.3 138.33 185.76"/><polygon class="cls-7" points="113.63 172.38 111.42 172.15 112.41 174.89 112.79 180.74 114.31 182.03 115.91 180.44 117.73 180.74 118.04 174.28 115.53 170.86 113.63 172.38"/><polygon class="cls-8" points="240.1 214.87 237.74 208.94 230.37 214.18 225.58 212.21 225.05 213.73 225.35 216.77 224.9 218.21 225.2 220.11 223.84 227.86 224.06 228.55 228.78 229.38 230.37 227.86 231.21 226.12 234.32 225.43 234.86 223.76 236.07 223 231.51 218.06 239.42 215.63 240.1 214.87"/><polygon class="cls-9" points="98.88 89.08 103.82 91.36 108.46 90.29 115 85.13 117.5 87.86 120.7 94.25 124.12 99.49 125.56 103.82 129.74 103.59 131.41 99.95 135.75 100.4 137.34 96.07 137.8 88.47 141.29 87.41 143.8 82.39 140.15 79.88 137.34 76.77 138.94 70.61 144.87 66.81 149.58 63.39 148.59 60.73 151.25 57.76 156.57 56.55 161.51 58.52 162.19 60.35 160.22 61.26 153.53 65.97 151.02 68.63 149.81 71.22 152.09 75.17 152.01 79.58 155.58 81.02 158.01 83.45 163.41 82.47 169.19 80.87 175.27 80.49 181.35 74.86 183.93 72.28 184.62 70.08 178.99 67.11 179.68 64.22 175.95 61.03 177.24 57.38 172.3 52.6 174.51 49.4 168.96 46.59 168.66 43.7 171.09 43.32 175.95 41.73 171.85 39.14 175.57 38.08 165.16 35.11 159.84 35.87 154.21 35.72 150.26 39.07 145.17 38.84 138.71 40.66 130.88 45.83 126.02 48.95 119.25 57.08 113.78 63.01 107.62 67.49 99.03 71.22 95.99 74.03 97.51 84.29 98.88 89.08"/><polygon class="cls-10" points="141.98 11.02 147.75 9.58 143.5 8.74 142.05 7.45 136.5 8.13 138.48 9.27 136.81 10.19 141.98 11.02"/><polygon class="cls-11" points="115.6 8.97 119.94 10.03 117.66 11.32 124.12 13.53 127.46 13.38 128.15 10.34 130.43 9.65 131.34 7.07 137.87 5.7 128.3 3.12 124.65 1.98 120.7 2.13 119.94 3.27 116.14 3.27 114.39 2.13 107.32 3.34 109.75 6 115.6 8.97"/><polygon class="cls-12" points="132.55 2.66 133.31 3.57 141.44 4.18 149.12 3.8 152.47 1.98 146.84 0.84 139.85 0 137.49 0.99 133.39 0.23 125.41 1.14 128.68 2.66 132.55 2.66"/><polygon class="cls-13" points="219.66 144.49 221.94 142.89 224.9 142.51 224.59 140.46 226.27 139.09 229.91 138.78 230.14 137.19 228.78 134.53 229.76 132.1 229.46 130.65 223.61 129.13 221.4 129.21 218.67 127 215.93 127.77 210.84 126.09 210.76 125.18 209.01 123.13 206.05 122.9 205.44 121.46 206.13 120.47 203.24 117.81 199.51 118.26 198.37 118.04 197.61 119.1 196.25 118.95 194.72 115.91 193.59 114.39 194.19 113.93 197.16 114.08 198.37 113.1 197.08 111.88 194.5 111.04 194.5 110.21 192.9 109.37 190.01 106.33 190.54 105.11 189.71 102.91 186.06 101.85 184.24 102.38 183.55 101.24 179.52 100.1 177.93 97.36 177.17 95.16 175.27 94.17 176.48 92.73 174.66 88.47 176.64 85.89 175.95 85.13 172.38 85.2 168.5 84.52 164.25 85.13 160.07 86.42 160.83 89 163.34 90.6 164.47 89.99 164.55 92.65 164.47 96.15 161.66 96.3 158.32 92.88 155.2 94.4 153.91 97.29 154.29 100.71 155.58 104.58 150.79 106.1 150.26 108.08 146.77 108.08 146.31 106.94 142.66 106.18 138.25 107.7 132.86 109.83 130.5 111.19 128.68 109.75 124.42 107.93 122.44 109.14 118.87 110.06 118.8 108.38 115.07 107.32 114.84 105.57 112.64 106.25 114.84 105.57 113.78 103.29 116.14 100.02 117.2 100.48 117.96 98.73 115.98 98.05 115.45 96.83 116.36 95.31 116.36 92.95 113.63 94.25 112.41 95.54 109.37 95.77 108.38 97.13 107.93 98.43 108.23 103.06 109.83 105.65 109.83 105.65 110.13 108.23 111.12 109.98 108.76 112.26 108 111.27 104.96 111.5 104.36 112.49 101.31 112.33 96.37 114.31 93.33 121.15 91.43 122.44 88.47 123.36 85.28 124.34 84.14 128.22 75.47 131.87 71.9 129.82 73.04 135.21 66.73 134 61.79 134.99 62.1 138.48 67.87 140.31 70.69 142.74 74.56 147.75 73.8 157.33 71.75 160.22 65.44 159.99 62.17 160.29 58.07 159.46 52.82 159.46 48.11 158.62 42.49 162.12 44.01 164.17 43.63 167.59 43.78 169.26 44.46 171.01 44.46 173.06 43.55 175.95 43.17 177.93 41.5 179.68 41.12 182.87 41.95 184.69 43.78 185.15 44.01 188.11 43.32 191.91 45.38 191.38 47.5 192.06 49.17 190.85 52.9 191.61 53.96 194.34 55.41 196.02 57.38 196.4 58.98 194.57 61.56 192.9 65.36 192.98 70.53 192.9 73.34 189.18 76.39 188.19 77.3 185 79.58 182.87 78.06 180.06 79.58 176.1 82.01 173.44 82.39 171.85 87.41 170.78 91.13 167.59 90.83 164.78 91.28 161.89 96.91 160.29 104.66 161.59 108.08 158.85 109.67 158.55 111.88 156.27 113.63 155.66 116.82 157.25 118.8 157.79 120.24 162.57 123.05 165.31 126.78 168.5 130.04 170.63 132.93 170.94 134.76 172.91 137.34 173.82 138.71 175.88 140.38 176.48 141.75 178.92 143.5 181.73 142.66 182.79 141.98 185.38 142.05 186.9 143.73 186.52 145.63 182.34 147.22 182.03 147.53 179.52 144.56 177.7 146.01 174.58 149.5 175.34 151.86 177.62 152.47 175.88 152.01 175.04 148.44 172.46 145.4 171.01 141.75 169.26 142.81 168.28 141.75 167.21 138.71 167.29 134.07 163.41 131.87 159.38 128.07 156.95 126.62 154.52 127 153.15 126.7 150.79 129.66 149.05 132.78 149.81 131.94 150.19 131.87 150.26 131.87 151.93 133.09 153.53 134.15 151.48 136.66 152.24 136.88 153.83 138.78 155.89 138.03 156.27 141.6 159.76 145.25 161.21 147.68 162.96 151.48 164.7 153.23 165.69 154.52 167.29 155.35 167.67 156.04 168.43 155.66 169.87 155.58 173.22 156.11 175.5 158.47 177.17 158.62 178.23 159.31 178.54 159.69 179.9 161.97 182.72 163.72 184.92 164.7 188.19 166.53 192.06 170.02 194.19 172.68 194.12 170.78 189.78 173.29 189.33 171.92 186.82 175.72 188.11 175.42 185.38 173.29 183.93 170.86 181.73 172.3 180.66 170.1 178.38 168.88 175.5 169.57 174.43 171.92 176.94 174.13 176.94 176.03 176.1 172.99 173.37 177.7 172.15 179.75 172.61 182.18 172.76 182.26 173.75 183.78 175.95 186.74 173.37 188.26 171.85 192.98 171.62 193.51 170.4 189.86 168.88 189.18 166.98 187.58 164.25 188.57 160.83 190.32 158.85 190.62 153 191.84 153.45 193.59 152.47 193.28 151.17 195.79 147.68 196.78 145.02 200.2 144.41 200.81 146.23 206.96 147.45 208.25 148.51 204.76 150.11 204.23 151.02 208.71 152.47 208.18 154.67 210.53 155.66 215.32 152.92 219.43 152.09 219.88 150.34 216.01 150.64 213.88 149.5 213.12 146.54 216.16 144.71 219.66 144.49"/><polygon class="cls-14" points="115.53 170.02 116.67 166.3 115.83 162.19 113.4 164.02 112.72 165.84 113.7 169.03 115.53 170.02"/><polygon class="cls-15" points="217.37 200.73 216.99 200.81 216.84 200.73 216.61 200.81 216.61 201.03 216.84 201.26 217.15 201.11 217.37 201.11 217.68 201.19 217.45 200.88 217.37 200.73"/><polygon class="cls-16" points="215.47 201.03 215.25 200.88 215.02 201.03 215.02 200.58 214.79 200.27 214.56 200.27 214.41 200.5 214.11 200.35 213.88 200.27 213.65 200.43 213.35 200.35 212.89 200.73 212.43 200.73 212.36 200.58 211.98 200.43 211.9 200.12 211.75 200.12 211.6 200.27 211.45 200.2 211.22 200.27 211.14 200.5 210.99 200.73 210.69 200.81 210.31 200.58 210.23 200.81 210.38 201.03 210.53 201.56 210.76 201.79 210.99 202.25 211.29 202.48 211.67 202.55 212.05 202.71 212.43 202.71 212.74 202.48 212.97 202.71 213.12 202.71 213.35 202.63 213.5 202.86 213.73 202.55 214.11 202.48 214.41 202.55 214.87 202.32 215.02 202.25 215.4 202.1 215.55 201.94 215.78 201.94 215.85 201.79 215.93 201.34 216.08 201.19 216.08 201.11 215.55 200.96 215.47 201.03"/><polygon class="cls-17" points="56.32 75.7 56.09 75.7 55.79 75.55 55.56 75.55 55.71 75.78 55.86 75.93 56.02 76.23 56.47 76.54 56.55 76.39 56.4 76.16 56.4 75.85 56.32 75.7"/><polygon class="cls-18" points="56.7 74.94 56.78 74.64 56.62 74.48 56.02 74.33 55.79 74.26 55.94 74.56 56.32 74.64 56.62 75.02 56.7 74.94"/><polygon class="cls-19" points="54.42 73.65 54.88 73.8 55.03 73.65 55.33 73.65 55.33 73.42 55.1 73.42 55.04 73.3 55.1 73.34 55.48 73.34 55.64 73.5 55.71 73.65 55.86 73.72 56.02 73.88 56.4 74.18 56.47 73.72 56.24 73.57 56.02 73.19 55.56 73.04 55.56 72.97 55.33 72.58 54.95 72.51 54.8 73.12 55 73.26 54.57 73.19 54.5 73.27 54.12 73.34 54.27 73.57 54.42 73.65"/><polygon class="cls-20" points="57.92 72.51 57.69 72.66 57.84 72.81 57.92 72.51"/><polygon class="cls-21" points="56.93 73.34 56.93 73.19 56.47 73.04 56.4 72.89 56.47 72.74 56.02 72.43 55.79 72.43 55.48 72.51 55.41 72.58 55.48 72.81 55.71 73.04 56.02 73.19 56.62 73.57 56.93 73.34"/><polygon class="cls-22" points="57 72.89 57.23 72.89 57.46 73.04 57.69 72.74 57.31 72.58 57.16 72.28 57.08 72.36 57.16 72.66 57 72.89"/><polygon class="cls-23" points="57 72.74 56.93 72.51 56.78 72.2 56.7 72.43 56.85 72.74 57 72.74"/><polygon class="cls-24" points="137.87 196.55 137.57 196.32 137.11 196.32 137.19 196.4 137.19 196.78 137.57 197 137.95 197.16 138.1 196.93 138.03 196.7 137.87 196.55"/><polygon class="cls-25" points="136.81 195.79 136.5 195.87 136.5 196.02 136.88 196.09 137.11 196.02 136.81 195.79"/></g></g></svg>