<svg xmlns="http://www.w3.org/2000/svg" viewBox="0 0 315.9 301.8"><defs><style>.cls-1{fill:#1d2225;}</style></defs><g id="Laag_2" data-name="Laag 2"><g id="World-map"><g id="Europe"><polygon class="cls-1" points="155.4 134 156.3 136.5 161.5 140 163.9 135.1 162.2 132 155.4 134"/><polygon class="cls-1" points="154.2 132.2 155.2 129.9 152.6 129 151.9 127.4 153.1 125.4 153.1 122.3 149.5 124 147.9 125.7 143.9 126 142.6 127.8 142 129.5 142.4 135.6 144.5 139 148.2 139.8 151.1 138.9 149.7 135.9 152.8 131.6 154.2 132.2"/><polygon class="cls-1" points="77.7 131 77.8 136.9 80.4 134 81.9 135.7 80.1 138.4 81.2 140 86.9 141.1 87 141.2 90.1 144.9 89.3 148.5 82.2 147.9 81.2 151.9 83.7 155.2 78.6 157.1 79.9 159.6 87.5 160.6 83.1 162 75.8 168.5 78.3 169.7 81.9 167.3 86.4 168 89.7 165.1 91.9 166.4 100.3 164.6 106.8 164.7 111.2 161.5 109.3 158.3 111.7 156.5 112.3 152.5 106.4 151.4 105 149 102.1 142 98.9 141 94.7 133.9 94.4 133.2 89.5 132.9 93.8 127.5 95.1 122.6 90 122.6 85.3 123.4 90.4 116.9 84.8 117.4 81.2 117 77.4 121.8 75.5 128 77.7 131"/><polygon class="cls-1" points="241.7 262.2 237.7 261.8 233.6 262.2 230.5 260 229.7 262.7 236.3 264 236.4 265 244 264.5 244.5 262.6 241.7 263.4 241.7 262.2"/><path class="cls-1" d="M62.5,159.1l8.8-3.6,3.9-5.5-.7-4.4h0l2.7-4.1-4.9-3.8-4,.3h0l-3.7,2.8-6.7,4.8,2.1,6.2-4.3,6.4ZM71,144.4l-3,.1h0l3-.1Z"/><polygon class="cls-1" points="42.6 71.9 42.6 71.9 35.6 71.5 28.3 74.4 23.2 72.9 16.2 75.9 10.2 72.1 3.6 72.9 0 76.6 8.8 77.9 8.7 79.6 0.8 80.7 9.8 83.4 5 85.9 16.9 87.7 22.5 88.6 26.4 87.5 39.5 83.6 45.6 79.3 41.2 75.5 42.6 71.9"/><polygon class="cls-1" points="182 244.4 176.6 245.1 170.4 244.5 169.9 247.8 177.4 251 180.1 251.7 184.3 254.1 185.2 250.8 184.3 248.9 186 243.8 182 244.4"/><polygon class="cls-1" points="149.5 226.8 146.6 226.5 147.9 230.1 148.4 237.8 150.4 239.5 152.5 237.4 154.9 237.8 155.3 229.3 152 224.8 149.5 226.8"/><polygon class="cls-1" points="315.9 282.7 312.8 274.9 303.1 281.8 296.8 279.2 296.1 281.2 296.5 285.2 295.9 287.1 296.3 289.6 294.5 299.8 294.8 300.7 301 301.8 303.1 299.8 304.2 297.5 308.3 296.6 309 294.4 310.6 293.4 304.6 286.9 315 283.7 315.9 282.7"/><path class="cls-1" d="M130.1,117.2l6.5,3,6.1-1.4,8.6-6.8,3.3,3.6,1.8-3.4,3.4-4,.8-6.9-3.1-2.9-1-7.7,2.4-5.4h0l-2.4,5.4,1,7.7,3.1,2.9-.8,6.9-3.4,4-1.8,3.4,4.2,8.4,4.5,6.9,1.9,5.7,5.5-.3,2.2-4.8,5.7.6,2.1-5.7.6-10,4.6-1.4,3.3-6.6-4.8-3.3-3.7-4.1,2.1-8.1,7.8-5,6.2-4.5-1.3-3.5L199,76l7-1.6h0l6.5,2.6.9,2.4-2.6,1.2L202,86.8l-3.3,3.5-1.6,3.4,3,5.2-.1,5.8,4.7,1.9,3.2,3.2,7.1-1.3,7.6-2.1,8-.5,8-7.4,3.4-3.4.9-2.9-7.4-3.9.9-3.8-4.9-4.2,1.7-4.8-6.5-6.3,2.9-4.2-7.3-3.7-.4-3.8h0l3.2-.5,6.4-2.1-5.4-3.4,4.9-1.4-13.7-3.9-7,1-7.4-.2-5.2,4.4-6.7-.3-8.5,2.4-10.3,6.8-6.4,4.1-8.9,10.7-7.2,7.8-8.1,5.9-11.3,4.9-4,3.7,2,13.5Zm92.6-63.5-1.6-.58,1.6.58ZM211,53.4l5.9-1.8h0L211,53.4l-1.1,4-3.4,2.4h0l3.4-2.4Zm-9.2,5.1,2.1.58-2.1-.58-5.3.2h0Zm-12.6-1.2,2.2-1.4h0l-2.2,1.4h0l-2.6.2.1,3.6h0l-.1-3.6Zm-10.5,2.9h0l-.6,3.1h0ZM168.4,73.3l3.4-6.1,2.3-3.9h0l-2.3,3.9-3.4,6.1-5.7,7.9,1.8,2-1.3,2.2h0l1.3-2.2-1.8-2Z"/><polygon class="cls-1" points="186.8 14.5 194.4 12.6 188.8 11.5 186.9 9.8 179.6 10.7 182.2 12.2 180 13.4 186.8 14.5"/><polygon class="cls-1" points="152.1 11.8 157.8 13.2 154.8 14.9 163.3 17.8 167.7 17.6 168.6 13.6 171.6 12.7 172.8 9.3 181.4 7.5 168.8 4.1 164 2.6 158.8 2.8 157.8 4.3 152.8 4.3 150.5 2.8 141.2 4.4 144.4 7.9 152.1 11.8"/><polygon class="cls-1" points="174.4 3.5 175.4 4.7 186.1 5.5 196.2 5 200.6 2.6 193.2 1.1 184 0 180.9 1.3 175.5 0.3 165 1.5 169.3 3.5 174.4 3.5"/><path class="cls-1" d="M289,190.1l3-2.1,3.9-.5-.4-2.7,2.2-1.8,4.8-.4.3-2.1L301,177l1.3-3.2-.4-1.9-7.7-2-2.9.1-3.6-2.9-3.6,1-6.7-2.2-.1-1.2L275,162h0l-3.9-.3-.8-1.9.9-1.3-3.8-3.5-4.9.6-1.5-.3-1,1.4-1.8-.2-2-4-1.5-2,.8-.6,3.9.2,1.6-1.3-1.7-1.6-3.4-1.1V145l-2.1-1.1-3.8-4,.7-1.6-1.1-2.9-4.8-1.4-2.4.7-.9-1.5-5.3-1.5h0l-2.1-3.6-1-2.9-2.5-1.3-3.8-.1-4.4-2.2,4.4,2.2,3.8.1,1.6-1.9-2.4-5.6,2.6-3.4-.9-1h0l-4.7.1-5.1-.9-5.6.8-5.5,1.7,1,3.4,3.3,2.1,1.5-.8.1,3.5-.1,4.6-3.7.2-4.4-4.5-4.1,2-1.7,3.8.5,4.5h0l1.7,5.1-6.3,2-.7,2.6h-4.6l-.6-1.5-4.8-1-5.8,2-7.1,2.8-3.1,1.8-2.4-1.9-5.6-2.4-2.6,1.6-4.7,1.2-.1-2.2-4.9-1.4-.3-2.3-2.9.9-3.7-.8.4,3.4,1.3,2.3-3.1,3-1-1.3-4,.3-.8,1.3.9,2.1-.9,5.6-1.2,2.3h0l1.2-2.3.9-5.6-.9-2.1-4-.2-6.5,2.6-4,9-2.5,1.7,3.6.5h0l-3.6-.5-3.9,1.2h0l-4.2,1.3-1.5,5.1-11.4,4.8-4.7-2.7,1.5,7.1-8.3-1.6-6.5,1.3.4,4.6,7.6,2.4,3.7,3.2,5.1,6.6-1,12.6-2.7,3.8h0l-8.3-.3-4.3.4-5.4-1.1H69.5l-6.2-1.1-7.4,4.6,2,2.7-.5,4.5,1.9-1.6,2.2-.9h0l-2.2.9-1.9,1.6.2,2.2.9,2.3v2.7l-1.2,3.8-.5,2.6-2.2,2.3-.5,4.2,1.1,2.4,2.4.6.3,3.9-.9,5,2.7-.7,2.8.9,2.2-1.6h0l4.9,1,1.4,3.6,1.9,2.2,2.6.5,2.1-2.4,3.4-2.2,5,.1,6.8-.1,3.7-4.9,4-1.3,1.2-4.2,3-2.8-2-3.7,2-5.2,3.2-3.5.5-2.1,6.6-1.4,4.9-4.2-.4-3.7.6-3.8,7.4-2.1,10.2,1.7,4.5-3.6,2.1-.4,2.9-3,2.3-.8,4.2,2.1,2.6.7,1.9,6.3,3.7,3.6,4.9,4.2,4.3,2.8,3.8.4,2.4,2.6,3.4,1.2,1.8,2.7,2.2.8,1.8,3.2,2.3,3.7-1.1,1.4-.9,3.4.1,2,2.2-.5,2.5-5.5,2.1-.4.4-3.3-3.9-2.4,1.9-4.1,4.6,1,3.1,3,.8-2.3-.6-1.1-4.7-3.4-4-1.9-4.8-2.3,1.4-1.3-1.4-1.4-4,.1-6.1-5.1-2.9-5.3-5-3.2-1.9-3.2.5-1.8-.4-3.1,3.9-2.3,4.1,1-1.1.5,3.6.2h0l-3.6-.2-.1.1v2.2l1.6,2.1,1.4-2.7,3.3,1,.3,2.1,2.5,2.7-1,.5,4.7,4.6,4.8,1.9,3.2,2.3,5,2.3,2.3,1.3,1.7,2.1,1.1.5-.5-2.1,1.9-3.1h0l-1.9,3.1.5,2.1.9,1-.5,1.9-.1,4.4.7,3,3.1,2.2.2,1.4.9.4h0l.5,1.8,3,3.7,2.3,2.9,1.3,4.3,2.4,5.1,4.6,2.8,3.5-.1-2.5-5.7,3.3-.6-1.8-3.3,5,1.7-.4-3.6L228,242l-3.2-2.9,1.9-1.4-2.9-3-1.6-3.8.9-1.4,3.1,3.3h2.9l2.5-1.1-4-3.6,6.2-1.6,2.7.6,3.2.2.1,1.3,2,2.9,3.9-3.4,2-2,6.2-.3.7-1.6-4.8-2-.9-2.5h0l-2.1-3.6,1.3-4.5,2.3-2.6h0l-3.1-.7-4-2.3h0l4,2.3,3.1.7.4-7.7,1.6.6,2.3-1.3-.4-1.7h0l3.3-4.6,1.3-3.5,4.5-.8.8,2.4,8.1,1.6,1.7,1.4-4.6,2.1-.7,1.2,5.9,1.9-.7,2.9,3.1,1.3,6.3-3.6,5.4-1.1.6-2.3-5.1.4-2.8-1.5-1-3.9,4-2.4Zm-226.3,31h3l.9-.8,3.1.2h0l-3.1-.2-.9.8Zm149.1-79.8.2-1.7-.2,1.7Zm26,38.3-1.1.9h0l1.1-.9,3.2-.6h0Zm-21.5,35.8-.7.1h0l.7-.1Zm3.5-9.8h0l-1-1.1,1-1.1-1.3-.7h0l1.3.7-1,1.1,1,1.1,1.8,2.6h0Zm9.1-70.6ZM217,175.5l-1.1-.4h0l1.1.4Zm13,7.1,3.6-.6,1-1.5h0l-1,1.5-3.6.6-1.6,1h0Zm-22.6-9h0l3.5-.9h0Zm-5.2.7h0L205,173h0Zm-13.4,6.8-.2,2.6h0l.2-2.6-.7-2.1.3-.8h0L186,177h0l2.4,1.2-.3.8Zm-5.1-3.8h0l-4-1.9h0Zm-12.1-.9,3.8,2.1h0l-3.8-2.1Zm3.7-13.2h0l-1.3-.7h0Zm-10.5,20.6,2.4.2,1.7,1.3h0l-1.7-1.3-2.4-.2Zm15.5,6.5h0l-2.4,1.5h0Zm4.4-.1.9-1.1,1.3-4-1.1-1.4h0l1.1,1.4-1.3,4-.9,1.1h0Zm3.4,9.2,2.3-.1h0l-2.3.1-1,1.4h0Zm10.3.9h0l-3.5.1h0Zm11.7-7.8,2.6-4.3,1.9-4.2,2.9-1.3h0l2-1.4h0l-2,1.4-2.9,1.3-1.9,4.2-2.6,4.3-3.9,1.2,3,2.4.8,2.1,3.2,1.4.7,2.6,3.1,1.9h0l-3.1-1.9-.7-2.6-3.2-1.4-.8-2.1-3-2.4Zm9.6,25.2h0l2.8,2.1.8,4.2h0l-.8-4.2Zm3.8-9.9,4,.9,7.6.4h0l-7.6-.4-4-.9ZM245,180.9l.2,0-.2,0Zm5.5,10.3.6.9,1.2.08-1.2-.08-.6-.9Zm2.6-29.9h0l-.3-3.1Zm-40.7-18.5h0l-8.8.1Zm-12.9,29.3h0l-1.9.9h0Zm-12.6-5.6h0l-.6,1.6-.2-.09.2.09Zm-3.2-1.4h0l-3.7-.5h0Zm-22.4,19.8h0l-4.4-.3h0Zm-5,1.4h0l-2.7-1.7h0Zm-4.1-1.4h0l-5.5-1.9h0Zm-7.9-9.3-2.4,4.2-.4,4.5h0l.4-4.5,2.4-4.2-4.8-.8Zm-4.1,9.8-2.3-.6h0l2.3.6ZM125.3,170h0l2.5-.5h0Zm6.9,2.4.4-3.5,1.3-.2.4-4.2h0l-2.8-1.5-3.1-2.7h0l3.1,2.7,2.8,1.5-1.1-6.5h0l1.1,6.5-.4,4.2,1,1.4-.2,2.7,2.4,1.6h0l-2.4-1.6.2-2.7-1-1.4-1.3.2-.4,3.5Zm11.2,23.2,2.7-2.2h0Zm16.8-7-.5,1.2h0l.5-1.2,4.9-1.1h0Zm17.8,8.2h0l1.8,1h0Zm17,16.5h0l-2.1-2.7-2.1-1.4-2.5-2.4-1.3-1.9-2.7-3,.8-2.6h0l-.8,2.6,2.7,3,1.3,1.9,2.5,2.4,2.1,1.4,2.1,2.7,4.8,2.4h0Zm12.6,2.7-1.4.6h0l1.4-.6.8-1.4h0l.4-.5-2.1-1.3-1.7-.7-.9-.9-1.4-1.1h0l1.4,1.1.9.9,1.7.7,2.1,1.3-.4.5,1.2-.4.5-2.1.9-.4h0l-.9.4-.5,2.1-1.2.4-.8,1.4,1.2,1.7,1.3.7.6,2.3.7.1h0l-.7-.1h0l-.6-2.3-1.3-.7Zm5.9,11.1h0l3.4-.5,1.8-1.4h0l-1.8,1.4Zm13.6-2.9h0l4-1.8h0Zm17.2-5.3-5,2,.3,3.2-4.6.6,4.6-.6-.3-3.2,5-2Zm5.3-20h0l2.3-1.1h0Z"/><polygon class="cls-1" points="152 223.7 153.5 218.8 152.4 213.4 149.2 215.8 148.3 218.2 149.6 222.4 152 223.7"/><polygon class="cls-1" points="286 264.1 285.5 264.2 285.3 264.1 285 264.2 285 264.5 285.3 264.8 285.7 264.6 286 264.6 286.4 264.7 286.1 264.3 286 264.1"/><polygon class="cls-1" points="283.5 264.5 283.2 264.3 282.9 264.5 282.9 263.9 282.6 263.5 282.3 263.5 282.1 263.8 281.7 263.6 281.4 263.5 281.1 263.7 280.7 263.6 280.1 264.1 279.5 264.1 279.4 263.9 278.9 263.7 278.8 263.3 278.6 263.3 278.4 263.5 278.2 263.4 277.9 263.5 277.8 263.8 277.6 264.1 277.2 264.2 276.7 263.9 276.6 264.2 276.8 264.5 277 265.2 277.3 265.5 277.6 266.1 278 266.4 278.5 266.5 279 266.7 279.5 266.7 279.9 266.4 280.2 266.7 280.4 266.7 280.7 266.6 280.9 266.9 281.2 266.5 281.7 266.4 282.1 266.5 282.7 266.2 282.9 266.1 283.4 265.9 283.6 265.7 283.9 265.7 284 265.5 284.1 264.9 284.3 264.7 284.3 264.6 283.6 264.4 283.5 264.5"/><polygon class="cls-1" points="74.1 99.6 73.8 99.6 73.4 99.4 73.1 99.4 73.3 99.7 73.5 99.9 73.7 100.3 74.3 100.7 74.4 100.5 74.2 100.2 74.2 99.8 74.1 99.6"/><polygon class="cls-1" points="74.6 98.6 74.7 98.2 74.5 98 73.7 97.8 73.4 97.7 73.6 98.1 74.1 98.2 74.5 98.7 74.6 98.6"/><polygon class="cls-1" points="71.6 96.9 72.2 97.1 72.4 96.9 72.8 96.9 72.8 96.6 72.5 96.6 72.42 96.44 72.5 96.5 73 96.5 73.2 96.7 73.3 96.9 73.5 97 73.7 97.2 74.2 97.6 74.3 97 74 96.8 73.7 96.3 73.1 96.1 73.1 96 72.8 95.5 72.3 95.4 72.1 96.2 72.36 96.39 71.8 96.3 71.7 96.4 71.2 96.5 71.4 96.8 71.6 96.9"/><polygon class="cls-1" points="76.2 95.4 75.9 95.6 76.1 95.8 76.2 95.4"/><polygon class="cls-1" points="74.9 96.5 74.9 96.3 74.3 96.1 74.2 95.9 74.3 95.7 73.7 95.3 73.4 95.3 73 95.4 72.9 95.5 73 95.8 73.3 96.1 73.7 96.3 74.5 96.8 74.9 96.5"/><polygon class="cls-1" points="75 95.9 75.3 95.9 75.6 96.1 75.9 95.7 75.4 95.5 75.2 95.1 75.1 95.2 75.2 95.6 75 95.9"/><polygon class="cls-1" points="75 95.7 74.9 95.4 74.7 95 74.6 95.3 74.8 95.7 75 95.7"/><polygon class="cls-1" points="181.4 258.6 181 258.3 180.4 258.3 180.5 258.4 180.5 258.9 181 259.2 181.5 259.4 181.7 259.1 181.6 258.8 181.4 258.6"/><polygon class="cls-1" points="180 257.6 179.6 257.7 179.6 257.9 180.1 258 180.4 257.9 180 257.6"/></g></g></g></svg>