<svg xmlns="http://www.w3.org/2000/svg" xmlns:xlink="http://www.w3.org/1999/xlink" viewBox="0 0 742 454.5"><defs><style>.cls-1{fill:url(#Naamloos_verloop_20);}.cls-2{fill:url(#Naamloos_verloop_20-2);}.cls-3{fill:url(#Naamloos_verloop_20-3);}.cls-4{fill:url(#Naamloos_verloop_20-4);}.cls-5{fill:url(#Naamloos_verloop_20-5);}.cls-6{fill:url(#Naamloos_verloop_20-6);}.cls-7{fill:url(#Naamloos_verloop_20-7);}.cls-8{fill:url(#Naamloos_verloop_20-8);}.cls-9{fill:url(#Naamloos_verloop_20-9);}.cls-10{fill:url(#Naamloos_verloop_20-10);}.cls-11{fill:url(#Naamloos_verloop_20-11);}.cls-12{fill:url(#Naamloos_verloop_20-12);}.cls-13{fill:url(#Naamloos_verloop_20-13);}.cls-14{fill:url(#Naamloos_verloop_20-14);}.cls-15{fill:url(#Naamloos_verloop_20-15);}.cls-16{fill:url(#Naamloos_verloop_20-16);}.cls-17{fill:url(#Naamloos_verloop_20-17);}.cls-18{fill:url(#Naamloos_verloop_20-18);}.cls-19{fill:url(#Naamloos_verloop_20-19);}.cls-20{fill:url(#Naamloos_verloop_20-20);}.cls-21{fill:url(#Naamloos_verloop_20-21);}.cls-22{fill:url(#Naamloos_verloop_20-22);}.cls-23{fill:url(#Naamloos_verloop_20-23);}.cls-24{fill:url(#Naamloos_verloop_20-24);}.cls-25{fill:url(#Naamloos_verloop_20-25);}.cls-26{fill:url(#Naamloos_verloop_20-26);}.cls-27{fill:url(#Naamloos_verloop_20-27);}.cls-28{fill:url(#Naamloos_verloop_20-28);}.cls-29{fill:url(#Naamloos_verloop_20-29);}.cls-30{fill:url(#Naamloos_verloop_20-30);}.cls-31{fill:url(#Naamloos_verloop_20-31);}.cls-32{fill:url(#Naamloos_verloop_20-32);}.cls-33{fill:url(#Naamloos_verloop_20-33);}.cls-34{fill:url(#Naamloos_verloop_20-34);}.cls-35{fill:url(#Naamloos_verloop_20-35);}.cls-36{fill:url(#Naamloos_verloop_20-36);}.cls-37{fill:url(#Naamloos_verloop_20-37);}.cls-38{fill:url(#Naamloos_verloop_20-38);}.cls-39{fill:url(#Naamloos_verloop_20-39);}.cls-40{fill:url(#Naamloos_verloop_20-40);}.cls-41{fill:url(#Naamloos_verloop_20-41);}.cls-42{fill:url(#Naamloos_verloop_20-42);}.cls-43{fill:url(#Naamloos_verloop_20-43);}.cls-44{fill:url(#Naamloos_verloop_20-44);}.cls-45{fill:url(#Naamloos_verloop_20-45);}.cls-46{fill:url(#Naamloos_verloop_20-46);}.cls-47{fill:url(#Naamloos_verloop_20-47);}.cls-48{fill:url(#Naamloos_verloop_20-48);}.cls-49{fill:url(#Naamloos_verloop_20-49);}.cls-50{fill:url(#Naamloos_verloop_20-50);}.cls-51{fill:url(#Naamloos_verloop_20-51);}.cls-52{fill:url(#Naamloos_verloop_20-52);}.cls-53{fill:url(#Naamloos_verloop_20-53);}.cls-54{fill:url(#Naamloos_verloop_20-54);}.cls-55{fill:url(#Naamloos_verloop_20-55);}.cls-56{fill:url(#Naamloos_verloop_20-56);}.cls-57{fill:url(#Naamloos_verloop_20-57);}.cls-58{fill:url(#Naamloos_verloop_20-58);}.cls-59{fill:url(#Naamloos_verloop_20-59);}.cls-60{fill:url(#Naamloos_verloop_20-60);}.cls-61{fill:url(#Naamloos_verloop_20-61);}.cls-62{fill:url(#Naamloos_verloop_20-62);}.cls-63{fill:url(#Naamloos_verloop_20-63);}.cls-64{fill:url(#Naamloos_verloop_20-64);}.cls-65{fill:url(#Naamloos_verloop_20-65);}.cls-66{fill:url(#Naamloos_verloop_20-66);}.cls-67{fill:url(#Naamloos_verloop_20-67);}.cls-68{fill:url(#Naamloos_verloop_20-68);}.cls-69{fill:url(#Naamloos_verloop_20-69);}.cls-70{fill:url(#Naamloos_verloop_20-70);}.cls-71{fill:url(#Naamloos_verloop_20-71);}.cls-72{fill:url(#Naamloos_verloop_20-72);}.cls-73{fill:url(#Naamloos_verloop_20-73);}.cls-74{fill:url(#Naamloos_verloop_20-74);}.cls-75{fill:url(#Naamloos_verloop_20-75);}.cls-76{fill:url(#Naamloos_verloop_20-76);}.cls-77{fill:url(#Naamloos_verloop_20-77);}.cls-78{fill:url(#Naamloos_verloop_20-78);}.cls-79{fill:url(#Naamloos_verloop_20-79);}.cls-80{fill:url(#Naamloos_verloop_20-80);}.cls-81{fill:url(#Naamloos_verloop_20-81);}.cls-82{fill:url(#Naamloos_verloop_20-82);}.cls-83{fill:url(#Naamloos_verloop_20-83);}.cls-84{fill:url(#Naamloos_verloop_20-84);}.cls-85{fill:url(#Naamloos_verloop_20-85);}.cls-86{fill:url(#Naamloos_verloop_20-86);}.cls-87{fill:url(#Naamloos_verloop_20-87);}.cls-88{fill:url(#Naamloos_verloop_20-88);}.cls-89{fill:url(#Naamloos_verloop_20-89);}.cls-90{fill:url(#Naamloos_verloop_20-90);}.cls-91{fill:url(#Naamloos_verloop_20-91);}</style><linearGradient id="Naamloos_verloop_20" x1="460.3" y1="202.95" x2="471.7" y2="202.95" gradientUnits="userSpaceOnUse"><stop offset="0" stop-color="#3174ec"/><stop offset="1" stop-color="#4181f3"/></linearGradient><linearGradient id="Naamloos_verloop_20-2" x1="466.3" y1="184" x2="478.3" y2="184" xlink:href="#Naamloos_verloop_20"/><linearGradient id="Naamloos_verloop_20-3" x1="153.8" y1="183.75" x2="170.3" y2="183.75" xlink:href="#Naamloos_verloop_20"/><linearGradient id="Naamloos_verloop_20-4" x1="487.5" y1="186.6" x2="520.7" y2="186.6" xlink:href="#Naamloos_verloop_20"/><linearGradient id="Naamloos_verloop_20-5" x1="145.9" y1="161.5" x2="155.7" y2="161.5" xlink:href="#Naamloos_verloop_20"/><linearGradient id="Naamloos_verloop_20-6" x1="427.2" y1="108.75" x2="432.6" y2="108.75" xlink:href="#Naamloos_verloop_20"/><linearGradient id="Naamloos_verloop_20-7" x1="412.7" y1="105.7" x2="423.7" y2="105.7" xlink:href="#Naamloos_verloop_20"/><linearGradient id="Naamloos_verloop_20-8" x1="402.6" y1="95.1" x2="434.4" y2="95.1" xlink:href="#Naamloos_verloop_20"/><linearGradient id="Naamloos_verloop_20-9" x1="459.8" y1="76.65" x2="470.9" y2="76.65" xlink:href="#Naamloos_verloop_20"/><linearGradient id="Naamloos_verloop_20-10" x1="374.6" y1="67.05" x2="390.2" y2="67.05" xlink:href="#Naamloos_verloop_20"/><linearGradient id="Naamloos_verloop_20-11" x1="0" y1="254.2" x2="516.3" y2="254.2" xlink:href="#Naamloos_verloop_20"/><linearGradient id="Naamloos_verloop_20-12" x1="305.7" y1="59.35" x2="372.7" y2="59.35" xlink:href="#Naamloos_verloop_20"/><linearGradient id="Naamloos_verloop_20-13" x1="366.9" y1="47.3" x2="376.2" y2="47.3" xlink:href="#Naamloos_verloop_20"/><linearGradient id="Naamloos_verloop_20-14" x1="468" y1="47.05" x2="484.8" y2="47.05" xlink:href="#Naamloos_verloop_20"/><linearGradient id="Naamloos_verloop_20-15" x1="422.6" y1="76.7" x2="522.9" y2="76.7" xlink:href="#Naamloos_verloop_20"/><linearGradient id="Naamloos_verloop_20-16" x1="379.2" y1="50.65" x2="405.8" y2="50.65" xlink:href="#Naamloos_verloop_20"/><linearGradient id="Naamloos_verloop_20-17" x1="405" y1="47.95" x2="432.9" y2="47.95" xlink:href="#Naamloos_verloop_20"/><linearGradient id="Naamloos_verloop_20-18" x1="282.5" y1="50.1" x2="333.6" y2="50.1" xlink:href="#Naamloos_verloop_20"/><linearGradient id="Naamloos_verloop_20-19" x1="414.1" y1="37.55" x2="426.9" y2="37.55" xlink:href="#Naamloos_verloop_20"/><linearGradient id="Naamloos_verloop_20-20" x1="396.1" y1="34.15" x2="418" y2="34.15" xlink:href="#Naamloos_verloop_20"/><linearGradient id="Naamloos_verloop_20-21" x1="336.2" y1="35.25" x2="385.7" y2="35.25" xlink:href="#Naamloos_verloop_20"/><linearGradient id="Naamloos_verloop_20-22" x1="423.1" y1="34.35" x2="480" y2="34.35" xlink:href="#Naamloos_verloop_20"/><linearGradient id="Naamloos_verloop_20-23" x1="322.9" y1="29.45" x2="358.4" y2="29.45" xlink:href="#Naamloos_verloop_20"/><linearGradient id="Naamloos_verloop_20-24" x1="431.2" y1="25.1" x2="440.7" y2="25.1" xlink:href="#Naamloos_verloop_20"/><linearGradient id="Naamloos_verloop_20-25" x1="368.7" y1="24.55" x2="383.9" y2="24.55" xlink:href="#Naamloos_verloop_20"/><linearGradient id="Naamloos_verloop_20-26" x1="376.9" y1="20.6" x2="388.6" y2="20.6" xlink:href="#Naamloos_verloop_20"/><linearGradient id="Naamloos_verloop_20-27" x1="427.2" y1="21.85" x2="438.4" y2="21.85" xlink:href="#Naamloos_verloop_20"/><linearGradient id="Naamloos_verloop_20-28" x1="403.4" y1="20.7" x2="421.7" y2="20.7" xlink:href="#Naamloos_verloop_20"/><linearGradient id="Naamloos_verloop_20-29" x1="443.9" y1="15.8" x2="478.4" y2="15.8" xlink:href="#Naamloos_verloop_20"/><linearGradient id="Naamloos_verloop_20-30" x1="450" y1="16.9" x2="575.5" y2="16.9" xlink:href="#Naamloos_verloop_20"/><linearGradient id="Naamloos_verloop_20-31" x1="517.3" y1="60.15" x2="742" y2="60.15" xlink:href="#Naamloos_verloop_20"/><linearGradient id="Naamloos_verloop_20-32" x1="64.9" y1="136.2" x2="79.7" y2="136.2" xlink:href="#Naamloos_verloop_20"/><linearGradient id="Naamloos_verloop_20-33" x1="31.8" y1="100.9" x2="44.5" y2="100.9" xlink:href="#Naamloos_verloop_20"/><linearGradient id="Naamloos_verloop_20-34" x1="434.2" y1="293.2" x2="435" y2="293.2" xlink:href="#Naamloos_verloop_20"/><linearGradient id="Naamloos_verloop_20-35" x1="382.4" y1="380.5" x2="402.7" y2="380.5" xlink:href="#Naamloos_verloop_20"/><linearGradient id="Naamloos_verloop_20-36" x1="368.2" y1="379.05" x2="384.6" y2="379.05" xlink:href="#Naamloos_verloop_20"/><linearGradient id="Naamloos_verloop_20-37" x1="346.5" y1="384.55" x2="358.2" y2="384.55" xlink:href="#Naamloos_verloop_20"/><linearGradient id="Naamloos_verloop_20-38" x1="312.4" y1="362.6" x2="371.1" y2="362.6" xlink:href="#Naamloos_verloop_20"/><linearGradient id="Naamloos_verloop_20-39" x1="389.6" y1="420.35" x2="390.6" y2="420.35" xlink:href="#Naamloos_verloop_20"/><linearGradient id="Naamloos_verloop_20-40" x1="431.7" y1="383.7" x2="432.3" y2="383.7" xlink:href="#Naamloos_verloop_20"/><linearGradient id="Naamloos_verloop_20-41" x1="437.7" y1="391.1" x2="439" y2="391.1" xlink:href="#Naamloos_verloop_20"/><linearGradient id="Naamloos_verloop_20-42" x1="438.2" y1="387.7" x2="438.9" y2="387.7" xlink:href="#Naamloos_verloop_20"/><linearGradient id="Naamloos_verloop_20-43" x1="374.3" y1="365.2" x2="378.4" y2="365.2" xlink:href="#Naamloos_verloop_20"/><linearGradient id="Naamloos_verloop_20-44" x1="378.1" y1="362.85" x2="379" y2="362.85" xlink:href="#Naamloos_verloop_20"/><linearGradient id="Naamloos_verloop_20-45" x1="378.3" y1="357.15" x2="380.5" y2="357.15" xlink:href="#Naamloos_verloop_20"/><linearGradient id="Naamloos_verloop_20-46" x1="372.5" y1="356.5" x2="374.8" y2="356.5" xlink:href="#Naamloos_verloop_20"/><linearGradient id="Naamloos_verloop_20-47" x1="372" y1="354.8" x2="373.8" y2="354.8" xlink:href="#Naamloos_verloop_20"/><linearGradient id="Naamloos_verloop_20-48" x1="363.4" y1="349.5" x2="364.9" y2="349.5" xlink:href="#Naamloos_verloop_20"/><linearGradient id="Naamloos_verloop_20-49" x1="367.3" y1="351.4" x2="369.4" y2="351.4" xlink:href="#Naamloos_verloop_20"/><linearGradient id="Naamloos_verloop_20-50" x1="369.6" y1="348.75" x2="370.3" y2="348.75" xlink:href="#Naamloos_verloop_20"/><linearGradient id="Naamloos_verloop_20-51" x1="361.7" y1="346.5" x2="362.1" y2="346.5" xlink:href="#Naamloos_verloop_20"/><linearGradient id="Naamloos_verloop_20-52" x1="371.8" y1="346.4" x2="372.6" y2="346.4" xlink:href="#Naamloos_verloop_20"/><linearGradient id="Naamloos_verloop_20-53" x1="353.3" y1="345.35" x2="354.1" y2="345.35" xlink:href="#Naamloos_verloop_20"/><linearGradient id="Naamloos_verloop_20-54" x1="353.4" y1="346.65" x2="355.4" y2="346.65" xlink:href="#Naamloos_verloop_20"/><linearGradient id="Naamloos_verloop_20-55" x1="365.8" y1="344.05" x2="367.9" y2="344.05" xlink:href="#Naamloos_verloop_20"/><linearGradient id="Naamloos_verloop_20-56" x1="356.2" y1="340.1" x2="357.8" y2="340.1" xlink:href="#Naamloos_verloop_20"/><linearGradient id="Naamloos_verloop_20-57" x1="350.9" y1="341.85" x2="354.9" y2="341.85" xlink:href="#Naamloos_verloop_20"/><linearGradient id="Naamloos_verloop_20-58" x1="360.9" y1="339.6" x2="364.2" y2="339.6" xlink:href="#Naamloos_verloop_20"/><linearGradient id="Naamloos_verloop_20-59" x1="350.2" y1="329.7" x2="356" y2="329.7" xlink:href="#Naamloos_verloop_20"/><linearGradient id="Naamloos_verloop_20-60" x1="356.4" y1="331.25" x2="360.5" y2="331.25" xlink:href="#Naamloos_verloop_20"/><linearGradient id="Naamloos_verloop_20-61" x1="432.8" y1="385.85" x2="433.1" y2="385.85" xlink:href="#Naamloos_verloop_20"/><linearGradient id="Naamloos_verloop_20-62" x1="448.5" y1="416.05" x2="449.7" y2="416.05" xlink:href="#Naamloos_verloop_20"/><linearGradient id="Naamloos_verloop_20-63" x1="394.5" y1="422.4" x2="396.8" y2="422.4" xlink:href="#Naamloos_verloop_20"/><linearGradient id="Naamloos_verloop_20-64" x1="330.2" y1="376.8" x2="331.9" y2="376.8" xlink:href="#Naamloos_verloop_20"/><linearGradient id="Naamloos_verloop_20-65" x1="337.8" y1="374.45" x2="338.5" y2="374.45" xlink:href="#Naamloos_verloop_20"/><linearGradient id="Naamloos_verloop_20-66" x1="339" y1="374.2" x2="339.8" y2="374.2" xlink:href="#Naamloos_verloop_20"/><linearGradient id="Naamloos_verloop_20-67" x1="439.2" y1="401.85" x2="440.4" y2="401.85" xlink:href="#Naamloos_verloop_20"/><linearGradient id="Naamloos_verloop_20-68" x1="436.2" y1="423.05" x2="437.1" y2="423.05" xlink:href="#Naamloos_verloop_20"/><linearGradient id="Naamloos_verloop_20-69" x1="433.6" y1="390.7" x2="434.1" y2="390.7" xlink:href="#Naamloos_verloop_20"/><linearGradient id="Naamloos_verloop_20-70" x1="432.4" y1="389.4" x2="433.3" y2="389.4" xlink:href="#Naamloos_verloop_20"/><linearGradient id="Naamloos_verloop_20-71" x1="440.7" y1="411.55" x2="441.8" y2="411.55" xlink:href="#Naamloos_verloop_20"/><linearGradient id="Naamloos_verloop_20-72" x1="431.5" y1="384.8" x2="432" y2="384.8" xlink:href="#Naamloos_verloop_20"/><linearGradient id="Naamloos_verloop_20-73" x1="435.6" y1="393.35" x2="436.1" y2="393.35" xlink:href="#Naamloos_verloop_20"/><linearGradient id="Naamloos_verloop_20-74" x1="404.5" y1="384.7" x2="405" y2="384.7" xlink:href="#Naamloos_verloop_20"/><linearGradient id="Naamloos_verloop_20-75" x1="417.7" y1="384.45" x2="419.4" y2="384.45" xlink:href="#Naamloos_verloop_20"/><linearGradient id="Naamloos_verloop_20-76" x1="408.4" y1="383.8" x2="417.7" y2="383.8" xlink:href="#Naamloos_verloop_20"/><linearGradient id="Naamloos_verloop_20-77" x1="385.2" y1="360.8" x2="386.4" y2="360.8" xlink:href="#Naamloos_verloop_20"/><linearGradient id="Naamloos_verloop_20-78" x1="382.4" y1="360.75" x2="383.6" y2="360.75" xlink:href="#Naamloos_verloop_20"/><linearGradient id="Naamloos_verloop_20-79" x1="384.3" y1="360.1" x2="384.9" y2="360.1" xlink:href="#Naamloos_verloop_20"/><linearGradient id="Naamloos_verloop_20-80" x1="439.3" y1="415.75" x2="440.2" y2="415.75" xlink:href="#Naamloos_verloop_20"/><linearGradient id="Naamloos_verloop_20-81" x1="422.9" y1="382.55" x2="423.8" y2="382.55" xlink:href="#Naamloos_verloop_20"/><linearGradient id="Naamloos_verloop_20-82" x1="421.3" y1="386.95" x2="422.5" y2="386.95" xlink:href="#Naamloos_verloop_20"/><linearGradient id="Naamloos_verloop_20-83" x1="422.2" y1="383.05" x2="422.9" y2="383.05" xlink:href="#Naamloos_verloop_20"/><linearGradient id="Naamloos_verloop_20-84" x1="420.9" y1="383.05" x2="421.9" y2="383.05" xlink:href="#Naamloos_verloop_20"/><linearGradient id="Naamloos_verloop_20-85" x1="398.7" y1="422.7" x2="400" y2="422.7" xlink:href="#Naamloos_verloop_20"/><linearGradient id="Naamloos_verloop_20-86" x1="431.8" y1="388.55" x2="432" y2="388.55" xlink:href="#Naamloos_verloop_20"/><linearGradient id="Naamloos_verloop_20-87" x1="430.4" y1="387.6" x2="430.6" y2="387.6" xlink:href="#Naamloos_verloop_20"/><linearGradient id="Naamloos_verloop_20-88" x1="440.3" y1="406.8" x2="442.5" y2="406.8" xlink:href="#Naamloos_verloop_20"/><linearGradient id="Naamloos_verloop_20-89" x1="440.2" y1="398.45" x2="441" y2="398.45" xlink:href="#Naamloos_verloop_20"/><linearGradient id="Naamloos_verloop_20-90" x1="437.8" y1="397.1" x2="439.2" y2="397.1" xlink:href="#Naamloos_verloop_20"/><linearGradient id="Naamloos_verloop_20-91" x1="439.2" y1="395.8" x2="441.2" y2="395.8" xlink:href="#Naamloos_verloop_20"/></defs><g id="Laag_2" data-name="Laag 2"><g id="Laag_1-2" data-name="Laag 1"><g id="Laag_2-2" data-name="Laag 2"><g id="World-map"><g id="North-America"><polygon class="cls-1" points="463.6 202.6 462.8 199.6 460.3 201.5 460.9 203.6 466.4 206.3 468.4 205.9 471.7 203.3 467 203.5 463.6 202.6"/><polygon class="cls-2" points="478 186.6 478.3 185.5 474.1 182.9 468.2 181.3 466.3 181.8 469.8 184.8 475.6 186.7 478 186.6"/><polygon class="cls-3" points="167 191.2 170.1 190.3 170.3 186.9 167.1 184.3 166.7 181.4 166.5 179.2 162.4 178.6 160 177.6 155.9 176.3 154.4 177.7 153.8 181.1 158.1 182.2 157.8 184 160.7 186.2 160.7 188.4 167 191.2"/><polygon class="cls-4" points="520.5 189.2 516.7 190.3 519.5 185.7 515.2 183.8 512.4 185.3 508.6 183.6 511 181.5 508.1 180.1 504.2 182.2 509.2 176.8 513 172.9 514.5 171.2 512.4 171 507.4 173.1 503.2 176.6 495 186.5 489.6 190.3 491.3 191.9 487.5 194.2 487.7 196 497.3 196.2 502.8 195.8 507.2 197.3 502.8 200.3 505.8 200.5 513.1 195.1 514.3 195.9 511.8 201 514.7 202.2 517.1 202 520.7 196.4 520.2 192.5 520.5 189.2"/><polygon class="cls-5" points="149.2 155.4 147.2 157.3 145.9 160 146.7 161.9 146.2 164.8 146.9 167.6 148.8 167.6 148.5 162.6 155.7 155.7 150.7 156.2 149.2 155.4"/><polygon class="cls-6" points="427.6 108.3 427.2 108.7 427.3 110.4 429 110.9 432.6 107.9 432.1 106.7 430.4 106.6 427.6 108.3"/><polygon class="cls-7" points="412.7 106.2 412.7 107.7 415.7 107.9 422.9 104.7 423.7 103.6 417.7 103.5 412.7 106.2"/><polygon class="cls-8" points="432.5 97 429 97.4 430.4 94.7 426.6 93 423.1 91 421.6 89.5 418.9 90.4 419.8 87.9 417 87.5 411.9 92.6 408.3 97.1 402.6 99.9 408.9 99.4 408.2 102.7 416.4 99.8 422.7 96.7 423.5 99.3 429.4 100.7 434.4 98.9 432.5 97"/><polygon class="cls-9" points="469.4 77.2 470.9 74.9 468.6 73.4 464.3 74.1 460.5 77.2 459.8 79.9 464.7 79.6 468.5 78 469.4 77.2"/><polygon class="cls-10" points="381.9 69.2 386.1 70.8 390.2 68.9 389.5 66.8 389.1 65.8 387.5 64.8 384.5 63.3 379.6 65.6 374.6 67.3 378 69.7 381.9 69.2"/><path class="cls-11" d="M480.3,199.7l-7.2,7.1-8.6.9-5.6-3.1-.1-4.8.6-6.7,6.1-4.2-3.3-3.1-7.6.6-12.3,5.2-10.9,8.3-4.7,1,7.9-5.8,10.1-8.2,7.4-2.8,5.7-4.5,5.3-.4h7.3l10.1,1.4,8.6-1.1,7.9-5,8.8-2.2,4.2-2.2,4.3-2.3,2-6.9-1.1-2.3-3.4-.8v-5.2l-2.4-1.9-6.9-1.6-2.9-3.4-4.8-3.4,3.4-3.8-2-7.2-2.6-7.5-1.1-5.3-4.2,2.7-7.5,6.6-8.2,3.3-1.6-3.5-3.8-1,2.3-7.4,2.6-4.9-7.7-.5-.2-2.2-3.6-3.4-3.1-2-4.5,1.6-4.2-.6-6.7-1.6-3.8,1.4-3.9,9-1,5.3-8.9,6.2,3.2,4.5.4,5.1-1.7,4-4.8,4.2-7.5,4.2-9,2.9,1.7,3.2-2.3,9.6-5.6,6.4-4.7,2-4.4-5.9-.1-6.9,1.7-6.1,3.6-5.2-4.8-.6-7.6-.4L379,146l-4.9-1.7-1.7-2.8-3.3-2.3-7-2.6-7.3,1.2.8-4.6,1.5-5.5-6-1,4.9-6.9,5-4.6,9.4-6.5,8.7-4.7,5.7-.7,2.9-3.8,5.1-2.4,6.5-.4,7.7-3.8,3-2.5,7.4-4.7,3.3-2.8,3.2,1.7,6.5-.9,10.9-3.9,2.4-2.7-.9-2.9,5.1-2.9,1.7-2.7L446,65.9l-5.4-.8-5.5-.4-4.7,5.9-6.5,4.8-7.3,3.9-1.3-3.7,4.3-4-2.2-3.5-8.9,4.2,4.4-5.5-6.7-1.1,5.8-2.6-.4-6-2-2.3-4.5-.9-8.2,3.8-5.5,5.9,2.9,2.2,1.6,3.3-6.4,5.5-3.2-.2-6.2,4.4,4.3-5.2-4.9-1.8-4.5.9-2.4,3.4-6-.1-7.2.9-5.3-2.5-5,.4-1.5-2.9-2.1-1.3-3.9.5-5.2.3-4.5,1.8,2.1,2.4-7.1,2.7L325.5,75l-4.4,1-11.9.6-6.4-1.1,8.5-2.7L308.4,70l-4.4.3-4.7-.9-7.5-2-3.9-2.2-4.6-.3-3.2,1.5-6,.9,3.9-4.1-9.5,3.7-1.4-4.8-2.1-.6L261.1,64l-4.5,1.3-.2-2.2-8.2,1.3-8.9,2.3-5.3-.6-7,1.7L220.7,70l-3.7-.5-3.3-2.6-6-1.3-3.5-.7-4.1-1.6-6.6.8-2.2-.6-7.2-.6-6.2-1.6-4.9.5-4.9-.9,1.9-1.2-6.3-.3-3.3,1,.5-2.4-4.4-1.1-10.4,2.8-3.1-.4-11.2,2.4-4.8.6-7.9,2.6-4.8,2.6-8.8,2.4-7.5.2L91.5,73l3.3,1.7.7,2.3-.8,2.8L97,81.9l-1.2,3.5-9.2.2,4.3-2.8H87.4L74.2,85.5,65,87.9l1,3.2-1.2,2.3,4.6,1.4,6.9-.7,1.8,1.3L81,94.1l6.2-1.2,2.8-.1L84,95l1.1,1-2.5,2.6L77,100.4l-2.5-.5-7.1,2.8-1.8-.9-4.1.4-5.3,2.9-7.7,3.3-5.9,3.3.4,2.5-4,3.3,1.3,1.4.6,2.8,7.2-1.2.4,2.1-3.3,2.2-3.7,3.5h2.8l7.3-2.3L50,128.9l3.6-2.1-.4,3,4.9-2.2.3,1.1,7.3-1.8-6.2,3.5-5.8,4.5L48,137l-2.3,1.2-10.4,3.6-5,2.5-6.5.6-8.6,3.3-6.6,1.9L.4,152.9,0,154l10-1.8,6.1-2,7-2.1,6.2-1.6,2.7.4,8.2-2.6,4.5-2.8,10.6-3.1,4-2.6,6.6-1.9,7.7-2.5,9-4.2-.2-2.9,11.2-4.2,7.4-3.9,9.4-3.2-.4,1.4-6.8,1.8L94.8,122l-3.2,3.5,6.4-1.3,6.2-2,6.6-1.2,2.9-.4,3.5-4.1,6.3-1.2,2.7,2.5,6,2.7,6.8-.5,5.7,2.1,3.3,1.1,3.3,6.1,3.8,1.8,7.1.1,4.1.4-2.7,5.6,1.6,4.9-3.3,5.2,2.5,2,.6,2.2-2.5,3.2,2.1,4.4-3.1,4.9,4.1,2.7-3.6,3.7-1.3,5.5,7,2.6,1.6,2.7,5.4,6.1h.7l-1.6,5.1-2.5,5.1-2.2,1.7,1-5.9-5.8-2.2-1.4,1.3-.4,2.9-1.8,5.3-4.3,8.5-8,11.4-5.5,6-1.1,4.9-2.8,5.4-3.9,5.3.9,3.5-1.8,5.2,1.5,5.4,1.3,2.1-.9,1.5.5,8.9,2.5,6.4-.8,3.5.9,1.1,4.8.6,1.2,1.7,2.9.4-.1,1.8,2.2.8,2.1,3.7-.3,3.2.2,5.8.8,5.1.6,4.3.8,4,2.6,1.7,2.9,4.6-1,2.9-2.7,2.4-2.1-.3-.5.4,2.2,3.8,3,1.5,1,1.7.9-.8,3.1,2.8,2.1,2,.1,3.5-1.2,4.7,2.5,1.6,3.4,3.1,2.9,3.7.7,3.9h1l2.8-2.3.3-1.2-1.5-2.9-1.6-2.9-2.6-.2.3-3.4-.9-3-1-2.8-.4-6-2.7-3.2-.5-2.3-1.3-1.6v-4.2l-1,.1-.1-2.2-.7-.4-.4-1.6-2.8-4.4-1-2.6,1-4.9.1-3,1.8-2.6,2.4,1.7,1.9-.3,3.1,2.6-.8,2.5.3,4.9,1.5,4.8-.3,2,1.7,3.2,2.3,3.3,2.8.6.2,4.4,2.5,3.2,2.4,1.5-1.7,3.9.7,1.6,4.1,2.6,1.9,4,4.6,5,3.8,6.4,1.3,3.3v2.5l1.5,2.9-.4,2.2-1.6,1.7.3,1.8-1.9.6.8,3.2,2.2,4,5.4,3.7,1.9,2.9,5.4,2,3.1.4,1.1,1.7,4.3,3.1,5.9,3,4.1.9,4.8,2.9,4.1,1.2,3.7,1.7,2.9-.6,4.8-2.4,3.2-.5,4.4,1.7,2.6,2.1,5.6,6.9,2.8,2.6,2.4,1.3,3.5.1,2.8,1.1L279,414l3,.4,2.2,1.3,2,.6,3.3.1.7-1.5,1.7.6.8,2-.5.4-.8-1-.7,1,2.5,2.9,2.2,2.1,1.1,2.1,2.5,2.6,1.8,2-1.4,1.3,1.5.9-.9,2-.1,2,.7,1.2,1.7.7,1.2,1.8,1.2-1.6-.2-1.8,1.4,1.1.3,1.9,1.8.8,2.2,1.3,1.5,1.5.1,1.4-.7,1.1,1.1,1.4,3,1.4.6,1,.2-1.4h2.4l1.5.7,2.3.5,1,2.5,1.8.4.8-1.1.8,3.9,2.7-.4.8-.9,1.6-.8-2.5-3.5.6-1.4,1.2-.2,2.4-1.6,1.3-2.2,2.4-.4,2.8,1.8.9,2.1,1.4.4-1.4,1.7,1,3.5,1.8,1.8.9-3.1,1.8.5,1.1-1.9-1.1-3.8.7-.9-2-1.8-1.8-1.9-2.4-1.2-3.1-.2.2-.6-3.1-.4-2,1.9-3.5,1.3-2.5,1.6-2.8.5-1.5-1.6-.6.6-2.2-.3.2-1.4-1.9-2.3-2.5-2.7-2-2.6-1.2-3.5-.8-1.1-.1-1.7,1.2-1.6-.2-1.7.7-2.8.9-.6.1-2.9-.2-1.7.5-2.8.8-2.6,1.5-2.2-.4-2.3.5-1.4.5-.7-1.3-1.7-1.9-1-1.5-1.4-1.6-1.2-.8-.2-2.5-.9-1.2.6-1.5.1-1.3-.4-1.7-.3-.8.7-1.8.7-2.6.2-2.6-.6-.9.3-.5-.5-1.6.1-1.3,1.1-.6-.3-1.5-.8-.6,1-1.7-1.2,1.3-2.2,1.1-.2,1.3-1.7,1-3.3-.3-.6.9-2.3-.4-1,1.3-2.7.3-1.8h-1l.1-1,1.1-.1,1.2,1.7,2.1-5,1.2-2.8-.9-1.1,1.8-3.9,3.5-3.8.6-3.1-1.2-1.4-3.4.6-4.9-.3-6.1,1.5-4,1.7-1.2,1.9-1.2,5.4-1.8,3.7-3.9,2.6-3.6,1.1-4.4,1.2-4.3.6-5.2,1.8-1.9-2.7-5.7-1.7-1.7-3.1-.8-3.7-3-4.8-.4-4.9-1.3-3.2-.4-3.5,1.1-3.1,1.8-8.6,1.8-4.6,3.2-5.7-.6-2.2.4-3,1-4.5,1.9-2.9,3.7-3,6.1-2.8,6.1-4.7,5-1.5,3.5-.5,3.6,1.5,4.9-.8,3.3,3.4,3.9.2,2.3-1.2,1.8.9,1.2-.8-.8-1.3.7-2.6-.6-1.7,2.5-1,4.3-.5,4.6.8,6.4-.9,3,1.6,2,3,.9.4,6.1-3,1.9,1,3.1,5.4.8,3.5-2,4.3.4,2.5,1.6,4.9,2,5.5,1.8,1.5.4,2.8,2.6.8,1.8-.8,2-3.9.6-2.5,1-4.4-1.3-7.4.5-2.8-1.5-4.5-.6-5.5v-4.5l1.9-4.5,3.5-3.8,3.8-3.1,6.9-4.2,1.3-2.1,3.4-2.4,2.8-.4,4.4-3.8,6.1-1.9,4.6-4.7,1-6.4V264l-1.4-.5,1.5-6.1-3-2,3.2,1v-4.1l1.9-2.8-1,5.4,2,2.4-2.9,4.4.4.2,4.5-5.1,2.4-2.5.6-2.4-1-1.1v-3.5l1.2,1.6,1.1.3-.1,1.7,5.3-4.9,2.5-4.6-1.4-.3,2.1-1.8-.4.8H402l7.9-1.9-1.1-1.2-8.1,1.2,5-1.9,3.1-.3,2.3-.3,4.2-1.1,2.5.1,3.8-1,1-1.8-1.1-1.4-.2,2.3-2.1-.2-.7-3.3,1.2-3.4,1.3-1.4,4-3.8,6-1.9,6-2.2,6.4-3-.2-2.1-2.2-3.6h0l2.2,3.6,5.9-.8,8.1-.2-10.4,5.3-1.5,5.3,3.7.5,7.2-4.6,5.8-2.5,12.4-3.8,7.4-4.1-2.5-2.3ZM313.8,184.9l-1.3,2.4,1.3-2.4ZM327,200.3l-5.7,1.3.5-.9,4.6-2.7,4.7-2.5,6.1-2,3.1-2.5,3.3-1,1.8-1.5,1.5-.8,4.1,1.2,3.3.2.8.8.1,3.6,5.2.9-1.7,1.8,1.2,1.8-1.9,2.4,1.8.8-1.9,2.1-1.5-.2-.3-1.8-5.1.5-5.1,1.4-2.5-2.4-2.5-.8,3.1-3.3-5.4,2.1-4.9,2.1-4.6,1.5Zm22.3,13.2.4-2.1-2.7,1.5-2.1,2.2-2.6,3.1-1.4,2.7.1,3.9-1.8,4.2-3.3,3.1-1.4.8-1.6.7-1.8.1-.3-.5-.1-3.3.6-1.7.8-1.5.6-3.1,2.5-3.6,2.9-4.4,4.7-4.9h-.7l-5.5,4.1-.4-.7,3-2.3,4.7-4.1,3.7-.6,4.5-1.2,3.7.7h.1l4.7-.6-1.5-2.5,1.4-.9.4,1.4,3.4.8h3.9l3.8.7,4,1.2.9,2,1.4,4.8-2.4,2.1-3.8-.9-1.1-3.9-.9,4-3.8,3.5-.9,3-1.1,1.8-4.1,2.1.7-2.6.5-3.7-1.6-.6-4.3,2.7h-1l.4-1.6,3.8-2.5,1.6-2.9.8-2.9-2.8-2.4-3.8-1.3-1.7,2.4-1.3.6Zm54.3-1.1-2.7,1.1-6.8,4.4.2.9-.6,2.5-4.6,2.1-4-.5-3.9-.3-2.7.8-.3,1.9-.1.6-5.8,3.8-4.6,1.8-3,.9-3.7,1.7-4,.9-2.5-.4-2.7-1.3,2.7-2.4h0l2.7.4,4.6-2,2.9-1.8,1.6-.3,2.6.6,1.7-1,2.8-.8,4.8-.7.3-1.9h-.3l-1.7.4-1.8-.7L377,221l1.9-.8,3.9-.9,4.7-.8,1.8,1.1,1.9-1.3,2-.9.9.4v.1l6.8-4.4,2.7-1.1,7.8-.1Zm40.3-13-1.6-1.8Z"/><polygon class="cls-12" points="372.7 64 367.7 61.4 363.5 58.8 365.9 55.1 368.6 50 366.4 47.9 363.4 47.1 359.1 47.9 356.3 53.2 352 55.3 354.2 50.2 352.4 48.5 345.1 51.2 342.5 48.6 332 50.1 336.7 47.7 333.9 46.7 319.7 49.8 314.5 51.9 306.7 55.8 312.1 57.2 318.4 57.1 306.7 59.3 306.7 61.2 312.4 61.3 321.5 60.9 328 62.1 321.8 63.1 316.3 62.8 309 63.7 305.7 64.3 306.3 68.6 310.6 68 314.7 69.4 314.4 72 322.3 71.5 333.6 70.7 343.1 68.8 348.2 68.5 353.9 70 360.6 70.8 363.8 68.8 363 66.8 370.1 66.3 372.7 64"/><polygon class="cls-13" points="374.5 45 369 45.2 366.9 46 369.2 49.6 376.2 46.2 374.5 45"/><polygon class="cls-14" points="471.9 44.4 469.7 44.8 468 46.6 470.1 49.3 471 49.7 475.9 49 480 49.1 484.1 49.2 484.8 47.8 480.3 45 471.9 44.4"/><polygon class="cls-15" points="513.1 75.8 507.2 74.6 499.5 71 508.6 68.5 507.7 63.4 505.5 61.3 497.1 59.2 495.2 55.8 487 57 488.1 54.7 484.4 52.2 477.6 49.6 472.3 51.7 463.3 53.2 466.5 49.8 464.2 44.5 452.5 46.6 445.3 50.7 445 47.5 450.8 44.2 439.6 45.6 433.6 47.7 426.5 52.3 423.2 57.6 428.9 57.6 422.6 60 424.5 61.9 430.4 62.7 437.8 64.3 451.8 65.5 459.7 64.8 463 63.2 464.9 65 468.3 65.3 470.3 68.7 466.8 70.1 473.9 71.9 478.6 74.6 479.1 76.4 478.7 78.9 469.9 84.3 466.8 87.1 467 89.1 457.7 89.8 449.6 89.9 444.2 94.1 446.6 96 459.7 95.1 460.6 93.5 465.3 96.2 470.1 99.1 467.7 100.8 471.5 103.5 479.1 106.9 490 109.2 490.3 107.2 487.5 103.7 483.9 98.8 492.5 103.3 497.2 104.9 500.8 100.8 500.9 95.1 499.9 93.6 495.4 91 492.7 87.8 495 84.5 500.9 83.8 504.7 89.2 508.7 91.6 519.6 85.1 522.9 81.2 516.4 80.8 513.1 75.8"/><polygon class="cls-16" points="388.3 49.8 380.9 49.2 379.2 50.9 385.1 54.9 386 56.9 389.4 57.3 397.8 55.3 403 50.6 399.2 48.4 405.3 45.9 405.8 44.4 398.2 45.1 394.6 44 387.4 46.5 388.3 49.8"/><polygon class="cls-17" points="409.4 46.1 406.8 48.6 405 53.2 409.4 53.4 417.2 49.5 422.8 48.5 432.9 43.9 426.7 42.7 418.8 42.5 413.6 43.9 409.4 46.1"/><polygon class="cls-18" points="287.9 59.3 301.4 56.7 304 54.5 313.2 50.8 327.1 47.2 333.6 45.9 332 43.7 330.1 42.3 320.6 42 316.4 40.9 302.4 41.7 302 44.8 294.4 48.2 286.9 52 282.5 54.2 288.5 57 287.9 59.3"/><polygon class="cls-19" points="426.6 38.3 426.9 36.7 425.5 34.9 418.6 36.3 414.1 38.5 417.3 39.8 422.5 40.2 426.6 38.3"/><polygon class="cls-20" points="399.3 37.9 402.5 38.7 409.4 38.2 415.2 34.4 418 31.9 417.8 29.6 416.8 30.3 411.9 30 404.2 31.7 400.4 31.5 396.1 35.3 402.7 35 399.3 37.9"/><polygon class="cls-21" points="347.9 32.2 336.2 37 340.4 37.9 358.3 37.3 347.6 39.6 346.1 41.2 352.1 41.1 364.4 38.9 378.3 38.1 383.4 35.8 385.7 33.3 382.1 33.1 377.7 33.9 378.4 32.2 380.2 29.8 377.1 29.3 371.3 31.1 370.6 35.8 364.5 35.4 361.6 32.5 353.3 30.8 347.9 32.2"/><polygon class="cls-22" points="432.7 31.6 434.1 33.8 432 36.2 430.4 39 439 40.6 444.6 41.2 452.6 41.1 464.4 40.3 468.7 41 475.4 39.9 479 38.5 480 36.5 477.7 34.6 471.9 34.2 463.8 34.7 456.7 35.7 451.6 35.3 446.7 35.1 445.5 33.9 442.4 32.8 445.2 31 443.8 29.4 436.4 29.4 434.1 27.8 426.9 27.5 423.1 29.5 425.7 31 432.7 31.6"/><polygon class="cls-23" points="333.6 32.9 343.5 30.8 347.3 30.6 352.6 28.9 358.4 25.2 352.3 25.9 346.8 25.8 334.6 28.9 322.9 32.6 326.5 33.7 333.6 32.9"/><polygon class="cls-24" points="431.2 25.6 437.8 25.9 439.6 25.8 440.7 25.2 439.1 24.4 431.9 24.3 431.2 25.6"/><polygon class="cls-25" points="380.8 24.9 383.9 23.5 379.8 22.8 373.8 23.3 368.7 24.8 372 26.3 380.8 24.9"/><polygon class="cls-26" points="388.6 20.7 385.3 19.8 383.6 19.6 377.9 20.9 376.9 21.6 382.9 21.6 388.6 20.7"/><polygon class="cls-27" points="435.4 23.2 438.4 21.6 436.1 20 434.4 19.7 430 19.5 427.8 21.4 427.2 23.1 428.8 24.2 435.4 23.2"/><polygon class="cls-28" points="411.2 21.9 415.2 23.4 420.5 23.9 421.6 22 421.7 19.8 414.2 18.1 408.1 17.5 405.9 19.3 408.7 20.4 403.4 21.7 411.2 21.9"/><polygon class="cls-29" points="452.5 17.2 448.2 18.4 446.1 20 447.7 21.9 454.5 22.5 461.3 22.2 471.9 18.7 478.4 17.4 475.7 15.9 476.4 13.1 471.6 12.2 466.9 11.3 465.3 9.1 457 9.3 457.3 10.3 453.3 10.6 449.2 11.9 444.3 13.8 443.9 15.7 445.9 17.2 452.5 17.2"/><polygon class="cls-30" points="473.7 10.8 478.1 12.2 490.7 11.9 498 12.4 490.7 14 488.5 13.5 479.1 13.4 478 15.6 481 17.3 478.2 18.9 470.6 20 465.6 21.8 470.5 22.7 472.2 25.7 464.7 23.7 462.1 24 460.1 27.4 452.1 28.5 450 30.8 456.8 31.1 461.8 31.7 473.5 30.9 482 32.3 494.7 29.4 495.8 28.2 489.3 28.4 489.8 27.3 496.4 25.8 499.9 24 506.8 22.7 511.8 21.1 511.1 18.8 514.4 18 510 17.4 521.3 17 524.4 16 532.5 15.3 541.8 11.8 548.6 10.6 559.1 8.1 551.6 8.1 555.6 7.2 564.6 6.4 574.4 4.7 575.5 3.7 570.3 2.7 563.6 2.2 554.9 1.9 547.9 1.7 540.9 1.5 530.6 2.1 529.3 1.7 518.9 1.9 512.4 2.3 507.2 2.9 502.2 4.9 499.8 3.8 495.9 3.6 489.1 5.1 481.7 5.7 477.5 5.8 471.5 6.6 470.4 7.9 472.9 9.1 473.7 10.8"/><polygon class="cls-31" points="740.3 7.3 730.3 6.5 713.2 8 704 9.6 708.5 7.2 706.1 5.8 699.1 7 689.4 5.6 677.1 6.1 675.7 5.4 694.2 5 707.2 4.8 713.9 3.4 694 0.4 694 0.4 667.7 0 655.8 0.3 650.7 1.7 639.1 1.5 626.4 3.7 624.8 5.4 631.5 7.5 625.3 6.2 620.7 5.9 613.6 4.4 603 6.6 600.2 5.4 589.8 5.4 578.8 6 569.8 7.1 569.6 8.9 564.2 9.3 549.5 12.2 544.9 13.9 553 15.5 550.2 17.1 535.2 19.3 519.5 21.5 517.3 23.3 523.8 25.2 538.4 26.5 530.8 26.7 519.8 28.2 523.6 31.3 526.7 32.9 536.2 32.5 546.3 32.3 554 32.7 562.1 35.6 560.7 37.7 564.3 39.6 565.7 45 566.8 48.5 568.1 50.5 561.1 55.3 563.7 56.6 568.1 55.9 570.8 57.7 576.1 61.1 568.5 59.6 564.7 59.7 561.7 62.5 560.2 66.2 564.4 67.9 568.5 67.2 571.1 66.4 576.6 64.5 573.8 68.7 571.2 70.9 564 73 557 79.4 558.9 81.4 555.6 85.5 559.3 90.6 557.8 95.7 558.5 99.4 563.3 106.6 564.1 112.2 567.3 115.4 576.3 115.5 581.3 120.3 587.8 119.9 591.9 114.2 595.5 109.4 595.2 104.9 603.8 100.3 607.2 96.5 608.6 92.5 613.4 89.1 620 87.7 626.1 86.4 629.1 86.1 639.3 82.2 646.8 76.4 651.7 74.3 656.3 74.2 669 72.4 681.2 68.1 693.1 63.4 687.6 63.1 676.9 62.9 682.3 60.1 681.8 56.5 686 59.5 688.7 61.6 696.1 60.6 695.5 56.3 690.9 53.1 685.9 51.8 688.3 50.4 695.6 52.6 696.1 50.2 691.9 46.8 697.4 46.7 703.1 45.9 704.7 44.1 700.7 42.1 709.4 41.7 705.3 37.4 709.5 36.9 709.6 32.7 703.3 30.1 709.8 28.5 715.7 28.4 712 25.2 713.2 20 716.8 17.1 721.7 13.9 713.6 13.7 725 12.9 727.2 11.9 742 9 740.3 7.3"/><polygon class="cls-32" points="73.6 133.4 67.2 135.5 64.9 138.3 65.7 139.9 72.7 137.6 79.7 134.8 79.7 132.9 77.1 132.5 73.6 133.4"/><polygon class="cls-33" points="36.4 100.9 36.7 101.9 38.4 103.2 43.3 102 44.5 101.3 41.2 100.6 39.6 99.1 36.1 99.6 34.9 98.6 31.8 100.7 32.1 101.2 36.4 100.9"/><polygon class="cls-34" points="434.6 293 434.5 293.3 434.4 293.3 434.2 293.4 434.3 293.5 434.7 293.3 434.6 293.1 434.7 293 435 293 434.9 292.9 434.6 293"/><polygon class="cls-35" points="397.7 378.7 398.1 376.8 395 377 394.3 374.7 392.8 374.8 389.6 373.2 385.3 373.2 384.5 374.3 384.6 377.7 383.9 380.2 382.4 381.3 383.7 383.2 383.4 385 383.4 385 383.5 386.8 384.8 387.8 387.5 383.4 389.4 382.5 390.1 384.1 392.3 383.7 393.4 382.5 395.2 382.8 397.8 382.5 400.4 383.9 402.7 381.3 400.2 379 397.7 378.7"/><polygon class="cls-36" points="382.4 381.3 383.9 380.2 384.6 377.7 384.5 374.3 379.8 373.2 376.4 373 374.9 374.7 378.4 375.7 378 378.2 380.3 381 378.1 382.4 374 381.9 368.9 381 368.2 383.1 371 385.1 373.7 383.9 377.1 384.3 379.8 383.9 383.4 385 383.7 383.2 382.4 381.3"/><polygon class="cls-37" points="354.7 382.7 351 382.1 349.7 381.9 347.3 382.3 346.5 383.8 349.4 386.1 352.4 387.2 354.2 386.1 354.2 386.1 358.2 386 357.4 384.2 354.7 382.7"/><polygon class="cls-38" points="371.1 370.6 367.2 368 363.2 367.7 363.8 365.9 360.6 364.6 358.8 364.7 355.6 361.8 351.4 357.8 349.6 356.3 344.4 357 342.5 354.7 337.6 352.5 333.2 352.4 328.5 351.9 327.1 352.7 322.8 353.3 319.8 354.5 317.1 355.9 315.6 358.3 312.4 360.2 314.7 360.9 317.5 360.2 318.5 358.6 320.8 358.5 325.2 355.2 330.6 355.5 328.3 357.1 330.1 358.3 337.2 359.3 338.7 360.7 343.7 362.4 346.9 362.2 347.7 365.8 349.4 367.7 353 368.1 355.1 369.8 350.9 373.3 359 372.7 362.7 373.2 366.5 372.9 370.3 372.1 371.1 370.6"/><polygon class="cls-39" points="389.9 420 389.7 419.7 389.6 420.3 390.1 420.8 390.6 421 390.6 421 390.6 420.9 390.3 420.4 389.9 420"/><polygon class="cls-40" points="431.7 383.9 431.9 383.9 432.1 383.8 432.3 383.5 432 383.5 431.7 383.9"/><polygon class="cls-41" points="438 390.9 437.7 391 437.7 391.5 437.9 391.6 438.6 391.5 438.8 391.5 439 391.2 438.4 390.9 438.3 390.6 438.1 390.6 438 390.9"/><polygon class="cls-42" points="438.6 388.2 438.8 388.1 438.9 387.8 438.8 387.4 438.6 387.2 438.4 387.2 438.2 387.3 438.2 387.8 438.5 388 438.6 388.2"/><polygon class="cls-43" points="377.4 364.9 376.9 365.1 376.4 364.9 376.2 364.6 375.9 364.8 375.5 364.8 375.2 365.2 374.8 365.4 374.6 365.7 374.3 365.9 374.4 366.4 374.8 366.3 375.4 366.5 375.9 366.4 376.3 366.2 376.4 366.3 376.9 366.3 377.5 366 377.7 365.5 378.1 365 378.4 364.1 378.4 363.9 378.1 363.9 377.4 364.9"/><polygon class="cls-44" points="378.3 363.3 378.7 363 379 362.9 379 362.7 378.7 362.4 378.1 362.7 378.3 363.3"/><polygon class="cls-45" points="379.3 357.2 379.4 357.3 379.8 357.3 380.3 357.7 380.5 357.6 380.5 357.3 380.2 357.1 379.8 357 379.4 357 378.9 356.7 378.7 356.8 378.5 356.6 378.3 357.1 378.3 357.2 378.8 357.4 379.3 357.2"/><polygon class="cls-46" points="374.1 355.1 373.7 355.6 373.9 355.8 374.3 355.8 374.5 356.1 374.2 356.5 373.8 356.6 373.6 357 373.2 357.1 373.2 357.3 373 357.5 372.6 357.6 372.5 357.8 372.7 358 372.8 357.8 373.5 357.5 373.9 357.2 374.1 356.8 374.5 356.5 374.6 356.1 374.6 355.4 374.8 355 374.2 355 374.1 355.1"/><polygon class="cls-47" points="373 354.8 372.9 354.7 372.7 354.3 372.3 354.2 372 354.3 372.3 354.9 372.7 355.1 373.1 355.2 373.3 355.2 373.4 355.4 373.8 355 373.4 354.8 373 354.8"/><polygon class="cls-48" points="363.4 348.9 363.6 349.3 363.8 349.4 364.2 349.8 364.5 349.9 364.6 350.1 364.9 350.2 364.6 349.7 364.3 349.5 363.7 348.8 363.4 348.9"/><polygon class="cls-49" points="368.1 350.5 367.9 350.3 367.9 349.9 367.7 349.4 367.4 348.8 367.3 349.5 367.5 349.4 367.6 350 367.9 350.4 367.8 350.5 368.1 350.9 368.2 351.4 368 351.7 368 352 368.3 352.3 368.1 352.5 368.7 352.7 369 353.1 369 353.3 369.4 354 369.4 353.2 369 352.6 368.5 352.4 368.3 352.1 368.3 351.2 368.1 350.5"/><polygon class="cls-50" points="370.3 348.8 370.2 348.5 369.6 348.7 369.7 348.9 370 349 370.3 348.8"/><polygon class="cls-51" points="361.7 346.1 362 346.8 362.1 346.9 361.9 346.1 361.7 346.1"/><polygon class="cls-52" points="372.1 346.1 372 346.7 371.8 347 372.2 347 372.6 346.4 372.6 346.2 372.5 345.8 372.1 346.1"/><polygon class="cls-53" points="353.8 345.3 354.1 345.2 353.9 345.1 353.3 345.5 353.6 345.6 353.8 345.3"/><polygon class="cls-54" points="355.4 345.9 355.2 345.3 355 345.4 354.9 345.9 354.7 346.1 354.3 345.9 354.5 345.6 355 345.2 354.9 344.8 354.3 345.1 354.2 345.3 353.9 345.4 353.8 345.7 353.4 345.9 353.4 346.1 353.8 346.6 353.7 346.8 353.7 347.5 353.9 347.7 354.1 347.6 354.5 347.6 354.1 347.9 354.3 348.1 354.9 347.7 355 347.8 354.6 348 354.4 348.3 354.8 348.5 355 348.4 355.4 347.6 355.4 347.3 355.3 346.7 355.4 346.4 355.4 345.9"/><polygon class="cls-55" points="366.1 342.2 365.8 342.5 366.3 343 366.3 343.2 366.7 343.6 366.8 344.2 367 344.8 367.4 345 367.4 345.2 367 345.5 366.7 345.7 366.8 345.9 367.2 345.8 367.7 345.7 367.9 345.8 367.8 345.3 367.6 345 367.5 344.7 367.1 344.4 366.8 343.9 366.7 343.4 366.5 343.1 366.5 342.6 366.1 342.2"/><polygon class="cls-56" points="356.2 340.3 356.7 340.4 356.9 340.2 357.2 340.3 357.8 340 357.5 339.8 356.8 339.8 356.4 340 356.2 340.3"/><polygon class="cls-57" points="353 344.7 353.3 344.5 353.6 344.5 353.9 344.3 354.3 343.9 354.6 343.8 354.8 343.5 354.7 342.9 354.9 342.2 354.5 341.7 354.3 341.4 354.1 340.5 353.8 340.2 354 339.8 353.9 339.6 354 339.4 353.7 339.1 353.3 339.3 353.1 339 352.8 339 352.7 339.1 352.9 339.8 352.9 340.3 352.6 340.7 352.7 340.8 352.5 341.2 351.9 341.8 351.8 342.1 351.9 342.4 352.2 342.5 352.1 343.1 351.6 342.4 350.9 342.7 351.1 343 351.4 343.3 352 343.7 352.2 343.8 352.5 343.5 352.4 344.1 352.7 344.3 352.7 344.7 353 344.7"/><polygon class="cls-58" points="363.4 338.6 363.2 338.2 363.1 338.1 362.6 338 361.8 337.3 361.5 336.9 361.4 336.7 361.3 336.7 360.9 337.6 361.3 337.4 361.9 337.6 362.2 337.9 362.8 338.2 363.1 338.4 363.5 339.1 364 339.5 364 339.8 363.9 340.3 363.6 340.7 363.5 341.1 363.6 341.3 363.4 341.5 362.9 341.4 362.8 341.6 363.2 341.9 363.4 342.5 363.5 342.4 363.6 341.7 363.8 341.4 363.9 340.9 363.9 340.6 364 340.4 364.2 339.6 364.2 339.4 363.7 339 363.4 338.6"/><polygon class="cls-59" points="351.4 330.2 350.9 330.2 350.8 330 350.2 329.7 350.7 330.3 351 330.6 351.2 330.7 351.6 330.7 352.3 330.3 353.8 329.9 354.1 329.9 355.2 329.7 355.6 329.7 355.9 329.7 356 329.5 355.9 329 355.6 329.2 355.2 329.2 354.8 329.4 354.3 329.4 354.1 329.3 353.9 329.5 353.2 329.4 353.1 329.4 352.6 329.2 352.3 328.7 352.2 329 352 329.3 352.3 329.4 351.9 330 351.4 330.2"/><polygon class="cls-60" points="360.5 330.5 359.8 330 359.4 329.9 359.2 329.3 358.3 328.3 357.9 328 357.7 328.1 356.9 327.9 356.4 327.9 357 328.3 357.3 328.3 357.8 328.4 358.1 328.3 358.3 328.4 358.6 329.1 358.6 329.4 359 329.6 359 329.8 359.1 330.1 359.6 330.2 359.9 330.3 359.8 330.6 359.6 330.9 359.4 331 359.4 331.6 359.2 331.9 359.2 332.2 359 332.6 359.1 333 358.6 333.4 358.4 333.4 358.1 333.9 358.5 334 358.6 334.4 358.9 334.6 359.1 334.4 359.2 333.5 359.5 332.5 359.6 332.3 360.1 331.9 360.5 331.9 360.3 331.2 360.5 330.7 360.5 330.5"/><polygon class="cls-61" points="432.8 385.7 432.9 386 433.1 385.8 432.8 385.7"/><polygon class="cls-62" points="449.1 415.9 448.9 415.3 448.7 415.1 448.5 415.5 448.5 416.3 448.6 416.8 449.2 417 449.2 417 449.7 416.6 449.6 416.2 449.1 415.9"/><polygon class="cls-63" points="396.3 422.7 395.6 422.5 395.2 422.1 395.1 421.6 394.6 421.3 394.5 421.8 394.8 422.1 395 422.5 395.3 422.6 395.4 422.8 395.7 423.1 396 423.2 396.4 423.5 396.7 423.5 396.7 423.5 396.8 423.4 396.5 423 396.3 422.7"/><polygon class="cls-64" points="330.9 376.5 330.7 376.9 330.4 376.8 330.2 377.1 330.9 377.1 331.1 377 331.5 376.9 331.7 377 331.9 376.8 331.8 376.6 331.3 376.6 330.9 376.5"/><polygon class="cls-65" points="338.5 374.3 338 374.3 337.8 374.6 338.5 374.3"/><polygon class="cls-66" points="339.6 374.3 339.8 374 339 374.3 339.1 374.4 339.6 374.3"/><polygon class="cls-67" points="440.4 401.9 440.4 401.3 440.2 400.8 439.7 400.7 439.5 400.5 439.3 400.5 439.3 400.8 439.2 401.1 439.2 401.4 439.5 401.9 439.6 402.6 439.7 402.8 439.6 403.2 440 403 440.2 402.9 440.3 402.7 440.4 401.9"/><polygon class="cls-68" points="436.7 422.3 436.4 422.7 436.2 423.2 436.3 423.7 436.5 423.8 436.9 423.5 437 423.3 437.1 422.6 437 422.3 436.7 422.3"/><polygon class="cls-69" points="433.8 390.4 433.6 390.8 433.7 391 434 391 434.1 390.6 434 390.4 433.8 390.4"/><polygon class="cls-70" points="432.7 389 432.4 389.4 432.6 389.6 433 389.8 433.2 389.8 433.3 389.5 433.2 389.4 432.7 389"/><polygon class="cls-71" points="440.8 411.4 440.7 411.6 440.7 412.2 440.8 412.4 441.2 412.6 441.4 412.8 441.4 412.8 441.6 412.4 441.7 412 441.8 411.2 441.8 410.5 441.5 410.3 440.8 411.4"/><polygon class="cls-72" points="431.5 384.9 431.5 385 431.9 385.1 431.9 385 432 384.5 431.7 384.6 431.5 384.9"/><polygon class="cls-73" points="435.6 393.4 435.7 393.7 435.9 393.8 436.1 393.6 436.1 393.3 435.9 392.9 435.6 393.4"/><polygon class="cls-74" points="404.6 384.5 404.5 384.7 404.8 384.9 405 384.6 404.9 384.5 404.6 384.5"/><polygon class="cls-75" points="418.7 384.2 418.3 384.3 417.9 384.5 417.7 384.7 418.3 384.7 419.2 384.4 419.4 384.4 419.3 384.3 418.7 384.2"/><polygon class="cls-76" points="417.5 383.5 417.6 382.8 417.4 382.9 416.8 382.6 416.6 382.6 416.4 382.4 415.6 382.3 415.5 382.4 414.9 382.2 414.9 382.4 414.1 382.2 413.8 382.2 413.4 382.1 412.9 382.2 412.7 382.1 412.3 382.2 412 382.1 411.4 382.2 411.1 382.1 410.5 382.1 409.9 382 409.4 381.9 409 382.1 409 382.6 408.8 382.7 408.4 382.9 408.5 383.3 408.7 383.4 408.9 384 408.7 384.4 408.7 384.8 408.4 385.5 409 385.6 409.3 385.4 409.7 385.5 409.9 385.7 410.1 385.6 410.7 385.5 411 385.4 411.9 385.5 412.6 385.3 412.9 385.6 413.4 385.4 413.6 385.6 414.3 385.7 414.6 385.5 415.2 385.4 415.6 385.4 415.9 385.3 416.2 385.1 416.5 384.5 416.8 384.1 417.7 383.8 417.5 383.5"/><polygon class="cls-77" points="386.1 361 386.4 361 386.1 360.6 385.4 360.6 385.2 360.7 385.3 361 385.8 360.9 386.1 361"/><polygon class="cls-78" points="383.6 360.8 383 360.9 382.7 360.5 382.4 360.8 382.8 361 383.4 361 383.6 360.8"/><polygon class="cls-79" points="384.9 359.9 384.4 359.8 384.3 359.9 384.4 360.2 384.9 360.4 384.9 359.9"/><polygon class="cls-80" points="439.7 415 439.5 415.5 439.3 415.8 439.3 416.2 439.8 416.5 439.9 416.4 439.9 416.4 440.1 416.2 440.2 415.4 440.1 415 439.7 415"/><polygon class="cls-81" points="423 382.4 422.9 382.7 423 382.8 423.3 382.6 423.4 382.6 423.8 382.4 423.6 382.3 423 382.4"/><polygon class="cls-82" points="422 386.6 421.3 386.8 421.4 387.3 422.5 387.1 422.2 386.8 422 386.6"/><polygon class="cls-83" points="422.2 383 422.2 383.2 422.7 383.2 422.9 383 422.5 382.9 422.2 383"/><polygon class="cls-84" points="421.7 383.3 421.9 383.1 421.5 382.8 421.1 382.9 420.9 383.1 421.4 383.1 421.7 383.3"/><polygon class="cls-85" points="398.7 422.1 399 422.4 399.4 422.5 399.5 422.8 399.4 423.1 399.5 423.6 399.7 423.6 399.7 423.2 399.9 423 399.9 422.6 400 422.4 398.8 421.8 398.7 422.1"/><polygon class="cls-86" points="431.9 388.4 431.8 388.5 431.8 388.7 432 388.6 432 388.6 431.9 388.4"/><polygon class="cls-87" points="430.4 387.7 430.5 387.7 430.6 387.6 430.5 387.5 430.4 387.7"/><polygon class="cls-88" points="442.1 406.9 442.1 406.7 441.9 406.5 442.1 406 441.7 406.1 441.7 405.9 441.5 405.7 441 405.4 440.6 405.3 440.3 405.7 440.5 406.2 440.6 406.7 441 407.1 441.4 407.1 440.8 407.6 441 407.9 441.4 407.9 442 408 442.1 407.9 442.2 408.3 442.5 408 442.3 407.1 442.1 406.9"/><polygon class="cls-89" points="440.3 398.3 440.2 398.5 440.4 398.9 440.7 398.9 441 398.7 441 398.5 440.9 398.2 440.6 398 440.3 398.3"/><polygon class="cls-90" points="438.9 396.3 438.8 396.1 438.3 395.8 438 395.9 437.8 396.2 437.8 396.5 437.9 397 437.9 397.5 438 398 438.2 398.2 438.2 398.4 438.8 398.1 439 397.9 439 397.5 439 396.7 439.2 396.6 439.2 396.5 439.2 396.3 438.9 396.3"/><polygon class="cls-91" points="439.9 396.7 441.2 396.4 440.7 396 440.3 395.9 440.1 395.6 440.1 395.2 439.8 394.8 439.5 395 439.4 395.2 439.5 395.8 439.3 395.9 439.2 396.5 439.6 396.8 439.9 396.7"/></g></g></g></g></g></svg>