<svg xmlns="http://www.w3.org/2000/svg" xmlns:xlink="http://www.w3.org/1999/xlink" viewBox="0 0 395.8 282.7"><defs><style>.cls-1{fill:url(#Naamloos_verloop_20);}.cls-2{fill:url(#Naamloos_verloop_20-2);}.cls-3{fill:url(#Naamloos_verloop_20-3);}.cls-4{fill:url(#Naamloos_verloop_20-4);}.cls-5{fill:url(#Naamloos_verloop_20-5);}.cls-6{fill:url(#Naamloos_verloop_20-6);}.cls-7{fill:url(#Naamloos_verloop_20-7);}.cls-8{fill:url(#Naamloos_verloop_20-8);}.cls-9{fill:url(#Naamloos_verloop_20-9);}.cls-10{fill:url(#Naamloos_verloop_20-10);}.cls-11{fill:url(#Naamloos_verloop_20-11);}.cls-12{fill:url(#Naamloos_verloop_20-12);}.cls-13{fill:url(#Naamloos_verloop_20-13);}.cls-14{fill:url(#Naamloos_verloop_20-14);}.cls-15{fill:url(#Naamloos_verloop_20-15);}.cls-16{fill:url(#Naamloos_verloop_20-16);}.cls-17{fill:url(#Naamloos_verloop_20-17);}.cls-18{fill:url(#Naamloos_verloop_20-18);}.cls-19{fill:url(#Naamloos_verloop_20-19);}.cls-20{fill:url(#Naamloos_verloop_20-20);}.cls-21{fill:url(#Naamloos_verloop_20-21);}.cls-22{fill:url(#Naamloos_verloop_20-22);}.cls-23{fill:url(#Naamloos_verloop_20-23);}.cls-24{fill:url(#Naamloos_verloop_20-24);}.cls-25{fill:url(#Naamloos_verloop_20-25);}.cls-26{fill:url(#Naamloos_verloop_20-26);}.cls-27{fill:url(#Naamloos_verloop_20-27);}.cls-28{fill:url(#Naamloos_verloop_20-28);}.cls-29{fill:url(#Naamloos_verloop_20-29);}.cls-30{fill:url(#Naamloos_verloop_20-30);}.cls-31{fill:url(#Naamloos_verloop_20-31);}.cls-32{fill:url(#Naamloos_verloop_20-32);}.cls-33{fill:url(#Naamloos_verloop_20-33);}.cls-34{fill:url(#Naamloos_verloop_20-34);}.cls-35{fill:url(#Naamloos_verloop_20-35);}.cls-36{fill:url(#Naamloos_verloop_20-36);}.cls-37{fill:url(#Naamloos_verloop_20-37);}.cls-38{fill:url(#Naamloos_verloop_20-38);}.cls-39{fill:url(#Naamloos_verloop_20-39);}.cls-40{fill:url(#Naamloos_verloop_20-40);}.cls-41{fill:url(#Naamloos_verloop_20-41);}.cls-42{fill:url(#Naamloos_verloop_20-42);}.cls-43{fill:url(#Naamloos_verloop_20-43);}.cls-44{fill:url(#Naamloos_verloop_20-44);}.cls-45{fill:url(#Naamloos_verloop_20-45);}.cls-46{fill:url(#Naamloos_verloop_20-46);}.cls-47{fill:url(#Naamloos_verloop_20-47);}.cls-48{fill:url(#Naamloos_verloop_20-48);}.cls-49{fill:url(#Naamloos_verloop_20-49);}.cls-50{fill:url(#Naamloos_verloop_20-50);}.cls-51{fill:url(#Naamloos_verloop_20-51);}.cls-52{fill:url(#Naamloos_verloop_20-52);}.cls-53{fill:url(#Naamloos_verloop_20-53);}.cls-54{fill:url(#Naamloos_verloop_20-54);}.cls-55{fill:url(#Naamloos_verloop_20-55);}.cls-56{fill:url(#Naamloos_verloop_20-56);}.cls-57{fill:url(#Naamloos_verloop_20-57);}.cls-58{fill:url(#Naamloos_verloop_20-58);}.cls-59{fill:url(#Naamloos_verloop_20-59);}.cls-60{fill:url(#Naamloos_verloop_20-60);}.cls-61{fill:url(#Naamloos_verloop_20-61);}.cls-62{fill:url(#Naamloos_verloop_20-62);}.cls-63{fill:url(#Naamloos_verloop_20-63);}.cls-64{fill:url(#Naamloos_verloop_20-64);}.cls-65{fill:url(#Naamloos_verloop_20-65);}.cls-66{fill:url(#Naamloos_verloop_20-66);}.cls-67{fill:url(#Naamloos_verloop_20-67);}.cls-68{fill:url(#Naamloos_verloop_20-68);}.cls-69{fill:url(#Naamloos_verloop_20-69);}.cls-70{fill:url(#Naamloos_verloop_20-70);}.cls-71{fill:url(#Naamloos_verloop_20-71);}.cls-72{fill:url(#Naamloos_verloop_20-72);}.cls-73{fill:url(#Naamloos_verloop_20-73);}.cls-74{fill:url(#Naamloos_verloop_20-74);}.cls-75{fill:url(#Naamloos_verloop_20-75);}.cls-76{fill:url(#Naamloos_verloop_20-76);}.cls-77{fill:url(#Naamloos_verloop_20-77);}.cls-78{fill:url(#Naamloos_verloop_20-78);}</style><linearGradient id="Naamloos_verloop_20" x1="131.7" y1="254.4" x2="154.5" y2="254.4" gradientUnits="userSpaceOnUse"><stop offset="0" stop-color="#3174ec"/><stop offset="1" stop-color="#4181f3"/></linearGradient><linearGradient id="Naamloos_verloop_20-2" x1="0" y1="143.45" x2="225.9" y2="143.45" xlink:href="#Naamloos_verloop_20"/><linearGradient id="Naamloos_verloop_20-3" x1="258" y1="22.35" x2="265.8" y2="22.35" xlink:href="#Naamloos_verloop_20"/><linearGradient id="Naamloos_verloop_20-4" x1="222.6" y1="17.55" x2="246" y2="17.55" xlink:href="#Naamloos_verloop_20"/><linearGradient id="Naamloos_verloop_20-5" x1="179.7" y1="26.45" x2="234.1" y2="26.45" xlink:href="#Naamloos_verloop_20"/><linearGradient id="Naamloos_verloop_20-6" x1="237" y1="7.25" x2="250.4" y2="7.25" xlink:href="#Naamloos_verloop_20"/><linearGradient id="Naamloos_verloop_20-7" x1="223.9" y1="263.25" x2="287.8" y2="263.25" xlink:href="#Naamloos_verloop_20"/><linearGradient id="Naamloos_verloop_20-8" x1="289.7" y1="228.25" x2="326.4" y2="228.25" xlink:href="#Naamloos_verloop_20"/><linearGradient id="Naamloos_verloop_20-9" x1="311.2" y1="129.05" x2="312" y2="129.05" xlink:href="#Naamloos_verloop_20"/><linearGradient id="Naamloos_verloop_20-10" x1="315.5" y1="122.1" x2="317.2" y2="122.1" xlink:href="#Naamloos_verloop_20"/><linearGradient id="Naamloos_verloop_20-11" x1="311.9" y1="118.25" x2="314.1" y2="118.25" xlink:href="#Naamloos_verloop_20"/><linearGradient id="Naamloos_verloop_20-12" x1="309.4" y1="116.1" x2="310.3" y2="116.1" xlink:href="#Naamloos_verloop_20"/><linearGradient id="Naamloos_verloop_20-13" x1="310.1" y1="115.1" x2="310.6" y2="115.1" xlink:href="#Naamloos_verloop_20"/><linearGradient id="Naamloos_verloop_20-14" x1="296" y1="120.3" x2="309.7" y2="120.3" xlink:href="#Naamloos_verloop_20"/><linearGradient id="Naamloos_verloop_20-15" x1="297.2" y1="112.95" x2="297.5" y2="112.95" xlink:href="#Naamloos_verloop_20"/><linearGradient id="Naamloos_verloop_20-16" x1="294.9" y1="110.7" x2="295.2" y2="110.7" xlink:href="#Naamloos_verloop_20"/><linearGradient id="Naamloos_verloop_20-17" x1="323" y1="58.7" x2="324.1" y2="58.7" xlink:href="#Naamloos_verloop_20"/><linearGradient id="Naamloos_verloop_20-18" x1="284.7" y1="58.75" x2="287.9" y2="58.75" xlink:href="#Naamloos_verloop_20"/><linearGradient id="Naamloos_verloop_20-19" x1="321.7" y1="56.2" x2="322.2" y2="56.2" xlink:href="#Naamloos_verloop_20"/><linearGradient id="Naamloos_verloop_20-20" x1="318" y1="53" x2="320.3" y2="53" xlink:href="#Naamloos_verloop_20"/><linearGradient id="Naamloos_verloop_20-21" x1="293.2" y1="51.45" x2="298.5" y2="51.45" xlink:href="#Naamloos_verloop_20"/><linearGradient id="Naamloos_verloop_20-22" x1="297.3" y1="46.55" x2="297.6" y2="46.55" xlink:href="#Naamloos_verloop_20"/><linearGradient id="Naamloos_verloop_20-23" x1="294.3" y1="45.55" x2="295.3" y2="45.55" xlink:href="#Naamloos_verloop_20"/><linearGradient id="Naamloos_verloop_20-24" x1="284.3" y1="45.5" x2="290.9" y2="45.5" xlink:href="#Naamloos_verloop_20"/><linearGradient id="Naamloos_verloop_20-25" x1="288.5" y1="42.5" x2="289.1" y2="42.5" xlink:href="#Naamloos_verloop_20"/><linearGradient id="Naamloos_verloop_20-26" x1="287.3" y1="42.1" x2="288.6" y2="42.1" xlink:href="#Naamloos_verloop_20"/><linearGradient id="Naamloos_verloop_20-27" x1="281.4" y1="42.05" x2="282.3" y2="42.05" xlink:href="#Naamloos_verloop_20"/><linearGradient id="Naamloos_verloop_20-28" x1="272.8" y1="40.05" x2="273.7" y2="40.05" xlink:href="#Naamloos_verloop_20"/><linearGradient id="Naamloos_verloop_20-29" x1="276.6" y1="40.2" x2="277.1" y2="40.2" xlink:href="#Naamloos_verloop_20"/><linearGradient id="Naamloos_verloop_20-30" x1="275.1" y1="39.35" x2="276.6" y2="39.35" xlink:href="#Naamloos_verloop_20"/><linearGradient id="Naamloos_verloop_20-31" x1="271.4" y1="38.95" x2="272.6" y2="38.95" xlink:href="#Naamloos_verloop_20"/><linearGradient id="Naamloos_verloop_20-32" x1="284.6" y1="38.25" x2="285.5" y2="38.25" xlink:href="#Naamloos_verloop_20"/><linearGradient id="Naamloos_verloop_20-33" x1="290.6" y1="41.5" x2="294.3" y2="41.5" xlink:href="#Naamloos_verloop_20"/><linearGradient id="Naamloos_verloop_20-34" x1="270.6" y1="36.95" x2="271.1" y2="36.95" xlink:href="#Naamloos_verloop_20"/><linearGradient id="Naamloos_verloop_20-35" x1="271" y1="36.65" x2="271.6" y2="36.65" xlink:href="#Naamloos_verloop_20"/><linearGradient id="Naamloos_verloop_20-36" x1="271.7" y1="37" x2="275.4" y2="37" xlink:href="#Naamloos_verloop_20"/><linearGradient id="Naamloos_verloop_20-37" x1="267.9" y1="35.75" x2="268.3" y2="35.75" xlink:href="#Naamloos_verloop_20"/><linearGradient id="Naamloos_verloop_20-38" x1="270.3" y1="35.25" x2="271.7" y2="35.25" xlink:href="#Naamloos_verloop_20"/><linearGradient id="Naamloos_verloop_20-39" x1="267.9" y1="33.7" x2="269.7" y2="33.7" xlink:href="#Naamloos_verloop_20"/><linearGradient id="Naamloos_verloop_20-40" x1="278.4" y1="32.75" x2="279.2" y2="32.75" xlink:href="#Naamloos_verloop_20"/><linearGradient id="Naamloos_verloop_20-41" x1="279.1" y1="35.6" x2="286.5" y2="35.6" xlink:href="#Naamloos_verloop_20"/><linearGradient id="Naamloos_verloop_20-42" x1="278.3" y1="32.25" x2="279" y2="32.25" xlink:href="#Naamloos_verloop_20"/><linearGradient id="Naamloos_verloop_20-43" x1="273.8" y1="31.5" x2="274.3" y2="31.5" xlink:href="#Naamloos_verloop_20"/><linearGradient id="Naamloos_verloop_20-44" x1="277.8" y1="31.65" x2="278.1" y2="31.65" xlink:href="#Naamloos_verloop_20"/><linearGradient id="Naamloos_verloop_20-45" x1="274.7" y1="31.6" x2="275.4" y2="31.6" xlink:href="#Naamloos_verloop_20"/><linearGradient id="Naamloos_verloop_20-46" x1="262.5" y1="31.15" x2="263.1" y2="31.15" xlink:href="#Naamloos_verloop_20"/><linearGradient id="Naamloos_verloop_20-47" x1="263.6" y1="29.2" x2="264.7" y2="29.2" xlink:href="#Naamloos_verloop_20"/><linearGradient id="Naamloos_verloop_20-48" x1="265.9" y1="28.35" x2="266.1" y2="28.35" xlink:href="#Naamloos_verloop_20"/><linearGradient id="Naamloos_verloop_20-49" x1="268.2" y1="28.95" x2="273.9" y2="28.95" xlink:href="#Naamloos_verloop_20"/><linearGradient id="Naamloos_verloop_20-50" x1="395.7" y1="38.6" x2="395.8" y2="38.6" xlink:href="#Naamloos_verloop_20"/><linearGradient id="Naamloos_verloop_20-51" x1="328.1" y1="113.55" x2="329" y2="113.55" xlink:href="#Naamloos_verloop_20"/><linearGradient id="Naamloos_verloop_20-52" x1="326.4" y1="109.05" x2="327.9" y2="109.05" xlink:href="#Naamloos_verloop_20"/><linearGradient id="Naamloos_verloop_20-53" x1="326.1" y1="104.65" x2="327.9" y2="104.65" xlink:href="#Naamloos_verloop_20"/><linearGradient id="Naamloos_verloop_20-54" x1="323.2" y1="97.45" x2="325.6" y2="97.45" xlink:href="#Naamloos_verloop_20"/><linearGradient id="Naamloos_verloop_20-55" x1="326.6" y1="92.55" x2="326.9" y2="92.55" xlink:href="#Naamloos_verloop_20"/><linearGradient id="Naamloos_verloop_20-56" x1="324.5" y1="91.2" x2="326.3" y2="91.2" xlink:href="#Naamloos_verloop_20"/><linearGradient id="Naamloos_verloop_20-57" x1="325.8" y1="89.95" x2="326" y2="89.95" xlink:href="#Naamloos_verloop_20"/><linearGradient id="Naamloos_verloop_20-58" x1="324" y1="88.1" x2="326.3" y2="88.1" xlink:href="#Naamloos_verloop_20"/><linearGradient id="Naamloos_verloop_20-59" x1="320" y1="88.1" x2="323.3" y2="88.1" xlink:href="#Naamloos_verloop_20"/><linearGradient id="Naamloos_verloop_20-60" x1="320.1" y1="84.6" x2="321" y2="84.6" xlink:href="#Naamloos_verloop_20"/><linearGradient id="Naamloos_verloop_20-61" x1="320.4" y1="83.9" x2="321" y2="83.9" xlink:href="#Naamloos_verloop_20"/><linearGradient id="Naamloos_verloop_20-62" x1="325.9" y1="84.9" x2="326.6" y2="84.9" xlink:href="#Naamloos_verloop_20"/><linearGradient id="Naamloos_verloop_20-63" x1="323.8" y1="82.65" x2="325.7" y2="82.65" xlink:href="#Naamloos_verloop_20"/><linearGradient id="Naamloos_verloop_20-64" x1="326.4" y1="81.35" x2="327" y2="81.35" xlink:href="#Naamloos_verloop_20"/><linearGradient id="Naamloos_verloop_20-65" x1="317.9" y1="81.15" x2="321.3" y2="81.15" xlink:href="#Naamloos_verloop_20"/><linearGradient id="Naamloos_verloop_20-66" x1="323.8" y1="75.3" x2="325" y2="75.3" xlink:href="#Naamloos_verloop_20"/><linearGradient id="Naamloos_verloop_20-67" x1="324.2" y1="72.65" x2="325.2" y2="72.65" xlink:href="#Naamloos_verloop_20"/><linearGradient id="Naamloos_verloop_20-68" x1="320.1" y1="68.3" x2="320.4" y2="68.3" xlink:href="#Naamloos_verloop_20"/><linearGradient id="Naamloos_verloop_20-69" x1="385.6" y1="106.9" x2="385.9" y2="106.9" xlink:href="#Naamloos_verloop_20"/><linearGradient id="Naamloos_verloop_20-70" x1="375.6" y1="106.15" x2="378.9" y2="106.15" xlink:href="#Naamloos_verloop_20"/><linearGradient id="Naamloos_verloop_20-71" x1="378.9" y1="105.25" x2="379.3" y2="105.25" xlink:href="#Naamloos_verloop_20"/><linearGradient id="Naamloos_verloop_20-72" x1="384.7" y1="99.7" x2="385.3" y2="99.7" xlink:href="#Naamloos_verloop_20"/><linearGradient id="Naamloos_verloop_20-73" x1="382.4" y1="97.45" x2="383" y2="97.45" xlink:href="#Naamloos_verloop_20"/><linearGradient id="Naamloos_verloop_20-74" x1="373.7" y1="98.1" x2="381.7" y2="98.1" xlink:href="#Naamloos_verloop_20"/><linearGradient id="Naamloos_verloop_20-75" x1="386.5" y1="95.15" x2="387.1" y2="95.15" xlink:href="#Naamloos_verloop_20"/><linearGradient id="Naamloos_verloop_20-76" x1="374.6" y1="93.75" x2="375.3" y2="93.75" xlink:href="#Naamloos_verloop_20"/><linearGradient id="Naamloos_verloop_20-77" x1="390" y1="92.4" x2="390.9" y2="92.4" xlink:href="#Naamloos_verloop_20"/><linearGradient id="Naamloos_verloop_20-78" x1="382.5" y1="90.35" x2="391.9" y2="90.35" xlink:href="#Naamloos_verloop_20"/></defs><g id="Laag_2" data-name="Laag 2"><g id="Laag_1-2" data-name="Laag 1"><g id="Laag_2-2" data-name="Laag 2"><g id="World-map"><g id="Australia"><polygon class="cls-1" points="146.8 247 143.5 247.9 139.8 245.7 136.8 245.1 134.8 248 134.2 253.6 132.2 257.8 131.7 263.2 134.7 263.4 135.5 263.7 142.1 259.3 142.7 261.1 146.7 255.9 150 253.8 154.5 246.2 151.7 245.8 146.8 247"/><polygon class="cls-2" points="224.9 155 225.9 151.3 225.9 146.1 223.1 140.9 221.2 138.5 218.3 134.6 219 127.8 217.4 128.7 215.9 126 213.3 127.4 212.8 120.4 210.5 116.4 211.6 114.8 208.4 112 205.2 109 199.8 105.6 199 101.3 200.2 98 199.8 92.5 198.5 91.7 198.3 88.5 198.1 83 199.2 80.1 196.9 77.6 195.5 74.9 191.5 77.3 190.3 72.3 190.9 70 191 66.3 189.4 63.1 189.5 60.4 188.2 59.6 188.3 55.6 187 52.4 184.7 54.8 184.3 56.7 182.8 60.2 181 63.6 181.6 65.7 180.3 67 178.9 71.9 179 75.5 178.3 77.4 178.5 80.5 175.9 85.6 174.6 89.1 172.9 92 171.1 95.4 167 97.6 162.1 95.5 161.6 93.5 159 91.8 157.4 91.8 154.1 88 151.6 85.8 147.6 83.8 143.8 80.2 143.6 78.4 146.1 75.2 148.3 72 148 69.5 149.9 69.3 152.4 66.7 154.4 63.2 152.2 60 150.7 61.3 148.7 60.7 145.2 62.6 141.9 60.6 140.2 61.2 135.7 59.6 133 57 129.4 55.4 126.3 56.3 130.2 58.4 129.9 61.7 125 62.9 122.3 62.1 118.6 64.4 115.7 68.1 116.3 69.7 113.6 71.4 110.1 76.5 110.8 80 107.3 79.4 103.8 79.4 101.2 75.6 97.5 72.6 94.7 73.5 92.1 74.4 91.7 76 89.4 75.3 89 77.1 86.1 78.2 84.3 80.7 80.8 83.9 79.3 88.8 77.1 87.4 74.8 90.5 76.3 93.5 73.7 94.8 72.3 89.2 67.4 94.7 66.7 98.2 66 100.8 62.1 104 60.1 107.4 56.6 110.3 50.4 112.2 47.3 112 45.8 112.6 44.7 114 41.2 114.7 36.4 117.1 35 116.3 32.4 116.8 27.7 119.2 24.5 121.9 19.6 124.1 16.5 128.5 16.9 123.6 13.8 128.2 13.7 132 12.4 135.2 10.9 136.8 9.6 140.5 10.4 142.4 10.5 144.4 12.1 149.5 11.5 152.8 10.4 150.3 8.1 148.4 8.6 154.4 6.8 151.6 6.9 154.3 8.8 159.4 8.1 164.4 9.8 167 9.5 168.9 10.4 173.1 9 176.7 8.8 180.4 9.5 186.9 8.8 190.7 6.5 195.2 5.9 197.5 4.4 198.9 1.5 199.8 0 203.5 2.4 204.7 6.5 208.8 10 208.8 13.8 209 17.2 207 20.6 205.2 22.1 205.5 26.6 202.1 30.4 201.8 34.6 201.1 38.8 202.2 42.4 201.7 47.1 201.5 50.1 198.9 52.4 195.5 57.7 194.1 64.7 190.8 69.7 191.2 76.6 189 84.5 186.7 94.4 186.1 98.4 189.3 102.2 189.4 107.5 193.3 105.9 194.8 107.7 197.2 109.1 201.9 107.4 205.3 110.4 207.9 114.7 202.8 119 200.6 125.8 195.2 124.2 199.9 120.7 203.1 118.2 206.8 113.7 210.3 119 209.1 123.7 204.7 122.8 209.4 119.6 212.6 124.3 213.3 125.7 215.9 125.3 219.2 123.8 224 125.1 228 129.2 229.8 132 230.3 134.4 231.3 138 233 145.2 228.4 148.7 227.2 146.1 230.5 148.7 231.6 151.4 234.5 156.2 231.7 160 229.3 166.3 226.6 172.4 226.4 176.7 224.2 177.5 222.1 180.6 217.7 184.5 212.9 188.2 209.7 192.6 204.2 195.9 201 200.3 196.1 205.8 192.9 210.8 187.1 213.9 182.5 215.4 178.8 219.2 173.1 221.3 170.1 223.8 164.4 223.1 158.9 224.9 155"/><polygon class="cls-3" points="261 25.9 263.3 28.4 264.9 27.7 265.8 25.9 263.3 23.7 260.9 19.7 259.3 18.2 258.8 16.3 258 16.9 258.8 21.8 261 25.9"/><polygon class="cls-4" points="230.2 24.5 233.3 24.5 236.3 23 239.5 21.4 240.5 19.6 243.5 19.1 245.6 15.2 246 11.6 244.9 10.6 241.5 10.7 241.9 14.5 238.6 16.8 236.8 19 233.6 19.4 233.3 16 232.4 16.2 231.4 19.3 228.2 19.8 223.2 18.8 222.6 20.8 225.7 22.6 230.2 24.5"/><polygon class="cls-5" points="188.6 43.8 193.2 41.6 192.9 36.9 196.6 34.7 201.5 32.9 208.6 35.7 211.1 41.3 213.9 44.9 217.9 49 223.5 49.9 228.2 50.7 229.4 52.3 233.2 51.9 234.1 50 228.4 47.3 230.2 46.1 225.9 45 226.5 42.2 223.2 42.4 220.2 35.6 215.5 31.4 214.6 27.1 219.8 26.4 218.7 23 209.5 19 208.9 15.2 205.9 12 202.2 8.7 191.9 5 182.3 0.6 181.3 21.5 179.7 42.5 185.5 42.7 188.6 43.8"/><polygon class="cls-6" points="244.1 6.2 246.6 8.3 247.7 10.7 248.6 14.5 250.4 12.8 250 9.5 247.9 7.4 245.8 4.7 243.5 3.2 241.6 1.8 238.6 0 237 1.5 241 3.4 244.1 6.2"/><polygon class="cls-7" points="283 246.5 283.8 243.8 278 246.7 274.5 250.3 271.4 251.9 265.4 256.6 259.7 259.9 252.7 263.2 247.1 265.6 242.8 266.8 231.4 273.1 224.9 277.7 223.9 280.1 229 280.5 230.5 282.6 235.1 282.7 239.1 280.9 245.4 278.1 253.6 271.7 258.3 267.6 264.6 265.2 268.6 265.1 269.2 262.1 273.9 259.5 281 254.8 285.2 251.9 287.3 249.2 287.8 246.5 282.2 249.1 283 246.5"/><polygon class="cls-8" points="319.5 227.6 316.3 227.1 313.4 225 315.8 220.2 314.5 218.4 311.6 222.8 312 216 314 210.3 310.8 208.7 309.9 205.1 307.7 205.6 307.3 210.2 308 215.8 308.9 218.5 308.1 219.6 307.5 223.9 305 228 300.8 233 295.5 235.2 293.7 237.5 297.5 240 296.6 243.6 289.7 248.8 291.2 249.7 290.7 251.4 296.7 248.8 302.6 244.5 307.2 241 308.8 239.9 310.3 237.1 313.1 235.2 317 235.3 321.2 231.6 326.4 225.9 324.2 225.2 319.5 227.6"/><polygon class="cls-9" points="311.8 129.1 312 129 311.8 128.7 311.5 128.6 311.4 128.8 311.2 129.3 311.6 129.5 311.8 129.1"/><polygon class="cls-10" points="315.7 122.2 315.6 122.4 315.9 122.7 315.9 122.8 316.3 123 316.8 122.7 316.9 122.3 317.1 122.1 317.2 121.5 316.8 121.7 316.5 121.7 316.3 121.3 316.4 121.2 316 121.3 315.6 121.2 315.5 121.2 315.6 121.6 315.5 122 315.7 122.2"/><polygon class="cls-11" points="312 118.7 312.3 119.2 312.9 119.3 313 119.5 313.2 119.8 313.5 119.9 313.7 119.7 313.9 119.2 314.1 119.2 313.8 118.8 313.9 118.6 313.8 118.4 313.6 118.3 313.3 118.1 313.5 117.8 313.5 117.4 313.7 116.9 313.3 116.6 312.9 116.9 312.7 116.8 312.4 116.9 312.2 117.3 312.6 117.2 313 117.4 312.9 117.7 312.5 118 312.2 118.2 311.9 118.2 312 118.5 312 118.7"/><polygon class="cls-12" points="309.7 116.7 310.2 116.2 309.9 116.2 310 115.9 310.3 115.3 309.9 115.8 309.7 116.3 309.4 116.7 309.5 116.9 309.7 116.7"/><polygon class="cls-13" points="310.5 114.9 310.1 114.9 310.3 115.3 310.6 115.3 310.5 114.9"/><polygon class="cls-14" points="297.7 114.1 297.4 114.2 297.1 113.9 296.6 113 296.4 112.9 296.2 113 296.5 113.3 296 114 296.2 114.3 296.8 114.3 296.9 114.5 296.8 114.8 296.5 114.8 296.7 115.1 296.7 115.7 297.2 116 297.2 116.5 297.4 116.8 297.6 117 297.3 117.2 297.7 117.8 298 118 298.7 118.4 298.6 118.6 298.8 119.2 299.1 119.2 299.3 119.5 299.3 119.9 299.6 120.6 299.9 120.7 300.2 121 300 121.2 300.5 121.3 300.7 121.8 301.1 122.1 301.2 122.5 301.8 122.8 302.1 122.6 302.1 122.9 302.2 123.1 303 123.6 303.4 123.5 303.6 124 303.6 124.3 303.9 124.3 304.1 124.4 304.2 124.6 304.5 124.8 304.9 124.8 305.2 124.8 305.1 125.6 305.5 126.1 305.7 126.1 306.6 127 306.8 126.7 307 126.7 307.1 126.9 307.5 126.9 308.1 127.7 308.4 127.4 308.7 127.3 308.8 127.6 309.5 127.2 309.7 126.6 309.6 126.5 309.5 126.1 309.5 125.7 309.2 125.4 308.7 125.3 308.3 124.7 308.2 124.8 307.8 124.4 307.5 123.8 307.5 123.6 307.2 123.3 306.9 123.2 306.9 123 306.3 122.6 305.9 122.1 305.6 122.1 305.7 121.8 305.2 121.4 304.9 121.2 304.6 121.2 304.2 120.7 303.5 120.5 303.6 120.1 303.2 119.6 303.1 119.6 302.7 119.1 302.6 118.9 302.9 118.4 302.5 118.3 302.2 117.9 302.2 117.5 302.1 117.2 301.2 117 300.9 116.7 300.7 116.7 300.6 116.5 300.2 116.1 300.1 115.8 299.8 115.4 299.1 114.8 298.8 114.3 297.9 113.8 297.7 114.1"/><polygon class="cls-15" points="297.3 112.7 297.2 113.1 297.5 113.2 297.3 112.7"/><polygon class="cls-16" points="295 111 295.2 110.8 295.1 110.4 294.9 110.6 295 111"/><polygon class="cls-17" points="324.1 59.1 324.1 58.9 323.8 58.9 323.9 58.5 323.6 58.3 323.2 58.3 323 58.6 323.3 59.1 324.1 59.1"/><polygon class="cls-18" points="286.5 58.5 285.5 57.7 285.3 57.7 285 57.5 284.7 57.9 284.9 58.3 285.8 58.7 286 58.7 286.1 58.6 286.4 58.7 286.4 59 286.8 59.1 286.9 59.5 287.1 59.7 287.2 59.7 287.4 60 287.6 59.8 287.8 59.8 287.9 59.5 287 58.8 286.5 58.5"/><polygon class="cls-19" points="322.2 56.2 322 55.9 321.7 56.1 321.7 56.3 322 56.5 322.2 56.2"/><polygon class="cls-20" points="318.5 53.4 318.6 53.7 319 53.1 319.4 53 319.7 53 320.2 52.8 320.3 52.4 320 52.4 319.9 52.3 319.5 52.4 318.8 52.3 318.5 52.7 318.5 52.9 318 53 318 53.3 318.2 53.5 318.5 53.4"/><polygon class="cls-21" points="295 50.2 294.5 49.7 293.9 49.4 293.6 49.5 293.4 49.5 293.3 49.8 293.2 50.1 293.3 50.3 293.6 50.2 294.2 50.4 294.4 50.5 294.4 50.9 294.5 51.3 294.3 51.7 294.7 51.9 294.9 52.2 295.2 52.3 295.5 52.5 295.7 52.8 296.1 52.9 296.7 53.1 296.9 53.1 297.4 53.4 297.7 53.5 298 53.3 298.4 53.5 298.3 53.2 298.5 53 298.5 52.5 298.2 52.2 298 51.4 297.8 51.1 297.5 51.2 297.1 51.2 296.9 51 296.5 50.9 296.2 51 295.9 50.7 295.7 50.7 295.5 50.5 295.3 50.5 295 50.2"/><polygon class="cls-22" points="297.5 46.3 297.6 46.1 297.3 46.3 297.3 46.8 297.5 47 297.5 46.3"/><polygon class="cls-23" points="294.6 46.4 294.7 46.1 295.1 46.8 295.3 46.5 295.2 46 295.2 45.6 295 45.2 294.7 44.3 294.5 44.4 294.5 44.7 294.4 44.9 294.3 45.9 294.6 46.4"/><polygon class="cls-24" points="290.1 47.6 290.8 47.4 290.9 47.3 290.9 46.7 290.8 46.4 290.4 46.2 290.2 46.2 290.2 45.6 289.8 45.2 289.6 45.1 289.4 45.1 289.2 44.8 288.9 44.7 288.7 44.4 287.9 44.4 287.4 44.4 287.3 44.5 286.9 44.4 286.6 44.5 286.3 44.5 286 44.3 285.9 44 285.5 43.5 285.1 43.3 284.5 43.6 284.4 43.9 284.4 44.6 284.5 44.8 284.3 45 284.5 45.4 284.8 46.2 285.1 46.4 285.4 46.8 285.7 46.7 286 46.9 286.5 47 287 47 287.5 46.9 288.1 46.9 288.6 47.2 288.7 47.4 289.1 47.4 289.5 47.6 289.9 47.7 290.1 47.6"/><polygon class="cls-25" points="288.5 42.7 288.8 42.9 289.1 42.6 288.6 42.1 288.5 42.6 288.5 42.7"/><polygon class="cls-26" points="287.6 42.3 287.9 42.2 288.3 42.5 288.4 42.5 288.6 42.1 288.3 41.8 287.8 41.7 287.6 41.9 287.3 42 287.4 42.2 287.6 42.3"/><polygon class="cls-27" points="281.4 42.1 281.7 42.5 282.1 42.3 282.3 41.9 282.1 41.8 282 41.6 281.4 42.1"/><polygon class="cls-28" points="273.3 39.7 272.8 40 273.6 40.4 273.7 40.1 273.5 39.8 273.3 39.7"/><polygon class="cls-29" points="276.9 40.6 277.1 40.5 277 40.3 277 39.8 276.7 40.1 276.6 40.4 276.9 40.6"/><polygon class="cls-30" points="275.1 39.7 275.5 40.1 275.8 40.2 276 40.1 276.4 39.7 276.4 39.4 276.2 39.2 276.6 38.9 276.6 38.7 276.2 38.7 276 38.8 276 38.5 275.7 38.6 275.5 39 275.2 39.1 275.1 39.7"/><polygon class="cls-31" points="272.4 38.9 272.6 38.5 272.6 38.1 272.3 37.9 271.9 38.2 271.8 38.5 271.4 38.7 271.4 38.9 271.8 39.3 271.9 39.6 271.9 39.8 272.4 40 272 39.5 272.2 39 272.4 38.9"/><polygon class="cls-32" points="285.1 37.7 284.8 37.8 284.6 38.2 285.2 38.7 285.4 38.8 285.5 38.6 285.3 38.4 285.2 38.2 285.3 37.9 285.1 37.7"/><polygon class="cls-33" points="291.2 38.5 291.3 38.8 290.9 39.2 291 39.6 291 40.1 291.2 40.8 291.4 41.8 291.7 42.7 292.1 43 292.6 43.6 292.9 43.9 293.3 44.2 293.6 44.6 293.6 44.9 293.9 45.4 294.2 45.7 294.3 45.6 294.3 45 294.1 44.5 294 44 293.7 43.7 293.9 43.5 293.8 43 293.9 42.9 293.6 42.6 293.8 42.4 293.6 42.2 293.5 41.9 293.4 41.4 292.9 41 292.7 40.7 292.5 40.7 292.4 40.5 292.4 40.2 292.4 39.7 292.8 39.5 292.8 39.2 292.2 38.4 291.8 37.6 291.6 37.3 291.3 37.6 291.1 37.5 290.7 37.4 290.6 37.5 290.7 37.8 291.2 38.5"/><polygon class="cls-34" points="271.1 37.3 271 36.6 270.6 36.6 270.9 36.9 271.1 37.3"/><polygon class="cls-35" points="271.4 37 271.6 37 271.5 36.5 271.4 36.4 271 36.3 271.2 36.6 271.4 37"/><polygon class="cls-36" points="274 36.8 274.1 36.5 273.9 36.4 274 35.7 273.8 35.3 273.4 35 273.1 35.2 272.7 35.5 272.3 36.1 272.3 36.5 271.9 36.5 271.7 36.7 271.7 37.3 272.1 37.5 272.4 37.1 272.8 37.1 273 37 273.5 36.9 273.6 37.1 273.9 37.9 273.5 37.8 273.6 38.1 273.7 38.3 274.1 38.6 274.4 38.6 274.6 38.8 275.2 39 275.2 38.7 275.4 38.5 275.3 38 275.1 37.7 275.1 37.5 274.7 36.8 274.2 36.8 274 36.8"/><polygon class="cls-37" points="268.2 36.5 268.3 36.2 268.3 35.5 268.2 35.1 268 35 268 35.4 267.9 35.7 268.1 36.5 268.2 36.5"/><polygon class="cls-38" points="271.3 36.2 271.6 36 271.7 35.6 271.7 35 271.4 34.5 271.2 34.3 270.7 34.5 270.4 34.9 270.3 35.2 270.4 35.5 270.5 35.8 270.8 36.1 271.2 36.1 271.3 36.2"/><polygon class="cls-39" points="268.3 33.7 268.5 34.1 268.5 34.5 268.7 34.5 268.7 34.9 269 34.8 269 34.5 269.6 33.8 269.7 33.5 269 33.1 269 33 268.6 32.5 268.4 32.5 268.2 32.7 268 32.9 267.9 33.2 268 33.5 268.3 33.7"/><polygon class="cls-40" points="278.6 32.5 278.4 32.7 278.5 33 279 32.9 279.2 32.8 278.9 32.6 278.6 32.5"/><polygon class="cls-41" points="279.7 33.2 279.7 33.6 279.8 33.8 280.2 34.1 280.4 34.5 280.6 34.7 281 34.9 281 35.1 281.5 35.4 282.3 36 282.5 36 283 36.5 283.6 36.7 283.7 37 284.3 37.1 284.8 37.5 285.2 37.6 285.9 38.4 286.2 38.8 286.5 38.9 286.4 38.3 286.1 37.8 286.4 37.4 285.4 36.4 285 36.1 284.7 35.8 284.3 35.5 284.2 35.2 283.9 35.1 283.6 35.2 283.5 35 283.1 34.8 283 34.7 282.7 34.8 282.4 34.7 282.4 34.4 281.9 34.3 281.9 34 281.6 33.7 281.3 33.6 281 33.1 280.8 32.9 280.5 32.8 280 32.5 279.8 32.6 279.1 32.3 279.1 32.6 279.3 32.7 279.7 33.2"/><polygon class="cls-42" points="278.9 32.5 279 32.3 278.7 32.1 278.5 32.2 278.3 32 278.6 32.4 278.9 32.5"/><polygon class="cls-43" points="273.8 31.5 274.1 31.6 274.3 31.4 273.8 31.4 273.8 31.5"/><polygon class="cls-44" points="278.1 31.4 277.8 31.7 277.9 31.9 278.1 31.4"/><polygon class="cls-45" points="275.4 31.8 275.3 31.4 275 31.3 274.7 31.7 274.9 31.9 275.4 31.8"/><polygon class="cls-46" points="262.6 31.3 262.9 31.4 263.1 31.2 262.9 30.9 262.5 31.2 262.6 31.3"/><polygon class="cls-47" points="263.9 28.8 263.6 29.4 263.9 29.7 264.6 29.5 264.7 29.2 264.4 29 264.1 28.7 263.9 28.8"/><polygon class="cls-48" points="266.1 28.1 265.9 28.2 265.9 28.4 266.1 28.6 266.1 28.1"/><polygon class="cls-49" points="269.4 28.2 270 29.2 270.6 30.2 271.3 30.6 271.6 31 272.1 31 272.9 31.4 273.4 31.6 273.6 31.3 273.9 31.2 273.9 30.9 273.8 30.8 273.4 30.9 272.7 30.6 272.6 30.2 272.4 30.2 272.1 29.9 271.9 29.7 271.8 29.1 271.8 28.7 271.4 28.2 270.6 27.8 270.3 27.5 270 27.4 269.7 27.2 269.3 26.7 269 26.6 268.8 26.4 268.5 26.3 268.2 26.5 268.2 26.7 268.2 27.2 268.9 27.9 269.4 28.2"/><polygon class="cls-50" points="395.7 38.5 395.7 38.7 395.8 38.6 395.8 38.5 395.7 38.5"/><polygon class="cls-51" points="328.3 113.3 328.1 113.7 328.6 113.9 328.9 113.8 329 113.6 328.8 113.2 328.3 113.3"/><polygon class="cls-52" points="327.2 108.3 327.4 108 327 108 326.7 108.1 326.6 108.5 326.4 108.7 326.4 109.1 326.5 109.5 326.9 110 327.2 110.1 327.4 110.1 327.6 109.6 327.9 109.3 327.2 108.8 327.2 108.3"/><polygon class="cls-53" points="327.4 104.8 327.3 104.5 327.8 104.4 327.7 104.2 327.4 104.2 327.3 104 327.4 103.6 327.2 103.5 326.7 103.5 326.4 103.9 326.2 104.4 326.2 104.7 326.1 105.1 326.4 105.3 326.6 105.5 327 105.5 327.4 105.8 327.8 105.7 327.9 105.3 327.8 105 327.4 104.8"/><polygon class="cls-54" points="325.1 96.6 325 96.5 324.4 96.6 324.2 96.5 323.8 97 323.4 97.3 323.2 97.7 323.3 97.8 323.7 97.5 324 97.6 324.1 98.1 324.4 98.4 325.2 98.2 325.6 97.6 325.5 97.5 325.3 97.2 325.1 96.6"/><polygon class="cls-55" points="326.7 92.7 326.9 92.4 326.6 92.4 326.7 92.7"/><polygon class="cls-56" points="325.9 91.8 326.2 92.1 326.3 92 326.3 91.6 325.8 91.6 325.6 91.1 325.2 91 325.2 90.8 325.1 90.3 324.9 90.4 324.7 90.7 324.5 91.2 324.6 91.6 324.7 91.8 325 91.9 325.6 91.7 325.9 91.8"/><polygon class="cls-57" points="326 89.8 325.8 89.8 325.9 90.1 326 90.1 326 89.8"/><polygon class="cls-58" points="325.7 87.2 325.5 87.2 325.4 87.5 325 87.8 324.6 87.9 324.1 88.1 324 88.3 324.5 88.7 324.9 88.8 325.1 89 325.4 88.9 326 88.9 326.2 88.7 326.3 88.5 325.8 88.1 325.8 87.5 325.7 87.2"/><polygon class="cls-59" points="321.2 86.3 321.3 86.1 320.7 85.8 320.4 85.9 320.3 86.2 320.3 86.6 320 86.9 320 87.2 320.1 87.5 320.3 87.7 320.9 87.4 321.1 87.9 321 88.4 320.9 89 321 89.6 321 90.3 321.3 90.4 321.7 90.2 321.7 90 321.9 89.9 322.3 89.9 322.6 90 322.6 90.2 323 89.8 323.3 89.6 323.1 89.3 323.1 88.9 323 88.8 322.3 88.1 321.7 87.7 321.5 87.4 321.3 87 321.4 86.8 321.2 86.3"/><polygon class="cls-60" points="320.9 85 320.9 84.7 321 84.3 320.5 84.2 320.3 84.3 320.1 84.6 320.1 84.7 320.6 85 320.9 85"/><polygon class="cls-61" points="321 84.1 320.9 83.8 320.8 83.7 320.4 84 320.5 84.1 321 84.1"/><polygon class="cls-62" points="326.1 86.6 326.4 86.3 326.5 85.7 326.5 84.7 326.5 84.1 326.6 83.8 326.4 83.2 326.3 83.7 326 84.5 325.9 85 326 85.3 325.9 86.5 326.1 86.6"/><polygon class="cls-63" points="324.7 82.3 323.8 83 323.8 83.2 324.1 83.3 324.8 83.3 325.2 82.9 325.4 82.6 325.7 82.2 325.7 82 325.2 82.1 324.7 82.3"/><polygon class="cls-64" points="326.7 82.6 326.9 82.1 327 81.6 326.9 81.3 327 80 326.8 79.9 326.7 81.1 326.7 81.2 326.5 82.5 326.4 82.8 326.7 82.8 326.7 82.6"/><polygon class="cls-65" points="318.5 83.8 318.6 84.4 318.8 84.4 318.9 84.2 319.5 83.9 320.4 84 320.9 83.6 321.2 83.6 321.3 83.4 321.1 82.9 321.1 82.4 321.3 82.2 321 81.8 321.2 81.7 321.2 81.2 320.9 81.1 320.9 80.2 321 79.8 320.7 79.7 320.4 79.9 320.4 80.1 320.2 80.9 319.9 81.2 319.3 81.3 319.3 81.2 319.4 80.4 319.3 79.1 319.1 78.8 318.9 78.4 318.8 77.9 318.5 78 318.5 78.2 318.3 78.5 318.3 78.8 318.1 79.1 318.1 79.6 318.2 79.9 318.2 81.3 318.3 81.5 318.3 81.9 317.9 82.7 318.3 83.7 318.5 83.8"/><polygon class="cls-66" points="324.9 75.4 325 75 324.6 74.7 324.1 74.8 323.9 75.1 323.8 75.5 323.8 75.9 324.4 75.9 324.6 75.7 324.9 75.4"/><polygon class="cls-67" points="324.5 73.1 324.5 73.4 324.7 73.3 324.7 73.1 324.9 73 325.2 72.8 325.1 72.6 325.1 72.5 325 72.1 324.9 71.9 324.5 72.1 324.3 72.2 324.2 72.6 324.3 72.9 324.5 73.1"/><polygon class="cls-68" points="320.1 68.5 320.2 68.6 320.4 68.2 320.2 68 320.1 68.5"/><polygon class="cls-69" points="385.6 107.1 385.9 107 385.7 106.7 385.6 107.1"/><polygon class="cls-70" points="378.4 105.4 378.2 105.4 377.7 105.7 377.2 105.8 377 106.1 376.7 106.4 376.3 106.3 376.1 106.5 375.9 106.6 375.6 106.7 376 106.9 376.1 106.8 376.5 106.9 376.6 106.7 377 106.8 376.9 106.5 377.1 106.2 377.4 106.2 377.9 105.9 378.4 106.2 378.9 106 378.9 105.7 378.6 105.6 378.4 105.4"/><polygon class="cls-71" points="378.9 105.3 379.1 105.4 379.3 105.3 379.1 105.1 378.9 105.3"/><polygon class="cls-72" points="385 99.1 384.8 99.2 384.7 99.7 384.9 99.7 385 100.1 385.1 100.3 385.3 99.7 385.2 99.2 385 99.1"/><polygon class="cls-73" points="382.4 97.4 382.5 97.8 382.6 97.8 382.8 97.7 383 97.5 383 97.1 382.6 97.2 382.4 97.4"/><polygon class="cls-74" points="381.6 97 381.4 97 381.3 96.7 381 96.6 380.7 96.2 380.6 95.9 380.3 95.7 380.4 95.3 380 95 379.7 95.3 379.1 95.4 378.6 95.6 378.3 95.7 377.7 95.5 376.8 95.9 376.6 95.9 376 96.4 375.9 96.3 375.5 96.8 374.9 97.2 375.1 97.4 375 97.8 374.7 97.9 374.6 98.4 374.3 98.5 374 98.5 373.7 99.2 373.9 100.2 374.4 100.4 374.6 100.5 375.2 100.6 375.5 100.7 376.4 101 376.7 101.2 377.3 101.1 377.6 101.2 378 101 378.3 101.1 379.1 100.4 379.9 100.1 380.2 100.4 380.3 100.2 380.6 100.1 380.7 100.3 381.3 100.1 381.6 99.8 381.5 99.3 381.3 99.3 381.3 98.8 381.6 98.6 381.5 98.1 381.4 97.9 381.7 97.4 381.6 97"/><polygon class="cls-75" points="386.5 95.6 386.7 95.5 387 95.1 387.1 94.7 386.7 94.7 386.5 95.6"/><polygon class="cls-76" points="375.3 93.5 375 93.4 374.6 93.8 374.6 94.1 375.1 93.8 375.3 93.5"/><polygon class="cls-77" points="390.1 92.7 390 92.9 390.2 93.1 390.6 92.8 390.9 91.7 390.6 92.2 390.1 92.7"/><polygon class="cls-78" points="391.3 87.8 391 88.1 390.8 88 390.6 88.1 390.5 87.8 389.5 88.3 389.3 88.2 389.2 88.4 388.8 88.3 388.6 88.7 388.4 88.7 388.2 89.1 387.7 89.3 387.3 89.2 387 89.3 386.1 89.6 385.3 89.7 385.3 89.9 385 90.2 384.8 90.2 384.5 90.5 384.3 90.5 383.7 90.9 383.2 90.6 382.9 90.7 383 91.2 382.9 91.2 382.5 91.5 382.5 91.9 383.1 91.7 383.2 91.8 383.1 92 383.3 92.4 383.3 92.8 383.3 93.1 383.6 93.1 383.9 92.9 384.1 92.4 384.5 92.2 384.9 92.3 384.9 92.5 385.2 92.6 385.4 92.3 385.5 91.9 385.7 91.8 386 91.7 386 91.5 386.4 91.3 387 91.1 387.4 91.3 386.9 91.8 387.9 91.8 388.6 91.7 389 91.4 389.5 91.3 389.9 91.3 390.2 91.6 390.5 91.3 390.4 90.7 390.6 90.6 391.1 89.9 391.1 89.6 390.5 89.9 390.2 90.2 389.6 90.5 389.4 90.8 389.1 91.1 389 91.2 388.4 91.5 388.1 91.4 388.2 91.2 388.4 90.9 388.8 90.7 389 90.1 389.7 89.7 390 89.6 390.8 88.5 391.2 88.1 391.4 88.1 391.9 87.7 391.8 87.6 391.3 87.8"/></g></g></g></g></g></svg>