<svg xmlns="http://www.w3.org/2000/svg" xmlns:xlink="http://www.w3.org/1999/xlink" viewBox="0 0 264.7 434"><defs><style>.cls-1{fill:url(#Naamloos_verloop_20);}.cls-2{fill:url(#Naamloos_verloop_20-2);}.cls-3{fill:url(#Naamloos_verloop_20-3);}.cls-4{fill:url(#Naamloos_verloop_20-4);}.cls-5{fill:url(#Naamloos_verloop_20-5);}.cls-6{fill:url(#Naamloos_verloop_20-6);}.cls-7{fill:url(#Naamloos_verloop_20-7);}.cls-8{fill:url(#Naamloos_verloop_20-8);}.cls-9{fill:url(#Naamloos_verloop_20-9);}.cls-10{fill:url(#Naamloos_verloop_20-10);}.cls-11{fill:url(#Naamloos_verloop_20-11);}.cls-12{fill:url(#Naamloos_verloop_20-12);}.cls-13{fill:url(#Naamloos_verloop_20-13);}.cls-14{fill:url(#Naamloos_verloop_20-14);}.cls-15{fill:url(#Naamloos_verloop_20-15);}</style><linearGradient id="Naamloos_verloop_20" x1="101.3" y1="424.55" x2="152.3" y2="424.55" gradientUnits="userSpaceOnUse"><stop offset="0" stop-color="#3174ec"/><stop offset="1" stop-color="#4181f3"/></linearGradient><linearGradient id="Naamloos_verloop_20-2" x1="0" y1="211.65" x2="264.7" y2="211.65" xlink:href="#Naamloos_verloop_20"/><linearGradient id="Naamloos_verloop_20-3" x1="171.7" y1="414.15" x2="172.5" y2="414.15" xlink:href="#Naamloos_verloop_20"/><linearGradient id="Naamloos_verloop_20-4" x1="171.4" y1="413.2" x2="172.1" y2="413.2" xlink:href="#Naamloos_verloop_20"/><linearGradient id="Naamloos_verloop_20-5" x1="177.2" y1="412.2" x2="177.8" y2="412.2" xlink:href="#Naamloos_verloop_20"/><linearGradient id="Naamloos_verloop_20-6" x1="164.3" y1="411.15" x2="165.6" y2="411.15" xlink:href="#Naamloos_verloop_20"/><linearGradient id="Naamloos_verloop_20-7" x1="165.2" y1="410.65" x2="172.5" y2="410.65" xlink:href="#Naamloos_verloop_20"/><linearGradient id="Naamloos_verloop_20-8" x1="170" y1="408.1" x2="170.6" y2="408.1" xlink:href="#Naamloos_verloop_20"/><linearGradient id="Naamloos_verloop_20-9" x1="168.6" y1="407.75" x2="169" y2="407.75" xlink:href="#Naamloos_verloop_20"/><linearGradient id="Naamloos_verloop_20-10" x1="167.3" y1="407.95" x2="168.4" y2="407.95" xlink:href="#Naamloos_verloop_20"/><linearGradient id="Naamloos_verloop_20-11" x1="171.9" y1="410.75" x2="180.1" y2="410.75" xlink:href="#Naamloos_verloop_20"/><linearGradient id="Naamloos_verloop_20-12" x1="169.5" y1="407.6" x2="171.3" y2="407.6" xlink:href="#Naamloos_verloop_20"/><linearGradient id="Naamloos_verloop_20-13" x1="162.5" y1="406.15" x2="163" y2="406.15" xlink:href="#Naamloos_verloop_20"/><linearGradient id="Naamloos_verloop_20-14" x1="111.6" y1="12.75" x2="117.5" y2="12.75" xlink:href="#Naamloos_verloop_20"/><linearGradient id="Naamloos_verloop_20-15" x1="118" y1="7.65" x2="119.9" y2="7.65" xlink:href="#Naamloos_verloop_20"/></defs><g id="Laag_2" data-name="Laag 2"><g id="Laag_1-2" data-name="Laag 1"><g id="Laag_2-2" data-name="Laag 2"><g id="World-map"><g id="South-America"><polygon class="cls-1" points="137.2 423.3 132.9 418.7 129.8 415.9 126.1 415.1 122.7 417.7 123 421.9 121.8 424.7 114.5 422.5 105.9 418.4 101.3 417.1 111.1 424 117.5 427.2 125 430.6 130.4 431.5 134.6 433.3 137.7 433.8 140.1 434 143.3 432.1 143.8 429.7 147.1 431.8 151.5 431.5 152.3 428.5 145 427 137.2 423.3"/><path class="cls-2" d="M263.6,123.1l-2-8.2-2.1-2-4.8-.3-4.4-1.8-7.4-7.2-8.4-5.3-8.5.2-11-3.4-6.6,2,.9-3.6-2.8-3.7L197,85.9l-7.1-2.3-4.3,4.2-.2-6.5-10.1-1-1.7-1.9,4.3-5.3-.1-4.4-3.1-1.1-3-11.2-1.3-3.6-2,.3-.8-2.6-5.9-5.4-4.1-1.5-1.9-.7-3.1,5.5h0l3.1-5.5-6.1-1.8-4.6.5-.6,1.2-6.8-1.3-1,5.8-3.5,1.6.3,1.5-1.1,3.4,2.4,4.6h0l-2.4-4.6,1.1-3.4-.3-1.5,3.5-1.6,1-5.8h0l-2.1-2.3-3-3.1-2.1-.1-.1-3.4L127,28.5l-3.6-2.4-4.7,3.8-.5,2.3h0l.5-2.3,4.7-3.8h0l-2.2-1.5-2.9.1-.7-5.1-4.2-3.2-4.5-.4-1.8-3.1L112,11l-6.7.1-7.1.4-.1,1.6-3.3,2-4.2-.8-3.1-2.8-6.1.6h-5l-.2-2.2L72.8,6.4l-4-.1L67.1,1.7,65,3.8l.6,3L58.4,9.4v4.9l1.7,2.2-1.5,4.7-2.5.4-1.9-5.1,2.7-3.7.3-3.4L55.5,6.5l3.4-.8.2-1.5L55.4,5.3,53.8,8.5l-2.3,1.8-1.8,2.4-.9,4.6L47,21.1h0l1.8-3.8.9-4.6,1.8-2.4,2.3-1.8,1.6-3.2,3.7-1.1h0l1.2-2.1L59,.4,57,0,54.1,3.1,51.8,4.5,47.2,7.7l-4.4-.5-.6,1.3-3.5.2-3.4,2.9-1.4,5.5-.1,2.1-2.4.7-4.5,4.5L24,24.2l-.7.9,1.1,3.8-1.1,1.9-1.8-.5-.9,3.1,2.2,3.5.7,5.4L22.2,44l1.1,5.9-1.2,3.7,2,1.5-2.2,3.4-2.5,4-2.8.4-1.4,2.4.2,3.2-2.1.5.7,2,5.6,3.6,1.1-.1,1.4,2.8,4.8.9,1.6-1,2.8,2.1,2.4,1.5,1.5-.6,3.8,3,1.8,3.1,2.6,1.6,3.5,6.7,4.2.9,3.1-1.7,2.1,1.1,3.4-.6,4.4,3h0l-4.4-3-3.4.6-2.1-1.1-3.1,1.7-4.2-.9-3.5-6.7-2.6-1.6L39,83.2l-3.8-3-1.5.6.8,4.9-1.7,4.1-6.1,6.8L20,99.1l-3.4,5.6-.9,4.3-3.1,2.7-2.5-3.3-2.3-.7-2.3.5h0l2.3-.5,2.3.7,2.5,3.3,3.1-2.7.9-4.3L20,99.1l6.7-2.5,6.1-6.8,1.7-4.1-.8-4.9h0l-2.4-1.5-2.8-2.1-1.6,1-4.8-.9-1.4-2.8-1.1.1L14,71l-3.9,2.5L7,74.9l.3,2.6L5.2,81.6l-1,4-2,1,1,5.8L2.1,94.2l3.5,2.9,2.1-3L9,96.9l-2.9,4.8h0l-4.4,4L0,110.2l3,6.2-1.7,2.8,4.1,2.6L10,126l2,4.7,2.4,3,6,12.8,6.4,11.8,5.4,8.4-.8,1.9,2.8,5.3,4.7,3.9,10.7,7.1,11.7,6.4.8,2.6,5.9,3.7,2.1,9.1,1.5,10.5-.1,14.3v13.4l.9,12.4-1.8,7.8,2.1,7.9-.6,5.3,3.3,9.7-.1,9.5-1.2,10.3-.6,10.3-2.2.3,2.4,7.2,3.3,6.2-1.1,4.4,2,11.8,1.5,9,3.5.9-1-7.9,4,1.7,1.8,13.1-6.5-2.2,2,10.5-2.7,5.5,8.3,1.9-3.4,4.8.2,6,5,10.6,4.2,4.2.3,3.6,3.2,3.9,7.6,3.5,7.5,4.3,6.3,1.9,1.9-.1-1.7-5.7,3.4-2.2,1.7-1.5h4.3l2.1.3-4.6-3.5-4.2-6.5.9-2.9,3.5-2.4.6-7.3,4.6-3.5-.2-5.7-5.2-1.2-6.5-4.6-.1-4.8,3-3.2H128l.1-3.4-1.2-6.3,2.9-4,4.2-2-2.5-3.3-2.3,2-4-1.9-2.5-6.3,1.5-1.7,5.6,2.4,5.1-.9,2.5-2.3-1.8-3.2-.1-4.7-2.1-3.9,6,.7,10.2-1.3,7-3.5,3.3-8.2-.3-3.1-3.9-2.8-.2-4.4-7.8-5.5-.3-3.4,3.9,3.6,3.6-.2,5.5,2.7,2.8-.7,4.2,1.3,5.4-3.5,1.6-4.1h0l2.9-3.6,1.5-6.1,3.2-3.1,4-5,4.5-11.3,3.4-3.6.8-3.1.3-6.5-1.3-3.5.3-4.8,4.1-6.4,6.1-5.1,6-1.9,3.7-2.9,8.5-2.4h6l1.1-3.9,4.3-2.7.5-6.7,5.2-8.3.5-8.6,1.6-2.6.3-4.2,1.1-9.9-.9-12,1.3-4.7,1.4-.2,4-5.5,3.4-7.3,7.7-8.9,2.7-4.2,2.1-10.6ZM113.3,222.7l-1-1.4h0ZM78.4,210.6l1.1-6.2h0ZM60.6,103.9l1.7.1,2.9,3.4h0L62.3,104ZM76.3,69h0l-11-.2h0Zm71.4,152.6h0l-2.2,1.3h0Zm-10.5-12.2,1.6-1.4h0Zm2-141.5-3.2-.6h0l3.2.6,1.3-.3h0Zm-18,108.8,1.7-.1h0Zm-19.3-111-4.1,1.8h0ZM77.2,148.6l-1.1,1.9h0ZM67.3,75.3l1.1.7h0l-1.1-.7-3.2,1h0Zm37,150.9h0l-.4-.5Zm54-159.6h0l-.8-1.8h0ZM152,65h0l-3.2-1.4h0Zm-5.9-.7h0l-2.3-.6h0Zm-9.6-5.9.7,3.6,3.3,5.6,3.1.6h0l-3.1-.6h0L137.2,62Zm-4.9,11.7h0l-1.8.3h0ZM115.1,39.8v-3l3.5-1,1.4-1.2-.6-.8.6.8-1.4,1.2-3.5,1v3l-1.6,1.8,3.7,4.8,3-.2,1.2,1.4-.8,2.9,2,.9,1.2,3-1.6,2.3-1,5.4,1.4,3.3.3,3,3.5,3,2.8.3h0l-2.8-.3-3.5-3-.3-3-1.4-3.3,1-5.4,1.6-2.3-1.2-3-2-.9.8-2.9-1.2-1.4-3,.2h0l-3.7-4.8Zm-5.7,13.3,6.4-2.4h0l-6.4,2.4-4.1,1h0ZM99.1,54l4.5,1.6h0L99.1,54,95,53.2h0Zm-4.4-.64-.8.44h0Zm0,17.94,2.4-1.1h0l-2.4,1.1-4.2,1.5h0ZM80,40.7l-1.2,3.4-1.3,2.2-.6,4.6L78,55.2l1.5,1.9.2,1.4-2.9,3.2,2,1.4,1.5,2.3,1.6,6.4L85,75.2l4.4-.4h0l-4.4.4-3.1-3.4-1.1.8-1-3.8-1.6-2.1h0l1.6,2.1,1,3.8,1.1-.8-1.6-6.4-1.5-2.3-2-1.4,2.9-3.2-.2-1.4L78,55.2l-1.1-4.3.6-4.6,1.3-2.2L80,40.7l-2-1.1h0ZM64.6,35.1l3.8,5.6h0l-3.8-5.6-3.3-.8h0ZM51.3,30.8l.7-2.4-.3-2.5-1.2-1.5-.6-2.9-.8-.11.8.11.6,2.9,1.2,1.5.3,2.5-.7,2.4.1,1.4h0Zm1.5,1.9h0L54,34.9h0Zm12.4,74.7h0l-5.1-.3h0Zm-5.9.7h0l-4.6,1.2h0Zm-.6,36.4h0l4.4-3.7h0Zm54.6,78.2,1.5-7.7-.2-3.5,2.1-5.6h0l-2.1,5.6.2,3.5-1.5,7.7,10.83,10Zm26,31.3,4.2-9.8-1.1-2.8-5.9-2.5-4.8-3.16,4.8,3.16,5.9,2.5,1.1,2.8-4.2,9.8,5.8,1.7Z"/><polygon class="cls-3" points="172.2 413.8 172 413.9 171.7 414.2 172.5 414.5 172.5 414.1 172.1 414.2 172.2 413.8"/><polygon class="cls-4" points="171.8 413.6 172.1 413.5 172 413.1 171.6 413 171.4 412.8 171.5 413 171.7 413.2 171.8 413.6"/><polygon class="cls-5" points="177.5 411.9 177.2 412.1 177.4 412.4 177.7 412.5 177.8 412.1 177.6 412 177.5 411.9"/><polygon class="cls-6" points="165.6 411.6 165.5 411.3 165.5 411.1 165.4 410.8 165.1 411.1 164.8 411 165.1 410.7 164.9 410.6 164.6 410.7 164.5 410.9 164.3 410.9 164.4 411.3 164.7 411.4 164.9 411.6 165.2 411.7 165.6 411.6"/><polygon class="cls-7" points="172 409.6 172.2 409.4 172.1 409.1 172.5 408.6 172.4 408.2 171.8 408 171.4 408 171.5 408.3 171.8 408.5 171.4 408.6 171.1 408.6 171 408.4 170.1 408.6 169.8 408.6 169.8 408.3 169.3 408.3 169.2 408.1 168.8 408.3 168.6 408.2 168.5 408.5 168.2 408.8 167.8 408.7 167.3 408.6 166.5 408.2 165.7 407.9 165.5 408 165.8 408.4 166.1 408.5 166.8 408.6 166.7 409 167.5 409.3 168 409.6 168.4 409.8 168.8 409.9 168.8 410 168.4 409.8 167.9 409.9 167.6 409.9 167 410.1 166.3 409.9 166.3 410.2 166.8 410.5 167.4 410.5 167.8 410.3 167.8 410.2 168.6 410.2 168.7 410.5 168.3 410.6 168.1 410.5 167.5 410.5 167.4 410.7 167.6 411.2 168 411.4 167.9 411.7 167.5 411.8 167.5 412 167.2 411.8 166.8 411.7 165.9 411.7 166 411.8 166.5 412 165.9 412.2 165.2 412 165.2 412.2 165.5 412.4 165.9 412.6 166.1 412.7 166.6 413 167 413 166.4 412.6 166.9 412.6 166.9 412.8 167.3 413.1 167.5 413.4 167.7 413.4 168 413.3 168.3 412.9 168.7 412.9 168.9 412.5 169 412.4 168.7 412 168.8 411.9 169.6 412 169.6 411.7 170 411.7 170.1 411.9 170.6 411.6 170.7 411.3 171 410.7 171.3 410.4 171.6 409.6 172 409.6"/><polygon class="cls-8" points="170 407.9 170 408.3 170.3 408.3 170.6 408.2 170.3 407.9 170 407.9"/><polygon class="cls-9" points="169 407.7 168.6 407.6 168.7 407.9 169 407.9 169 407.7"/><polygon class="cls-10" points="167.6 407.9 167.3 408.1 167.6 408.3 167.9 408.2 168.1 408.3 168.4 407.9 168.2 407.6 167.6 407.7 167.5 407.8 168 407.9 167.9 408.1 167.6 407.9"/><polygon class="cls-11" points="179.7 409.5 178.8 409.4 178.4 409.3 178.1 409.1 178.7 408.9 179.2 409.1 179.8 409.2 179.8 408.8 179.6 408.7 178.9 408.1 177.4 408.2 177.1 408.4 177 408.9 177.8 409.1 177.7 409.5 177.2 409.2 177.1 409.3 176.8 409.2 176.7 408.8 176.5 408.7 176.2 408.9 176.1 408.6 175.9 408.5 176 408.2 176.2 408.3 176.4 408.6 176.9 408.5 176.9 408.4 176.8 408.1 176.4 407.8 176 407.6 175.5 407.7 175.4 407.8 174.8 407.8 174.3 407.6 173.9 407.6 174.2 407.9 174 408.2 173.7 408.2 173.4 408.4 173.2 408.3 173.1 408.6 173.8 408.8 173.7 409.3 173.3 409.1 173.2 409.3 173.6 409.6 174.2 409.8 174.1 410.1 174.6 410.7 174.3 410.8 174.3 410.4 173.9 410 173.3 410.2 172.7 410.6 172.8 410.9 172.3 411 172.4 411.2 171.9 411.4 171.9 411.6 172.3 412.1 172.3 412.3 172 412.7 172.4 413.2 172.6 413.2 172.7 413.4 173.2 413.6 173.3 413.8 173.7 413.9 173.8 413.7 173.8 413.4 173.3 413.3 173.4 412.7 173.7 412.8 174 412.9 174.3 413.2 174.6 413.2 175 413.4 175.2 413.3 174.5 412.7 174.7 412.6 174.5 412.4 174.2 412.4 174 412 174.2 411.9 174.7 412.1 175 412.1 175.3 412.3 175.5 412.6 176 412.2 176.4 412.3 176.7 412.6 176.9 412.6 176.7 412.1 176.9 412 176.5 411.7 176.1 411.6 175.9 411.7 175.6 411.4 175 411.2 174.7 411 174.7 410.7 175.3 411.1 175.9 411.3 176.6 411.3 177.1 411.2 177.5 411.3 178.4 410.9 178.1 410.7 178.6 410.5 179.3 410.4 179.4 410.3 179.9 410.3 180.1 409.8 180 409.6 179.7 409.5"/><polygon class="cls-12" points="171.1 407.9 171.3 407.8 171.1 407.5 170.9 407.4 170.7 407.6 170.5 407.4 169.8 407.4 169.6 407.3 169.5 407.5 170.3 407.6 170.7 407.8 171.1 407.9"/><polygon class="cls-13" points="162.5 406.2 163 406.3 162.6 406 162.5 406.2"/><polygon class="cls-14" points="111.9 15.3 112.2 15.1 112.8 15.1 113.2 15.3 113.7 15.1 114 15.2 114.4 15.1 114.9 15.2 115.4 15.1 115.7 15.1 116.2 15 116.6 14.8 116.8 14.7 116.8 14 116.9 13.7 117.1 13.5 116.9 13.3 116.7 13 116.7 12.3 116.9 12.2 116.7 11.6 116.8 11.2 117 11.1 117.3 10.7 117.5 10.2 117.3 10.2 116.1 10.4 116 10.5 114.9 10.5 114.7 10.7 113.6 10.8 113.2 11.1 113.3 11.2 113.7 11.3 114 11.4 114.3 11.8 114.3 12 114.3 12.5 114.1 12.9 114.3 13.7 114 14.1 113.4 14 113.2 14.3 112.8 14.6 112.4 14.7 112.1 15 111.6 15.2 111.9 15.3"/><polygon class="cls-15" points="118.9 7.9 119.1 7.9 119.5 7.6 119.8 7.5 119.9 7 119 7.3 118.3 7.8 118 8.1 118.2 8.3 118.9 7.9"/></g></g></g></g></g></svg>